<mxfile host="Electron" modified="2023-08-10T04:12:16.383Z" agent="Mozilla/5.0 (Windows NT 10.0; Win64; x64) AppleWebKit/537.36 (KHTML, like Gecko) draw.io/21.6.5 Chrome/114.0.5735.243 Electron/25.3.1 Safari/537.36" etag="_V1PCTUXBcXLgJbN8dBS" version="21.6.5" type="device">
  <diagram name="Page-1" id="c7488fd3-1785-93aa-aadb-54a6760d102a">
    <mxGraphModel dx="2744" dy="1573" grid="1" gridSize="10" guides="1" tooltips="1" connect="1" arrows="1" fold="1" page="1" pageScale="1" pageWidth="1100" pageHeight="850" background="none" math="0" shadow="0">
      <root>
        <mxCell id="0" />
        <mxCell id="1" parent="0" />
        <mxCell id="2b4e8129b02d487f-1" value="로그인 / 회원가입 / 자동차 번호판 검색 (Login/Regist/Search Car License Plate)" style="swimlane;html=1;childLayout=stackLayout;horizontal=1;startSize=20;horizontalStack=0;rounded=0;shadow=0;labelBackgroundColor=none;strokeWidth=1;fontFamily=Verdana;fontSize=8;align=center;" parent="1" vertex="1">
          <mxGeometry x="40" y="80" width="5800" height="2295" as="geometry" />
        </mxCell>
        <mxCell id="2b4e8129b02d487f-2" value="User" style="swimlane;html=1;startSize=20;horizontal=0;" parent="2b4e8129b02d487f-1" vertex="1">
          <mxGeometry y="20" width="5800" height="556" as="geometry" />
        </mxCell>
        <mxCell id="VpIsl_ptoI0kqu_PUw9b-42" style="edgeStyle=orthogonalEdgeStyle;rounded=0;orthogonalLoop=1;jettySize=auto;html=1;exitX=1;exitY=0.5;exitDx=0;exitDy=0;entryX=0;entryY=0.5;entryDx=0;entryDy=0;" parent="2b4e8129b02d487f-2" target="VpIsl_ptoI0kqu_PUw9b-41" edge="1">
          <mxGeometry relative="1" as="geometry">
            <mxPoint x="360" y="221.0000000000001" as="sourcePoint" />
          </mxGeometry>
        </mxCell>
        <mxCell id="VpIsl_ptoI0kqu_PUw9b-51" value="" style="edgeStyle=orthogonalEdgeStyle;rounded=0;orthogonalLoop=1;jettySize=auto;html=1;" parent="2b4e8129b02d487f-2" source="VpIsl_ptoI0kqu_PUw9b-41" target="VpIsl_ptoI0kqu_PUw9b-50" edge="1">
          <mxGeometry relative="1" as="geometry" />
        </mxCell>
        <mxCell id="VpIsl_ptoI0kqu_PUw9b-52" value="" style="edgeStyle=orthogonalEdgeStyle;rounded=0;orthogonalLoop=1;jettySize=auto;html=1;" parent="2b4e8129b02d487f-2" source="VpIsl_ptoI0kqu_PUw9b-41" target="VpIsl_ptoI0kqu_PUw9b-50" edge="1">
          <mxGeometry relative="1" as="geometry" />
        </mxCell>
        <mxCell id="VpIsl_ptoI0kqu_PUw9b-54" value="" style="edgeStyle=orthogonalEdgeStyle;rounded=0;orthogonalLoop=1;jettySize=auto;html=1;" parent="2b4e8129b02d487f-2" source="VpIsl_ptoI0kqu_PUw9b-41" target="VpIsl_ptoI0kqu_PUw9b-53" edge="1">
          <mxGeometry relative="1" as="geometry" />
        </mxCell>
        <mxCell id="VpIsl_ptoI0kqu_PUw9b-41" value="로그인&lt;br&gt;회원가입&lt;br&gt;선택" style="rhombus;whiteSpace=wrap;html=1;" parent="2b4e8129b02d487f-2" vertex="1">
          <mxGeometry x="440" y="181" width="80" height="80" as="geometry" />
        </mxCell>
        <mxCell id="VpIsl_ptoI0kqu_PUw9b-48" value="" style="edgeStyle=orthogonalEdgeStyle;rounded=0;orthogonalLoop=1;jettySize=auto;html=1;" parent="2b4e8129b02d487f-2" source="VpIsl_ptoI0kqu_PUw9b-46" target="VpIsl_ptoI0kqu_PUw9b-47" edge="1">
          <mxGeometry relative="1" as="geometry" />
        </mxCell>
        <mxCell id="VpIsl_ptoI0kqu_PUw9b-46" value="웹사이트 접속" style="rounded=0;whiteSpace=wrap;html=1;" parent="2b4e8129b02d487f-2" vertex="1">
          <mxGeometry x="80" y="191" width="120" height="60" as="geometry" />
        </mxCell>
        <mxCell id="VpIsl_ptoI0kqu_PUw9b-47" value="로그인 페이지" style="whiteSpace=wrap;html=1;rounded=0;" parent="2b4e8129b02d487f-2" vertex="1">
          <mxGeometry x="240" y="191" width="120" height="60" as="geometry" />
        </mxCell>
        <mxCell id="VpIsl_ptoI0kqu_PUw9b-67" value="" style="edgeStyle=orthogonalEdgeStyle;rounded=0;orthogonalLoop=1;jettySize=auto;html=1;" parent="2b4e8129b02d487f-2" source="VpIsl_ptoI0kqu_PUw9b-50" target="VpIsl_ptoI0kqu_PUw9b-66" edge="1">
          <mxGeometry relative="1" as="geometry" />
        </mxCell>
        <mxCell id="VpIsl_ptoI0kqu_PUw9b-50" value="약관 동의 페이지" style="whiteSpace=wrap;html=1;" parent="2b4e8129b02d487f-2" vertex="1">
          <mxGeometry x="580" y="251" width="120" height="60" as="geometry" />
        </mxCell>
        <mxCell id="kmouRNJiQMqvB9NYq39l-181" value="" style="edgeStyle=orthogonalEdgeStyle;rounded=0;orthogonalLoop=1;jettySize=auto;html=1;" parent="2b4e8129b02d487f-2" source="VpIsl_ptoI0kqu_PUw9b-53" target="kmouRNJiQMqvB9NYq39l-180" edge="1">
          <mxGeometry relative="1" as="geometry" />
        </mxCell>
        <mxCell id="VpIsl_ptoI0kqu_PUw9b-53" value="로그인 정보 입력&amp;nbsp;&lt;br&gt;(동호수, 비밀번호)" style="whiteSpace=wrap;html=1;" parent="2b4e8129b02d487f-2" vertex="1">
          <mxGeometry x="580" y="131" width="120" height="60" as="geometry" />
        </mxCell>
        <mxCell id="VpIsl_ptoI0kqu_PUw9b-55" value="로그인&lt;br&gt;선택" style="text;html=1;strokeColor=none;fillColor=none;align=center;verticalAlign=middle;whiteSpace=wrap;rounded=0;" parent="2b4e8129b02d487f-2" vertex="1">
          <mxGeometry x="500" y="174" width="60" height="30" as="geometry" />
        </mxCell>
        <mxCell id="VpIsl_ptoI0kqu_PUw9b-56" value="회원가입&lt;br&gt;선택" style="text;html=1;strokeColor=none;fillColor=none;align=center;verticalAlign=middle;whiteSpace=wrap;rounded=0;" parent="2b4e8129b02d487f-2" vertex="1">
          <mxGeometry x="494" y="241" width="60" height="30" as="geometry" />
        </mxCell>
        <mxCell id="VpIsl_ptoI0kqu_PUw9b-66" value="다음 버튼" style="whiteSpace=wrap;html=1;" parent="2b4e8129b02d487f-2" vertex="1">
          <mxGeometry x="873" y="251" width="120" height="60" as="geometry" />
        </mxCell>
        <mxCell id="VpIsl_ptoI0kqu_PUw9b-83" value="" style="edgeStyle=orthogonalEdgeStyle;rounded=0;orthogonalLoop=1;jettySize=auto;html=1;" parent="2b4e8129b02d487f-2" source="VpIsl_ptoI0kqu_PUw9b-80" target="VpIsl_ptoI0kqu_PUw9b-82" edge="1">
          <mxGeometry relative="1" as="geometry" />
        </mxCell>
        <mxCell id="VpIsl_ptoI0kqu_PUw9b-80" value="개인 정보 입력 페이지" style="whiteSpace=wrap;html=1;" parent="2b4e8129b02d487f-2" vertex="1">
          <mxGeometry x="1260" y="251" width="120" height="60" as="geometry" />
        </mxCell>
        <mxCell id="VpIsl_ptoI0kqu_PUw9b-82" value="다음 버튼" style="whiteSpace=wrap;html=1;" parent="2b4e8129b02d487f-2" vertex="1">
          <mxGeometry x="1460" y="251" width="120" height="60" as="geometry" />
        </mxCell>
        <mxCell id="wPVQGBUB4z8hFI1XciTC-42" value="로그인 정보 전송" style="whiteSpace=wrap;html=1;" parent="2b4e8129b02d487f-2" vertex="1">
          <mxGeometry x="1200" y="152" width="120" height="60" as="geometry" />
        </mxCell>
        <mxCell id="wPVQGBUB4z8hFI1XciTC-76" value="" style="edgeStyle=orthogonalEdgeStyle;rounded=0;orthogonalLoop=1;jettySize=auto;html=1;" parent="2b4e8129b02d487f-2" source="wPVQGBUB4z8hFI1XciTC-69" target="wPVQGBUB4z8hFI1XciTC-75" edge="1">
          <mxGeometry relative="1" as="geometry" />
        </mxCell>
        <mxCell id="wPVQGBUB4z8hFI1XciTC-69" value="메인 페이지" style="whiteSpace=wrap;html=1;rounded=0;" parent="2b4e8129b02d487f-2" vertex="1">
          <mxGeometry x="2670" y="226" width="120" height="60" as="geometry" />
        </mxCell>
        <mxCell id="wPVQGBUB4z8hFI1XciTC-78" value="" style="edgeStyle=orthogonalEdgeStyle;rounded=0;orthogonalLoop=1;jettySize=auto;html=1;" parent="2b4e8129b02d487f-2" source="wPVQGBUB4z8hFI1XciTC-75" target="wPVQGBUB4z8hFI1XciTC-77" edge="1">
          <mxGeometry relative="1" as="geometry">
            <Array as="points">
              <mxPoint x="2890" y="140" />
            </Array>
          </mxGeometry>
        </mxCell>
        <mxCell id="wPVQGBUB4z8hFI1XciTC-82" style="edgeStyle=orthogonalEdgeStyle;rounded=0;orthogonalLoop=1;jettySize=auto;html=1;exitX=0.5;exitY=1;exitDx=0;exitDy=0;entryX=0;entryY=0.5;entryDx=0;entryDy=0;" parent="2b4e8129b02d487f-2" source="wPVQGBUB4z8hFI1XciTC-75" target="wPVQGBUB4z8hFI1XciTC-80" edge="1">
          <mxGeometry relative="1" as="geometry" />
        </mxCell>
        <mxCell id="wPVQGBUB4z8hFI1XciTC-75" value="관리자 여부" style="rhombus;whiteSpace=wrap;html=1;rounded=0;" parent="2b4e8129b02d487f-2" vertex="1">
          <mxGeometry x="2850" y="216" width="80" height="80" as="geometry" />
        </mxCell>
        <mxCell id="wPVQGBUB4z8hFI1XciTC-86" value="" style="edgeStyle=orthogonalEdgeStyle;rounded=0;orthogonalLoop=1;jettySize=auto;html=1;" parent="2b4e8129b02d487f-2" source="wPVQGBUB4z8hFI1XciTC-77" target="wPVQGBUB4z8hFI1XciTC-85" edge="1">
          <mxGeometry relative="1" as="geometry" />
        </mxCell>
        <mxCell id="wPVQGBUB4z8hFI1XciTC-77" value="일반 메뉴 +&lt;br&gt;관리자 권한 필요 메뉴&lt;br&gt;추가 표시" style="whiteSpace=wrap;html=1;rounded=0;" parent="2b4e8129b02d487f-2" vertex="1">
          <mxGeometry x="2950" y="110" width="120" height="60" as="geometry" />
        </mxCell>
        <mxCell id="wPVQGBUB4z8hFI1XciTC-80" value="일반 메뉴만 출력" style="whiteSpace=wrap;html=1;rounded=0;" parent="2b4e8129b02d487f-2" vertex="1">
          <mxGeometry x="2950" y="325" width="120" height="60" as="geometry" />
        </mxCell>
        <mxCell id="wPVQGBUB4z8hFI1XciTC-83" value="관리자" style="text;html=1;strokeColor=none;fillColor=none;align=center;verticalAlign=middle;whiteSpace=wrap;rounded=0;" parent="2b4e8129b02d487f-2" vertex="1">
          <mxGeometry x="2840" y="170" width="60" height="30" as="geometry" />
        </mxCell>
        <mxCell id="wPVQGBUB4z8hFI1XciTC-84" value="일반 유저" style="text;html=1;strokeColor=none;fillColor=none;align=center;verticalAlign=middle;whiteSpace=wrap;rounded=0;" parent="2b4e8129b02d487f-2" vertex="1">
          <mxGeometry x="2830" y="310" width="60" height="30" as="geometry" />
        </mxCell>
        <mxCell id="kmouRNJiQMqvB9NYq39l-159" value="" style="edgeStyle=orthogonalEdgeStyle;rounded=0;orthogonalLoop=1;jettySize=auto;html=1;" parent="2b4e8129b02d487f-2" source="wPVQGBUB4z8hFI1XciTC-85" target="kmouRNJiQMqvB9NYq39l-158" edge="1">
          <mxGeometry relative="1" as="geometry" />
        </mxCell>
        <mxCell id="wPVQGBUB4z8hFI1XciTC-85" value="차량 번호판&lt;br&gt;인식 메뉴" style="rhombus;whiteSpace=wrap;html=1;rounded=0;" parent="2b4e8129b02d487f-2" vertex="1">
          <mxGeometry x="3100" y="100" width="80" height="80" as="geometry" />
        </mxCell>
        <mxCell id="wPVQGBUB4z8hFI1XciTC-94" value="" style="edgeStyle=orthogonalEdgeStyle;rounded=0;orthogonalLoop=1;jettySize=auto;html=1;" parent="2b4e8129b02d487f-2" source="wPVQGBUB4z8hFI1XciTC-87" target="wPVQGBUB4z8hFI1XciTC-93" edge="1">
          <mxGeometry relative="1" as="geometry" />
        </mxCell>
        <mxCell id="kmouRNJiQMqvB9NYq39l-154" style="edgeStyle=orthogonalEdgeStyle;rounded=0;orthogonalLoop=1;jettySize=auto;html=1;exitX=0.75;exitY=1;exitDx=0;exitDy=0;entryX=0;entryY=0.5;entryDx=0;entryDy=0;" parent="2b4e8129b02d487f-2" source="wPVQGBUB4z8hFI1XciTC-87" target="wPVQGBUB4z8hFI1XciTC-151" edge="1">
          <mxGeometry relative="1" as="geometry">
            <Array as="points">
              <mxPoint x="3400" y="300" />
              <mxPoint x="4740" y="300" />
              <mxPoint x="4740" y="140" />
            </Array>
          </mxGeometry>
        </mxCell>
        <mxCell id="wPVQGBUB4z8hFI1XciTC-87" value="차량 번호판 이미지&lt;br style=&quot;border-color: var(--border-color);&quot;&gt;판독 페이지" style="whiteSpace=wrap;html=1;rounded=0;" parent="2b4e8129b02d487f-2" vertex="1">
          <mxGeometry x="3310" y="110" width="120" height="60" as="geometry" />
        </mxCell>
        <mxCell id="kmouRNJiQMqvB9NYq39l-36" value="" style="edgeStyle=orthogonalEdgeStyle;rounded=0;orthogonalLoop=1;jettySize=auto;html=1;" parent="2b4e8129b02d487f-2" source="wPVQGBUB4z8hFI1XciTC-93" target="kmouRNJiQMqvB9NYq39l-35" edge="1">
          <mxGeometry relative="1" as="geometry" />
        </mxCell>
        <mxCell id="wPVQGBUB4z8hFI1XciTC-93" value="차량 번호판 이미지&lt;br style=&quot;border-color: var(--border-color);&quot;&gt;업로드" style="whiteSpace=wrap;html=1;rounded=0;" parent="2b4e8129b02d487f-2" vertex="1">
          <mxGeometry x="3510" y="110" width="120" height="60" as="geometry" />
        </mxCell>
        <mxCell id="wPVQGBUB4z8hFI1XciTC-110" value="차량 번호판&lt;br&gt;메뉴 선택" style="text;html=1;strokeColor=none;fillColor=none;align=center;verticalAlign=middle;whiteSpace=wrap;rounded=0;" parent="2b4e8129b02d487f-2" vertex="1">
          <mxGeometry x="3160" y="100" width="70" height="30" as="geometry" />
        </mxCell>
        <mxCell id="kmouRNJiQMqvB9NYq39l-128" value="" style="edgeStyle=orthogonalEdgeStyle;rounded=0;orthogonalLoop=1;jettySize=auto;html=1;" parent="2b4e8129b02d487f-2" source="wPVQGBUB4z8hFI1XciTC-145" target="kmouRNJiQMqvB9NYq39l-127" edge="1">
          <mxGeometry relative="1" as="geometry" />
        </mxCell>
        <mxCell id="wPVQGBUB4z8hFI1XciTC-145" value="결과 출력" style="whiteSpace=wrap;html=1;rounded=0;" parent="2b4e8129b02d487f-2" vertex="1">
          <mxGeometry x="4474" y="110" width="120" height="60" as="geometry" />
        </mxCell>
        <mxCell id="kmouRNJiQMqvB9NYq39l-53" style="edgeStyle=orthogonalEdgeStyle;rounded=0;orthogonalLoop=1;jettySize=auto;html=1;exitX=1;exitY=0.5;exitDx=0;exitDy=0;entryX=0;entryY=0.5;entryDx=0;entryDy=0;" parent="2b4e8129b02d487f-2" source="wPVQGBUB4z8hFI1XciTC-151" target="wPVQGBUB4z8hFI1XciTC-157" edge="1">
          <mxGeometry relative="1" as="geometry">
            <Array as="points">
              <mxPoint x="5040" y="140" />
              <mxPoint x="5040" y="79" />
            </Array>
          </mxGeometry>
        </mxCell>
        <mxCell id="kmouRNJiQMqvB9NYq39l-55" style="edgeStyle=orthogonalEdgeStyle;rounded=0;orthogonalLoop=1;jettySize=auto;html=1;exitX=0.5;exitY=0;exitDx=0;exitDy=0;entryX=0.75;entryY=0;entryDx=0;entryDy=0;" parent="2b4e8129b02d487f-2" source="wPVQGBUB4z8hFI1XciTC-151" target="wPVQGBUB4z8hFI1XciTC-87" edge="1">
          <mxGeometry relative="1" as="geometry" />
        </mxCell>
        <mxCell id="wPVQGBUB4z8hFI1XciTC-151" value="수동 검색&lt;br&gt;버튼" style="rhombus;whiteSpace=wrap;html=1;rounded=0;" parent="2b4e8129b02d487f-2" vertex="1">
          <mxGeometry x="4770" y="100" width="80" height="80" as="geometry" />
        </mxCell>
        <mxCell id="kmouRNJiQMqvB9NYq39l-28" value="" style="edgeStyle=orthogonalEdgeStyle;rounded=0;orthogonalLoop=1;jettySize=auto;html=1;" parent="2b4e8129b02d487f-2" source="wPVQGBUB4z8hFI1XciTC-157" target="kmouRNJiQMqvB9NYq39l-25" edge="1">
          <mxGeometry relative="1" as="geometry" />
        </mxCell>
        <mxCell id="wPVQGBUB4z8hFI1XciTC-157" value="알림창 뜨면서&lt;br&gt;수동 검색 가능하도록&lt;br&gt;하는 입력 창 뜸" style="whiteSpace=wrap;html=1;rounded=0;" parent="2b4e8129b02d487f-2" vertex="1">
          <mxGeometry x="5085" y="49" width="120" height="60" as="geometry" />
        </mxCell>
        <mxCell id="wPVQGBUB4z8hFI1XciTC-160" value="누름" style="text;html=1;strokeColor=none;fillColor=none;align=center;verticalAlign=middle;whiteSpace=wrap;rounded=0;" parent="2b4e8129b02d487f-2" vertex="1">
          <mxGeometry x="4831" y="118" width="60" height="30" as="geometry" />
        </mxCell>
        <mxCell id="kmouRNJiQMqvB9NYq39l-150" style="edgeStyle=orthogonalEdgeStyle;rounded=0;orthogonalLoop=1;jettySize=auto;html=1;exitX=0.5;exitY=1;exitDx=0;exitDy=0;" parent="2b4e8129b02d487f-2" source="kmouRNJiQMqvB9NYq39l-25" target="kmouRNJiQMqvB9NYq39l-145" edge="1">
          <mxGeometry relative="1" as="geometry" />
        </mxCell>
        <mxCell id="kmouRNJiQMqvB9NYq39l-25" value="progress bar&lt;br&gt;33% 증가" style="whiteSpace=wrap;html=1;rounded=0;" parent="2b4e8129b02d487f-2" vertex="1">
          <mxGeometry x="5085" y="131" width="120" height="60" as="geometry" />
        </mxCell>
        <mxCell id="kmouRNJiQMqvB9NYq39l-30" value="" style="edgeStyle=orthogonalEdgeStyle;rounded=0;orthogonalLoop=1;jettySize=auto;html=1;" parent="2b4e8129b02d487f-2" source="kmouRNJiQMqvB9NYq39l-26" target="kmouRNJiQMqvB9NYq39l-27" edge="1">
          <mxGeometry relative="1" as="geometry" />
        </mxCell>
        <mxCell id="kmouRNJiQMqvB9NYq39l-26" value="번호판 수정 후 검색" style="whiteSpace=wrap;html=1;rounded=0;" parent="2b4e8129b02d487f-2" vertex="1">
          <mxGeometry x="5085" y="296" width="120" height="60" as="geometry" />
        </mxCell>
        <mxCell id="kmouRNJiQMqvB9NYq39l-27" value="progress bar&lt;br&gt;66% 증가" style="whiteSpace=wrap;html=1;rounded=0;" parent="2b4e8129b02d487f-2" vertex="1">
          <mxGeometry x="5085" y="385" width="120" height="60" as="geometry" />
        </mxCell>
        <mxCell id="kmouRNJiQMqvB9NYq39l-35" value="progress bar&lt;br&gt;33% 증가" style="whiteSpace=wrap;html=1;rounded=0;" parent="2b4e8129b02d487f-2" vertex="1">
          <mxGeometry x="3510" y="356" width="120" height="60" as="geometry" />
        </mxCell>
        <mxCell id="kmouRNJiQMqvB9NYq39l-38" value="progress bar&lt;br&gt;66% 증가" style="whiteSpace=wrap;html=1;rounded=0;" parent="2b4e8129b02d487f-2" vertex="1">
          <mxGeometry x="3810" y="356" width="120" height="60" as="geometry" />
        </mxCell>
        <mxCell id="kmouRNJiQMqvB9NYq39l-103" style="edgeStyle=orthogonalEdgeStyle;rounded=0;orthogonalLoop=1;jettySize=auto;html=1;exitX=0.5;exitY=0;exitDx=0;exitDy=0;entryX=0.5;entryY=1;entryDx=0;entryDy=0;" parent="2b4e8129b02d487f-2" source="kmouRNJiQMqvB9NYq39l-100" target="wPVQGBUB4z8hFI1XciTC-145" edge="1">
          <mxGeometry relative="1" as="geometry" />
        </mxCell>
        <mxCell id="kmouRNJiQMqvB9NYq39l-100" value="progress bar&lt;br&gt;100% 증가" style="whiteSpace=wrap;html=1;rounded=0;" parent="2b4e8129b02d487f-2" vertex="1">
          <mxGeometry x="4620" y="370" width="120" height="60" as="geometry" />
        </mxCell>
        <mxCell id="kmouRNJiQMqvB9NYq39l-115" style="edgeStyle=orthogonalEdgeStyle;rounded=0;orthogonalLoop=1;jettySize=auto;html=1;exitX=0.5;exitY=0;exitDx=0;exitDy=0;entryX=0.75;entryY=1;entryDx=0;entryDy=0;" parent="2b4e8129b02d487f-2" source="kmouRNJiQMqvB9NYq39l-101" target="wPVQGBUB4z8hFI1XciTC-145" edge="1">
          <mxGeometry relative="1" as="geometry">
            <Array as="points">
              <mxPoint x="4850" y="220" />
              <mxPoint x="4564" y="220" />
            </Array>
          </mxGeometry>
        </mxCell>
        <mxCell id="kmouRNJiQMqvB9NYq39l-101" value="progress bar&lt;br&gt;0%로 초기화" style="whiteSpace=wrap;html=1;rounded=0;" parent="2b4e8129b02d487f-2" vertex="1">
          <mxGeometry x="4790" y="370" width="120" height="60" as="geometry" />
        </mxCell>
        <mxCell id="kmouRNJiQMqvB9NYq39l-130" value="" style="edgeStyle=orthogonalEdgeStyle;rounded=0;orthogonalLoop=1;jettySize=auto;html=1;" parent="2b4e8129b02d487f-2" source="kmouRNJiQMqvB9NYq39l-127" target="kmouRNJiQMqvB9NYq39l-129" edge="1">
          <mxGeometry relative="1" as="geometry" />
        </mxCell>
        <mxCell id="kmouRNJiQMqvB9NYq39l-127" value="상세 보기&lt;br&gt;버튼" style="rhombus;whiteSpace=wrap;html=1;rounded=0;" parent="2b4e8129b02d487f-2" vertex="1">
          <mxGeometry x="4640" y="100" width="80" height="80" as="geometry" />
        </mxCell>
        <mxCell id="kmouRNJiQMqvB9NYq39l-136" value="" style="edgeStyle=orthogonalEdgeStyle;rounded=0;orthogonalLoop=1;jettySize=auto;html=1;" parent="2b4e8129b02d487f-2" source="kmouRNJiQMqvB9NYq39l-129" target="kmouRNJiQMqvB9NYq39l-135" edge="1">
          <mxGeometry relative="1" as="geometry" />
        </mxCell>
        <mxCell id="kmouRNJiQMqvB9NYq39l-129" value="차량 상세 정보 출력" style="whiteSpace=wrap;html=1;rounded=0;" parent="2b4e8129b02d487f-2" vertex="1">
          <mxGeometry x="4620" y="10" width="120" height="60" as="geometry" />
        </mxCell>
        <mxCell id="kmouRNJiQMqvB9NYq39l-137" style="edgeStyle=orthogonalEdgeStyle;rounded=0;orthogonalLoop=1;jettySize=auto;html=1;entryX=1;entryY=0;entryDx=0;entryDy=0;" parent="2b4e8129b02d487f-2" source="kmouRNJiQMqvB9NYq39l-135" target="wPVQGBUB4z8hFI1XciTC-151" edge="1">
          <mxGeometry relative="1" as="geometry" />
        </mxCell>
        <mxCell id="kmouRNJiQMqvB9NYq39l-140" value="" style="edgeStyle=orthogonalEdgeStyle;rounded=0;orthogonalLoop=1;jettySize=auto;html=1;" parent="2b4e8129b02d487f-2" source="kmouRNJiQMqvB9NYq39l-135" target="kmouRNJiQMqvB9NYq39l-139" edge="1">
          <mxGeometry relative="1" as="geometry" />
        </mxCell>
        <mxCell id="kmouRNJiQMqvB9NYq39l-135" value="상세 보기 글자를&lt;br&gt;접기 버튼으로 변경" style="whiteSpace=wrap;html=1;rounded=0;" parent="2b4e8129b02d487f-2" vertex="1">
          <mxGeometry x="4820" y="10" width="120" height="60" as="geometry" />
        </mxCell>
        <mxCell id="kmouRNJiQMqvB9NYq39l-141" style="edgeStyle=orthogonalEdgeStyle;rounded=0;orthogonalLoop=1;jettySize=auto;html=1;entryX=1;entryY=1;entryDx=0;entryDy=0;" parent="2b4e8129b02d487f-2" source="kmouRNJiQMqvB9NYq39l-139" target="wPVQGBUB4z8hFI1XciTC-145" edge="1">
          <mxGeometry relative="1" as="geometry">
            <Array as="points">
              <mxPoint x="5010" y="90" />
              <mxPoint x="4910" y="90" />
              <mxPoint x="4910" y="190" />
              <mxPoint x="4594" y="190" />
            </Array>
          </mxGeometry>
        </mxCell>
        <mxCell id="kmouRNJiQMqvB9NYq39l-139" value="접기 버튼&lt;br&gt;클릭" style="rhombus;whiteSpace=wrap;html=1;rounded=0;" parent="2b4e8129b02d487f-2" vertex="1">
          <mxGeometry x="4970" width="80" height="80" as="geometry" />
        </mxCell>
        <mxCell id="kmouRNJiQMqvB9NYq39l-143" value="누름" style="text;html=1;strokeColor=none;fillColor=none;align=center;verticalAlign=middle;whiteSpace=wrap;rounded=0;" parent="2b4e8129b02d487f-2" vertex="1">
          <mxGeometry x="4630" y="80" width="60" height="30" as="geometry" />
        </mxCell>
        <mxCell id="kmouRNJiQMqvB9NYq39l-144" value="누름" style="text;html=1;strokeColor=none;fillColor=none;align=center;verticalAlign=middle;whiteSpace=wrap;rounded=0;" parent="2b4e8129b02d487f-2" vertex="1">
          <mxGeometry x="4954" y="64" width="60" height="30" as="geometry" />
        </mxCell>
        <mxCell id="kmouRNJiQMqvB9NYq39l-148" style="edgeStyle=orthogonalEdgeStyle;rounded=0;orthogonalLoop=1;jettySize=auto;html=1;exitX=0;exitY=0.5;exitDx=0;exitDy=0;entryX=1;entryY=0.5;entryDx=0;entryDy=0;" parent="2b4e8129b02d487f-2" source="kmouRNJiQMqvB9NYq39l-145" target="kmouRNJiQMqvB9NYq39l-147" edge="1">
          <mxGeometry relative="1" as="geometry" />
        </mxCell>
        <mxCell id="kmouRNJiQMqvB9NYq39l-152" style="edgeStyle=orthogonalEdgeStyle;rounded=0;orthogonalLoop=1;jettySize=auto;html=1;exitX=0.5;exitY=1;exitDx=0;exitDy=0;entryX=0.5;entryY=0;entryDx=0;entryDy=0;" parent="2b4e8129b02d487f-2" source="kmouRNJiQMqvB9NYq39l-145" target="kmouRNJiQMqvB9NYq39l-26" edge="1">
          <mxGeometry relative="1" as="geometry" />
        </mxCell>
        <mxCell id="kmouRNJiQMqvB9NYq39l-145" value="팝업 닫기" style="rhombus;whiteSpace=wrap;html=1;rounded=0;" parent="2b4e8129b02d487f-2" vertex="1">
          <mxGeometry x="5105" y="204" width="80" height="80" as="geometry" />
        </mxCell>
        <mxCell id="kmouRNJiQMqvB9NYq39l-149" style="edgeStyle=orthogonalEdgeStyle;rounded=0;orthogonalLoop=1;jettySize=auto;html=1;exitX=0;exitY=0.5;exitDx=0;exitDy=0;entryX=0;entryY=1;entryDx=0;entryDy=0;" parent="2b4e8129b02d487f-2" source="kmouRNJiQMqvB9NYq39l-147" target="wPVQGBUB4z8hFI1XciTC-145" edge="1">
          <mxGeometry relative="1" as="geometry" />
        </mxCell>
        <mxCell id="kmouRNJiQMqvB9NYq39l-147" value="progress bar&lt;br&gt;0%로 초기화" style="whiteSpace=wrap;html=1;rounded=0;" parent="2b4e8129b02d487f-2" vertex="1">
          <mxGeometry x="4930" y="214" width="120" height="60" as="geometry" />
        </mxCell>
        <mxCell id="kmouRNJiQMqvB9NYq39l-151" value="누름" style="text;html=1;strokeColor=none;fillColor=none;align=center;verticalAlign=middle;whiteSpace=wrap;rounded=0;" parent="2b4e8129b02d487f-2" vertex="1">
          <mxGeometry x="5060" y="220.5" width="60" height="30" as="geometry" />
        </mxCell>
        <mxCell id="kmouRNJiQMqvB9NYq39l-153" value="안누름" style="text;html=1;strokeColor=none;fillColor=none;align=center;verticalAlign=middle;whiteSpace=wrap;rounded=0;" parent="2b4e8129b02d487f-2" vertex="1">
          <mxGeometry x="5140" y="271" width="60" height="30" as="geometry" />
        </mxCell>
        <mxCell id="kmouRNJiQMqvB9NYq39l-157" value="" style="edgeStyle=orthogonalEdgeStyle;rounded=0;orthogonalLoop=1;jettySize=auto;html=1;" parent="2b4e8129b02d487f-2" target="wPVQGBUB4z8hFI1XciTC-87" edge="1">
          <mxGeometry relative="1" as="geometry">
            <mxPoint x="3290" y="139.99999999999994" as="sourcePoint" />
          </mxGeometry>
        </mxCell>
        <mxCell id="kmouRNJiQMqvB9NYq39l-161" value="" style="edgeStyle=orthogonalEdgeStyle;rounded=0;orthogonalLoop=1;jettySize=auto;html=1;entryX=1;entryY=0.5;entryDx=0;entryDy=0;" parent="2b4e8129b02d487f-2" source="kmouRNJiQMqvB9NYq39l-158" target="kmouRNJiQMqvB9NYq39l-160" edge="1">
          <mxGeometry relative="1" as="geometry">
            <Array as="points">
              <mxPoint x="3250" y="80" />
            </Array>
          </mxGeometry>
        </mxCell>
        <mxCell id="kmouRNJiQMqvB9NYq39l-158" value="권한&lt;br&gt;없는 유저&lt;br&gt;접근" style="rhombus;whiteSpace=wrap;html=1;rounded=0;" parent="2b4e8129b02d487f-2" vertex="1">
          <mxGeometry x="3210" y="100" width="80" height="80" as="geometry" />
        </mxCell>
        <mxCell id="kmouRNJiQMqvB9NYq39l-163" style="edgeStyle=orthogonalEdgeStyle;rounded=0;orthogonalLoop=1;jettySize=auto;html=1;exitX=0.5;exitY=1;exitDx=0;exitDy=0;entryX=0.5;entryY=0;entryDx=0;entryDy=0;" parent="2b4e8129b02d487f-2" source="kmouRNJiQMqvB9NYq39l-160" target="wPVQGBUB4z8hFI1XciTC-69" edge="1">
          <mxGeometry relative="1" as="geometry" />
        </mxCell>
        <mxCell id="kmouRNJiQMqvB9NYq39l-160" value="권한 없음 메시지&lt;br&gt;출력" style="whiteSpace=wrap;html=1;rounded=0;" parent="2b4e8129b02d487f-2" vertex="1">
          <mxGeometry x="2670" y="50" width="120" height="60" as="geometry" />
        </mxCell>
        <mxCell id="kmouRNJiQMqvB9NYq39l-162" value="No" style="text;html=1;strokeColor=none;fillColor=none;align=center;verticalAlign=middle;whiteSpace=wrap;rounded=0;" parent="2b4e8129b02d487f-2" vertex="1">
          <mxGeometry x="3280" y="118" width="30" height="30" as="geometry" />
        </mxCell>
        <mxCell id="kmouRNJiQMqvB9NYq39l-164" value="Yes" style="text;html=1;strokeColor=none;fillColor=none;align=center;verticalAlign=middle;whiteSpace=wrap;rounded=0;" parent="2b4e8129b02d487f-2" vertex="1">
          <mxGeometry x="3250" y="70" width="30" height="30" as="geometry" />
        </mxCell>
        <mxCell id="kmouRNJiQMqvB9NYq39l-168" value="" style="edgeStyle=orthogonalEdgeStyle;rounded=0;orthogonalLoop=1;jettySize=auto;html=1;" parent="2b4e8129b02d487f-2" source="kmouRNJiQMqvB9NYq39l-165" target="kmouRNJiQMqvB9NYq39l-167" edge="1">
          <mxGeometry relative="1" as="geometry" />
        </mxCell>
        <mxCell id="kmouRNJiQMqvB9NYq39l-170" value="" style="edgeStyle=orthogonalEdgeStyle;rounded=0;orthogonalLoop=1;jettySize=auto;html=1;" parent="2b4e8129b02d487f-2" source="kmouRNJiQMqvB9NYq39l-165" target="kmouRNJiQMqvB9NYq39l-169" edge="1">
          <mxGeometry relative="1" as="geometry" />
        </mxCell>
        <mxCell id="kmouRNJiQMqvB9NYq39l-165" value="SQL문법이&lt;br style=&quot;border-color: var(--border-color);&quot;&gt;있는 경우" style="rhombus;whiteSpace=wrap;html=1;" parent="2b4e8129b02d487f-2" vertex="1">
          <mxGeometry x="918" y="142" width="80" height="80" as="geometry" />
        </mxCell>
        <mxCell id="kmouRNJiQMqvB9NYq39l-173" value="" style="edgeStyle=orthogonalEdgeStyle;rounded=0;orthogonalLoop=1;jettySize=auto;html=1;" parent="2b4e8129b02d487f-2" source="kmouRNJiQMqvB9NYq39l-167" target="kmouRNJiQMqvB9NYq39l-172" edge="1">
          <mxGeometry relative="1" as="geometry" />
        </mxCell>
        <mxCell id="kmouRNJiQMqvB9NYq39l-187" value="" style="edgeStyle=orthogonalEdgeStyle;rounded=0;orthogonalLoop=1;jettySize=auto;html=1;" parent="2b4e8129b02d487f-2" source="kmouRNJiQMqvB9NYq39l-167" target="wPVQGBUB4z8hFI1XciTC-42" edge="1">
          <mxGeometry relative="1" as="geometry" />
        </mxCell>
        <mxCell id="kmouRNJiQMqvB9NYq39l-167" value="&lt;div&gt;동/호수에&lt;/div&gt;&lt;div&gt;숫자 이외가&lt;/div&gt;&lt;div&gt;있는 경우&lt;/div&gt;" style="rhombus;whiteSpace=wrap;html=1;" parent="2b4e8129b02d487f-2" vertex="1">
          <mxGeometry x="1078" y="142" width="80" height="80" as="geometry" />
        </mxCell>
        <mxCell id="kmouRNJiQMqvB9NYq39l-171" style="edgeStyle=orthogonalEdgeStyle;rounded=0;orthogonalLoop=1;jettySize=auto;html=1;entryX=0.5;entryY=0;entryDx=0;entryDy=0;" parent="2b4e8129b02d487f-2" source="kmouRNJiQMqvB9NYq39l-169" target="VpIsl_ptoI0kqu_PUw9b-53" edge="1">
          <mxGeometry relative="1" as="geometry" />
        </mxCell>
        <mxCell id="kmouRNJiQMqvB9NYq39l-169" value="SQL Injection 감지&lt;br style=&quot;border-color: var(--border-color);&quot;&gt;알림" style="whiteSpace=wrap;html=1;" parent="2b4e8129b02d487f-2" vertex="1">
          <mxGeometry x="898" y="71" width="120" height="60" as="geometry" />
        </mxCell>
        <mxCell id="kmouRNJiQMqvB9NYq39l-174" style="edgeStyle=orthogonalEdgeStyle;rounded=0;orthogonalLoop=1;jettySize=auto;html=1;exitX=0.5;exitY=0;exitDx=0;exitDy=0;entryX=0.75;entryY=0;entryDx=0;entryDy=0;" parent="2b4e8129b02d487f-2" source="kmouRNJiQMqvB9NYq39l-172" target="VpIsl_ptoI0kqu_PUw9b-53" edge="1">
          <mxGeometry relative="1" as="geometry">
            <Array as="points">
              <mxPoint x="1118" y="10" />
              <mxPoint x="670" y="10" />
            </Array>
          </mxGeometry>
        </mxCell>
        <mxCell id="kmouRNJiQMqvB9NYq39l-172" value="&lt;div&gt;숫자만 입력해 달라고&lt;/div&gt;&lt;div&gt;알림 및 글자 제거&lt;/div&gt;" style="whiteSpace=wrap;html=1;" parent="2b4e8129b02d487f-2" vertex="1">
          <mxGeometry x="1058" y="71" width="120" height="60" as="geometry" />
        </mxCell>
        <mxCell id="kmouRNJiQMqvB9NYq39l-175" value="No" style="text;html=1;strokeColor=none;fillColor=none;align=center;verticalAlign=middle;whiteSpace=wrap;rounded=0;" parent="2b4e8129b02d487f-2" vertex="1">
          <mxGeometry x="978" y="159" width="60" height="30" as="geometry" />
        </mxCell>
        <mxCell id="kmouRNJiQMqvB9NYq39l-176" value="Yes" style="text;html=1;strokeColor=none;fillColor=none;align=center;verticalAlign=middle;whiteSpace=wrap;rounded=0;" parent="2b4e8129b02d487f-2" vertex="1">
          <mxGeometry x="948" y="125" width="60" height="30" as="geometry" />
        </mxCell>
        <mxCell id="kmouRNJiQMqvB9NYq39l-177" value="Yes" style="text;html=1;strokeColor=none;fillColor=none;align=center;verticalAlign=middle;whiteSpace=wrap;rounded=0;" parent="2b4e8129b02d487f-2" vertex="1">
          <mxGeometry x="1108" y="125" width="60" height="30" as="geometry" />
        </mxCell>
        <mxCell id="kmouRNJiQMqvB9NYq39l-183" value="" style="edgeStyle=orthogonalEdgeStyle;rounded=0;orthogonalLoop=1;jettySize=auto;html=1;" parent="2b4e8129b02d487f-2" source="kmouRNJiQMqvB9NYq39l-180" target="kmouRNJiQMqvB9NYq39l-182" edge="1">
          <mxGeometry relative="1" as="geometry" />
        </mxCell>
        <mxCell id="kmouRNJiQMqvB9NYq39l-184" style="edgeStyle=orthogonalEdgeStyle;rounded=0;orthogonalLoop=1;jettySize=auto;html=1;exitX=1;exitY=0.5;exitDx=0;exitDy=0;entryX=0;entryY=0.5;entryDx=0;entryDy=0;" parent="2b4e8129b02d487f-2" source="kmouRNJiQMqvB9NYq39l-180" target="kmouRNJiQMqvB9NYq39l-165" edge="1">
          <mxGeometry relative="1" as="geometry" />
        </mxCell>
        <mxCell id="kmouRNJiQMqvB9NYq39l-180" value="동/호/비번 중&lt;br&gt;누락된 경우" style="rhombus;whiteSpace=wrap;html=1;" parent="2b4e8129b02d487f-2" vertex="1">
          <mxGeometry x="750" y="160" width="90" height="94" as="geometry" />
        </mxCell>
        <mxCell id="kmouRNJiQMqvB9NYq39l-192" style="edgeStyle=orthogonalEdgeStyle;rounded=0;orthogonalLoop=1;jettySize=auto;html=1;exitX=0;exitY=0.5;exitDx=0;exitDy=0;entryX=1;entryY=0.25;entryDx=0;entryDy=0;" parent="2b4e8129b02d487f-2" source="kmouRNJiQMqvB9NYq39l-182" target="VpIsl_ptoI0kqu_PUw9b-53" edge="1">
          <mxGeometry relative="1" as="geometry">
            <Array as="points">
              <mxPoint x="720" y="71" />
              <mxPoint x="720" y="146" />
            </Array>
          </mxGeometry>
        </mxCell>
        <mxCell id="kmouRNJiQMqvB9NYq39l-182" value="모든 칸을 입력해&lt;br&gt;달라고 알림" style="whiteSpace=wrap;html=1;" parent="2b4e8129b02d487f-2" vertex="1">
          <mxGeometry x="735" y="52" width="120" height="37" as="geometry" />
        </mxCell>
        <mxCell id="kmouRNJiQMqvB9NYq39l-185" value="No" style="text;html=1;strokeColor=none;fillColor=none;align=center;verticalAlign=middle;whiteSpace=wrap;rounded=0;" parent="2b4e8129b02d487f-2" vertex="1">
          <mxGeometry x="830" y="181" width="60" height="30" as="geometry" />
        </mxCell>
        <mxCell id="kmouRNJiQMqvB9NYq39l-186" value="Yes" style="text;html=1;strokeColor=none;fillColor=none;align=center;verticalAlign=middle;whiteSpace=wrap;rounded=0;" parent="2b4e8129b02d487f-2" vertex="1">
          <mxGeometry x="780" y="100" width="60" height="30" as="geometry" />
        </mxCell>
        <mxCell id="2b4e8129b02d487f-3" value="Front-end" style="swimlane;html=1;startSize=20;horizontal=0;" parent="2b4e8129b02d487f-1" vertex="1">
          <mxGeometry y="576" width="5800" height="963" as="geometry" />
        </mxCell>
        <mxCell id="VpIsl_ptoI0kqu_PUw9b-64" value="개인 정보 입력 페이지&lt;br&gt;이동" style="whiteSpace=wrap;html=1;" parent="2b4e8129b02d487f-3" vertex="1">
          <mxGeometry x="1053" y="39" width="120" height="60" as="geometry" />
        </mxCell>
        <mxCell id="VpIsl_ptoI0kqu_PUw9b-74" value="" style="edgeStyle=orthogonalEdgeStyle;rounded=0;orthogonalLoop=1;jettySize=auto;html=1;" parent="2b4e8129b02d487f-3" source="VpIsl_ptoI0kqu_PUw9b-62" target="VpIsl_ptoI0kqu_PUw9b-73" edge="1">
          <mxGeometry relative="1" as="geometry" />
        </mxCell>
        <mxCell id="VpIsl_ptoI0kqu_PUw9b-62" value="필수 약관&lt;br&gt;모두 동의?" style="rhombus;whiteSpace=wrap;html=1;" parent="2b4e8129b02d487f-3" vertex="1">
          <mxGeometry x="893" y="29" width="80" height="80" as="geometry" />
        </mxCell>
        <mxCell id="VpIsl_ptoI0kqu_PUw9b-65" value="" style="edgeStyle=orthogonalEdgeStyle;rounded=0;orthogonalLoop=1;jettySize=auto;html=1;" parent="2b4e8129b02d487f-3" source="VpIsl_ptoI0kqu_PUw9b-62" target="VpIsl_ptoI0kqu_PUw9b-64" edge="1">
          <mxGeometry relative="1" as="geometry" />
        </mxCell>
        <mxCell id="VpIsl_ptoI0kqu_PUw9b-73" value="&#39;필수 약관에 모두&lt;br&gt;동의해 주세요&#39; 알림" style="whiteSpace=wrap;html=1;" parent="2b4e8129b02d487f-3" vertex="1">
          <mxGeometry x="713" y="39" width="120" height="60" as="geometry" />
        </mxCell>
        <mxCell id="VpIsl_ptoI0kqu_PUw9b-76" value="No" style="text;html=1;strokeColor=none;fillColor=none;align=center;verticalAlign=middle;whiteSpace=wrap;rounded=0;" parent="2b4e8129b02d487f-3" vertex="1">
          <mxGeometry x="840" y="39" width="60" height="30" as="geometry" />
        </mxCell>
        <mxCell id="VpIsl_ptoI0kqu_PUw9b-77" value="Yes" style="text;html=1;strokeColor=none;fillColor=none;align=center;verticalAlign=middle;whiteSpace=wrap;rounded=0;" parent="2b4e8129b02d487f-3" vertex="1">
          <mxGeometry x="973" y="39" width="60" height="30" as="geometry" />
        </mxCell>
        <mxCell id="18PfIUPdo-HqKEG1NgYA-9" style="edgeStyle=orthogonalEdgeStyle;rounded=0;orthogonalLoop=1;jettySize=auto;html=1;entryX=0.5;entryY=0;entryDx=0;entryDy=0;" parent="2b4e8129b02d487f-3" source="VpIsl_ptoI0kqu_PUw9b-86" target="18PfIUPdo-HqKEG1NgYA-5" edge="1">
          <mxGeometry relative="1" as="geometry" />
        </mxCell>
        <mxCell id="VpIsl_ptoI0kqu_PUw9b-86" value="모든 항목&lt;br&gt;입력" style="rhombus;whiteSpace=wrap;html=1;" parent="2b4e8129b02d487f-3" vertex="1">
          <mxGeometry x="1640" y="39" width="80" height="80" as="geometry" />
        </mxCell>
        <mxCell id="VpIsl_ptoI0kqu_PUw9b-87" value="" style="edgeStyle=orthogonalEdgeStyle;rounded=0;orthogonalLoop=1;jettySize=auto;html=1;" parent="2b4e8129b02d487f-3" source="VpIsl_ptoI0kqu_PUw9b-86" edge="1">
          <mxGeometry relative="1" as="geometry">
            <mxPoint x="1800" y="79" as="targetPoint" />
          </mxGeometry>
        </mxCell>
        <mxCell id="VpIsl_ptoI0kqu_PUw9b-88" value="입력하지 않은 항목명&lt;br&gt;설명 및 입력 요구" style="whiteSpace=wrap;html=1;" parent="2b4e8129b02d487f-3" vertex="1">
          <mxGeometry x="1382" y="49" width="120" height="60" as="geometry" />
        </mxCell>
        <mxCell id="VpIsl_ptoI0kqu_PUw9b-89" value="No" style="text;html=1;strokeColor=none;fillColor=none;align=center;verticalAlign=middle;whiteSpace=wrap;rounded=0;" parent="2b4e8129b02d487f-3" vertex="1">
          <mxGeometry x="1600" y="54" width="60" height="30" as="geometry" />
        </mxCell>
        <mxCell id="VpIsl_ptoI0kqu_PUw9b-90" value="Yes" style="text;html=1;strokeColor=none;fillColor=none;align=center;verticalAlign=middle;whiteSpace=wrap;rounded=0;" parent="2b4e8129b02d487f-3" vertex="1">
          <mxGeometry x="1700" y="54" width="60" height="30" as="geometry" />
        </mxCell>
        <mxCell id="wPVQGBUB4z8hFI1XciTC-196" value="" style="edgeStyle=orthogonalEdgeStyle;rounded=0;orthogonalLoop=1;jettySize=auto;html=1;" parent="2b4e8129b02d487f-3" source="VpIsl_ptoI0kqu_PUw9b-93" target="wPVQGBUB4z8hFI1XciTC-195" edge="1">
          <mxGeometry relative="1" as="geometry" />
        </mxCell>
        <mxCell id="kmouRNJiQMqvB9NYq39l-11" style="edgeStyle=orthogonalEdgeStyle;rounded=0;orthogonalLoop=1;jettySize=auto;html=1;exitX=0.5;exitY=1;exitDx=0;exitDy=0;entryX=1;entryY=0.25;entryDx=0;entryDy=0;" parent="2b4e8129b02d487f-3" source="VpIsl_ptoI0kqu_PUw9b-93" target="VpIsl_ptoI0kqu_PUw9b-97" edge="1">
          <mxGeometry relative="1" as="geometry" />
        </mxCell>
        <mxCell id="VpIsl_ptoI0kqu_PUw9b-93" value="비밀번호&lt;br&gt;조건 확인" style="rhombus;whiteSpace=wrap;html=1;" parent="2b4e8129b02d487f-3" vertex="1">
          <mxGeometry x="1741" y="39" width="80" height="80" as="geometry" />
        </mxCell>
        <mxCell id="VpIsl_ptoI0kqu_PUw9b-96" value="만족" style="text;html=1;strokeColor=none;fillColor=none;align=center;verticalAlign=middle;whiteSpace=wrap;rounded=0;" parent="2b4e8129b02d487f-3" vertex="1">
          <mxGeometry x="1800" y="54" width="60" height="30" as="geometry" />
        </mxCell>
        <mxCell id="VpIsl_ptoI0kqu_PUw9b-97" value="비밀번호 조건에 맞게&lt;br&gt;재입력 요구" style="whiteSpace=wrap;html=1;" parent="2b4e8129b02d487f-3" vertex="1">
          <mxGeometry x="1620" y="189" width="120" height="60" as="geometry" />
        </mxCell>
        <mxCell id="VpIsl_ptoI0kqu_PUw9b-101" value="불만족" style="text;html=1;strokeColor=none;fillColor=none;align=center;verticalAlign=middle;whiteSpace=wrap;rounded=0;" parent="2b4e8129b02d487f-3" vertex="1">
          <mxGeometry x="1770" y="114" width="60" height="30" as="geometry" />
        </mxCell>
        <mxCell id="VpIsl_ptoI0kqu_PUw9b-103" value="중복된 계정이 있다고&lt;br&gt;알림" style="whiteSpace=wrap;html=1;" parent="2b4e8129b02d487f-3" vertex="1">
          <mxGeometry x="1620" y="269" width="120" height="60" as="geometry" />
        </mxCell>
        <mxCell id="VpIsl_ptoI0kqu_PUw9b-115" style="edgeStyle=orthogonalEdgeStyle;rounded=0;orthogonalLoop=1;jettySize=auto;html=1;exitX=0.5;exitY=1;exitDx=0;exitDy=0;entryX=0.5;entryY=0;entryDx=0;entryDy=0;" parent="2b4e8129b02d487f-3" source="VpIsl_ptoI0kqu_PUw9b-107" target="VpIsl_ptoI0kqu_PUw9b-111" edge="1">
          <mxGeometry relative="1" as="geometry" />
        </mxCell>
        <mxCell id="VpIsl_ptoI0kqu_PUw9b-107" value="값을 json으로 담음" style="whiteSpace=wrap;html=1;" parent="2b4e8129b02d487f-3" vertex="1">
          <mxGeometry x="1940" y="49" width="120" height="60" as="geometry" />
        </mxCell>
        <mxCell id="VpIsl_ptoI0kqu_PUw9b-111" value="계정 정보" style="swimlane;fontStyle=0;childLayout=stackLayout;horizontal=1;startSize=26;horizontalStack=0;resizeParent=1;resizeParentMax=0;resizeLast=0;collapsible=1;marginBottom=0;align=center;fontSize=14;" parent="2b4e8129b02d487f-3" vertex="1">
          <mxGeometry x="2060" y="209" width="160" height="236" as="geometry" />
        </mxCell>
        <mxCell id="VpIsl_ptoI0kqu_PUw9b-112" value="동호수" style="text;strokeColor=none;fillColor=none;spacingLeft=4;spacingRight=4;overflow=hidden;rotatable=0;points=[[0,0.5],[1,0.5]];portConstraint=eastwest;fontSize=12;whiteSpace=wrap;html=1;" parent="VpIsl_ptoI0kqu_PUw9b-111" vertex="1">
          <mxGeometry y="26" width="160" height="30" as="geometry" />
        </mxCell>
        <mxCell id="VpIsl_ptoI0kqu_PUw9b-113" value="세대주 이름" style="text;strokeColor=none;fillColor=none;spacingLeft=4;spacingRight=4;overflow=hidden;rotatable=0;points=[[0,0.5],[1,0.5]];portConstraint=eastwest;fontSize=12;whiteSpace=wrap;html=1;" parent="VpIsl_ptoI0kqu_PUw9b-111" vertex="1">
          <mxGeometry y="56" width="160" height="30" as="geometry" />
        </mxCell>
        <mxCell id="VpIsl_ptoI0kqu_PUw9b-114" value="메인 전화번호" style="text;strokeColor=none;fillColor=none;spacingLeft=4;spacingRight=4;overflow=hidden;rotatable=0;points=[[0,0.5],[1,0.5]];portConstraint=eastwest;fontSize=12;whiteSpace=wrap;html=1;" parent="VpIsl_ptoI0kqu_PUw9b-111" vertex="1">
          <mxGeometry y="86" width="160" height="30" as="geometry" />
        </mxCell>
        <mxCell id="VpIsl_ptoI0kqu_PUw9b-123" value="보조 전화번호(선택)" style="text;strokeColor=none;fillColor=none;spacingLeft=4;spacingRight=4;overflow=hidden;rotatable=0;points=[[0,0.5],[1,0.5]];portConstraint=eastwest;fontSize=12;whiteSpace=wrap;html=1;" parent="VpIsl_ptoI0kqu_PUw9b-111" vertex="1">
          <mxGeometry y="116" width="160" height="30" as="geometry" />
        </mxCell>
        <mxCell id="VpIsl_ptoI0kqu_PUw9b-124" value="비밀번호" style="text;strokeColor=none;fillColor=none;spacingLeft=4;spacingRight=4;overflow=hidden;rotatable=0;points=[[0,0.5],[1,0.5]];portConstraint=eastwest;fontSize=12;whiteSpace=wrap;html=1;" parent="VpIsl_ptoI0kqu_PUw9b-111" vertex="1">
          <mxGeometry y="146" width="160" height="30" as="geometry" />
        </mxCell>
        <mxCell id="kmouRNJiQMqvB9NYq39l-1" value="비밀번호" style="text;strokeColor=none;fillColor=none;spacingLeft=4;spacingRight=4;overflow=hidden;rotatable=0;points=[[0,0.5],[1,0.5]];portConstraint=eastwest;fontSize=12;whiteSpace=wrap;html=1;" parent="VpIsl_ptoI0kqu_PUw9b-111" vertex="1">
          <mxGeometry y="176" width="160" height="30" as="geometry" />
        </mxCell>
        <mxCell id="kmouRNJiQMqvB9NYq39l-2" value="비밀번호 확인" style="text;strokeColor=none;fillColor=none;spacingLeft=4;spacingRight=4;overflow=hidden;rotatable=0;points=[[0,0.5],[1,0.5]];portConstraint=eastwest;fontSize=12;whiteSpace=wrap;html=1;" parent="VpIsl_ptoI0kqu_PUw9b-111" vertex="1">
          <mxGeometry y="206" width="160" height="30" as="geometry" />
        </mxCell>
        <mxCell id="wPVQGBUB4z8hFI1XciTC-33" value="가입 완료 메시지 출력" style="whiteSpace=wrap;html=1;rounded=0;" parent="2b4e8129b02d487f-3" vertex="1">
          <mxGeometry x="2280" y="285" width="120" height="60" as="geometry" />
        </mxCell>
        <mxCell id="wPVQGBUB4z8hFI1XciTC-46" value="백엔드로&lt;br&gt;로그인 정보 전송" style="whiteSpace=wrap;html=1;" parent="2b4e8129b02d487f-3" vertex="1">
          <mxGeometry x="460" y="349" width="120" height="60" as="geometry" />
        </mxCell>
        <mxCell id="wPVQGBUB4z8hFI1XciTC-72" value="로그인 정보 불일치&lt;br&gt;안내" style="whiteSpace=wrap;html=1;rounded=0;" parent="2b4e8129b02d487f-3" vertex="1">
          <mxGeometry x="2410" y="285" width="120" height="60" as="geometry" />
        </mxCell>
        <mxCell id="wPVQGBUB4z8hFI1XciTC-95" value="이미지 서버에&lt;br&gt;차량 번호판 이미지&lt;br&gt;업로드" style="whiteSpace=wrap;html=1;rounded=0;" parent="2b4e8129b02d487f-3" vertex="1">
          <mxGeometry x="3510" y="199" width="120" height="60" as="geometry" />
        </mxCell>
        <mxCell id="wPVQGBUB4z8hFI1XciTC-138" value="미등록 차량 알림" style="whiteSpace=wrap;html=1;" parent="2b4e8129b02d487f-3" vertex="1">
          <mxGeometry x="4374" y="199" width="120" height="60" as="geometry" />
        </mxCell>
        <mxCell id="kmouRNJiQMqvB9NYq39l-119" value="" style="edgeStyle=orthogonalEdgeStyle;rounded=0;orthogonalLoop=1;jettySize=auto;html=1;" parent="2b4e8129b02d487f-3" source="wPVQGBUB4z8hFI1XciTC-140" target="kmouRNJiQMqvB9NYq39l-116" edge="1">
          <mxGeometry relative="1" as="geometry" />
        </mxCell>
        <mxCell id="wPVQGBUB4z8hFI1XciTC-140" value="차량 정보 json 파싱" style="whiteSpace=wrap;html=1;" parent="2b4e8129b02d487f-3" vertex="1">
          <mxGeometry x="4621" y="863" width="120" height="60" as="geometry" />
        </mxCell>
        <mxCell id="wPVQGBUB4z8hFI1XciTC-161" value="백엔드로 수정된&lt;br&gt;번호판값 전송" style="whiteSpace=wrap;html=1;rounded=0;" parent="2b4e8129b02d487f-3" vertex="1">
          <mxGeometry x="5085" y="39" width="120" height="60" as="geometry" />
        </mxCell>
        <mxCell id="wPVQGBUB4z8hFI1XciTC-197" value="" style="edgeStyle=orthogonalEdgeStyle;rounded=0;orthogonalLoop=1;jettySize=auto;html=1;" parent="2b4e8129b02d487f-3" source="wPVQGBUB4z8hFI1XciTC-195" target="VpIsl_ptoI0kqu_PUw9b-107" edge="1">
          <mxGeometry relative="1" as="geometry" />
        </mxCell>
        <mxCell id="wPVQGBUB4z8hFI1XciTC-200" value="" style="edgeStyle=orthogonalEdgeStyle;rounded=0;orthogonalLoop=1;jettySize=auto;html=1;" parent="2b4e8129b02d487f-3" source="wPVQGBUB4z8hFI1XciTC-195" target="wPVQGBUB4z8hFI1XciTC-199" edge="1">
          <mxGeometry relative="1" as="geometry" />
        </mxCell>
        <mxCell id="wPVQGBUB4z8hFI1XciTC-195" value="두 비밀번호&lt;br&gt;일치 여부" style="rhombus;whiteSpace=wrap;html=1;" parent="2b4e8129b02d487f-3" vertex="1">
          <mxGeometry x="1840" y="39" width="80" height="80" as="geometry" />
        </mxCell>
        <mxCell id="wPVQGBUB4z8hFI1XciTC-198" value="일치" style="text;html=1;strokeColor=none;fillColor=none;align=center;verticalAlign=middle;whiteSpace=wrap;rounded=0;" parent="2b4e8129b02d487f-3" vertex="1">
          <mxGeometry x="1898" y="54" width="60" height="30" as="geometry" />
        </mxCell>
        <mxCell id="wPVQGBUB4z8hFI1XciTC-199" value="두 비밀번호가&lt;br&gt;일치하지 않는다고&lt;br&gt;알림" style="whiteSpace=wrap;html=1;" parent="2b4e8129b02d487f-3" vertex="1">
          <mxGeometry x="1790" y="209" width="120" height="60" as="geometry" />
        </mxCell>
        <mxCell id="18PfIUPdo-HqKEG1NgYA-6" style="edgeStyle=orthogonalEdgeStyle;rounded=0;orthogonalLoop=1;jettySize=auto;html=1;exitX=0;exitY=0.5;exitDx=0;exitDy=0;entryX=1;entryY=0.5;entryDx=0;entryDy=0;" parent="2b4e8129b02d487f-3" source="18PfIUPdo-HqKEG1NgYA-5" target="VpIsl_ptoI0kqu_PUw9b-88" edge="1">
          <mxGeometry relative="1" as="geometry" />
        </mxCell>
        <mxCell id="18PfIUPdo-HqKEG1NgYA-12" style="edgeStyle=orthogonalEdgeStyle;rounded=0;orthogonalLoop=1;jettySize=auto;html=1;" parent="2b4e8129b02d487f-3" source="18PfIUPdo-HqKEG1NgYA-5" edge="1">
          <mxGeometry relative="1" as="geometry">
            <mxPoint x="1730" y="79" as="targetPoint" />
          </mxGeometry>
        </mxCell>
        <mxCell id="18PfIUPdo-HqKEG1NgYA-5" value="보조&lt;br&gt;전화번호&lt;br&gt;미입력" style="rhombus;whiteSpace=wrap;html=1;" parent="2b4e8129b02d487f-3" vertex="1">
          <mxGeometry x="1550" y="99" width="80" height="80" as="geometry" />
        </mxCell>
        <mxCell id="18PfIUPdo-HqKEG1NgYA-13" value="No" style="text;html=1;strokeColor=none;fillColor=none;align=center;verticalAlign=middle;whiteSpace=wrap;rounded=0;" parent="2b4e8129b02d487f-3" vertex="1">
          <mxGeometry x="1510" y="109" width="60" height="30" as="geometry" />
        </mxCell>
        <mxCell id="18PfIUPdo-HqKEG1NgYA-14" value="Yes" style="text;html=1;strokeColor=none;fillColor=none;align=center;verticalAlign=middle;whiteSpace=wrap;rounded=0;" parent="2b4e8129b02d487f-3" vertex="1">
          <mxGeometry x="1610" y="114" width="60" height="30" as="geometry" />
        </mxCell>
        <mxCell id="18PfIUPdo-HqKEG1NgYA-22" style="edgeStyle=orthogonalEdgeStyle;rounded=0;orthogonalLoop=1;jettySize=auto;html=1;" parent="2b4e8129b02d487f-3" source="18PfIUPdo-HqKEG1NgYA-16" target="wPVQGBUB4z8hFI1XciTC-46" edge="1">
          <mxGeometry relative="1" as="geometry" />
        </mxCell>
        <mxCell id="18PfIUPdo-HqKEG1NgYA-16" value="계정 정보" style="swimlane;fontStyle=0;childLayout=stackLayout;horizontal=1;startSize=26;horizontalStack=0;resizeParent=1;resizeParentMax=0;resizeLast=0;collapsible=1;marginBottom=0;align=center;fontSize=14;" parent="2b4e8129b02d487f-3" vertex="1">
          <mxGeometry x="440" y="83" width="160" height="86" as="geometry" />
        </mxCell>
        <mxCell id="18PfIUPdo-HqKEG1NgYA-17" value="동/호수" style="text;strokeColor=none;fillColor=none;spacingLeft=4;spacingRight=4;overflow=hidden;rotatable=0;points=[[0,0.5],[1,0.5]];portConstraint=eastwest;fontSize=12;whiteSpace=wrap;html=1;" parent="18PfIUPdo-HqKEG1NgYA-16" vertex="1">
          <mxGeometry y="26" width="160" height="30" as="geometry" />
        </mxCell>
        <mxCell id="18PfIUPdo-HqKEG1NgYA-21" value="비밀번호" style="text;strokeColor=none;fillColor=none;spacingLeft=4;spacingRight=4;overflow=hidden;rotatable=0;points=[[0,0.5],[1,0.5]];portConstraint=eastwest;fontSize=12;whiteSpace=wrap;html=1;" parent="18PfIUPdo-HqKEG1NgYA-16" vertex="1">
          <mxGeometry y="56" width="160" height="30" as="geometry" />
        </mxCell>
        <mxCell id="18PfIUPdo-HqKEG1NgYA-27" value="불일치" style="text;html=1;strokeColor=none;fillColor=none;align=center;verticalAlign=middle;whiteSpace=wrap;rounded=0;" parent="2b4e8129b02d487f-3" vertex="1">
          <mxGeometry x="1870" y="114" width="60" height="30" as="geometry" />
        </mxCell>
        <mxCell id="kmouRNJiQMqvB9NYq39l-33" value="이미지 다운로드&lt;br&gt;완료 수신" style="whiteSpace=wrap;html=1;rounded=0;" parent="2b4e8129b02d487f-3" vertex="1">
          <mxGeometry x="3810" y="189" width="120" height="60" as="geometry" />
        </mxCell>
        <mxCell id="kmouRNJiQMqvB9NYq39l-42" value="" style="edgeStyle=orthogonalEdgeStyle;rounded=0;orthogonalLoop=1;jettySize=auto;html=1;" parent="2b4e8129b02d487f-3" source="kmouRNJiQMqvB9NYq39l-39" target="kmouRNJiQMqvB9NYq39l-41" edge="1">
          <mxGeometry relative="1" as="geometry" />
        </mxCell>
        <mxCell id="kmouRNJiQMqvB9NYq39l-118" style="edgeStyle=orthogonalEdgeStyle;rounded=0;orthogonalLoop=1;jettySize=auto;html=1;entryX=0;entryY=0.5;entryDx=0;entryDy=0;" parent="2b4e8129b02d487f-3" source="kmouRNJiQMqvB9NYq39l-39" target="kmouRNJiQMqvB9NYq39l-56" edge="1">
          <mxGeometry relative="1" as="geometry" />
        </mxCell>
        <mxCell id="kmouRNJiQMqvB9NYq39l-39" value="Time Out" style="rhombus;whiteSpace=wrap;html=1;" parent="2b4e8129b02d487f-3" vertex="1">
          <mxGeometry x="4641" y="656" width="80" height="80" as="geometry" />
        </mxCell>
        <mxCell id="kmouRNJiQMqvB9NYq39l-44" value="" style="edgeStyle=orthogonalEdgeStyle;rounded=0;orthogonalLoop=1;jettySize=auto;html=1;" parent="2b4e8129b02d487f-3" source="kmouRNJiQMqvB9NYq39l-41" target="kmouRNJiQMqvB9NYq39l-43" edge="1">
          <mxGeometry relative="1" as="geometry" />
        </mxCell>
        <mxCell id="kmouRNJiQMqvB9NYq39l-59" value="" style="edgeStyle=orthogonalEdgeStyle;rounded=0;orthogonalLoop=1;jettySize=auto;html=1;" parent="2b4e8129b02d487f-3" source="kmouRNJiQMqvB9NYq39l-41" target="kmouRNJiQMqvB9NYq39l-58" edge="1">
          <mxGeometry relative="1" as="geometry" />
        </mxCell>
        <mxCell id="kmouRNJiQMqvB9NYq39l-41" value="400 에러" style="rhombus;whiteSpace=wrap;html=1;" parent="2b4e8129b02d487f-3" vertex="1">
          <mxGeometry x="4641" y="556" width="80" height="80" as="geometry" />
        </mxCell>
        <mxCell id="kmouRNJiQMqvB9NYq39l-46" value="" style="edgeStyle=orthogonalEdgeStyle;rounded=0;orthogonalLoop=1;jettySize=auto;html=1;" parent="2b4e8129b02d487f-3" source="kmouRNJiQMqvB9NYq39l-43" target="kmouRNJiQMqvB9NYq39l-45" edge="1">
          <mxGeometry relative="1" as="geometry" />
        </mxCell>
        <mxCell id="kmouRNJiQMqvB9NYq39l-61" value="" style="edgeStyle=orthogonalEdgeStyle;rounded=0;orthogonalLoop=1;jettySize=auto;html=1;" parent="2b4e8129b02d487f-3" source="kmouRNJiQMqvB9NYq39l-43" target="kmouRNJiQMqvB9NYq39l-60" edge="1">
          <mxGeometry relative="1" as="geometry" />
        </mxCell>
        <mxCell id="kmouRNJiQMqvB9NYq39l-43" value="401 에러" style="rhombus;whiteSpace=wrap;html=1;" parent="2b4e8129b02d487f-3" vertex="1">
          <mxGeometry x="4641" y="456" width="80" height="80" as="geometry" />
        </mxCell>
        <mxCell id="kmouRNJiQMqvB9NYq39l-48" value="" style="edgeStyle=orthogonalEdgeStyle;rounded=0;orthogonalLoop=1;jettySize=auto;html=1;" parent="2b4e8129b02d487f-3" source="kmouRNJiQMqvB9NYq39l-45" target="kmouRNJiQMqvB9NYq39l-47" edge="1">
          <mxGeometry relative="1" as="geometry" />
        </mxCell>
        <mxCell id="kmouRNJiQMqvB9NYq39l-63" value="" style="edgeStyle=orthogonalEdgeStyle;rounded=0;orthogonalLoop=1;jettySize=auto;html=1;" parent="2b4e8129b02d487f-3" source="kmouRNJiQMqvB9NYq39l-45" target="kmouRNJiQMqvB9NYq39l-62" edge="1">
          <mxGeometry relative="1" as="geometry" />
        </mxCell>
        <mxCell id="kmouRNJiQMqvB9NYq39l-45" value="403 에러" style="rhombus;whiteSpace=wrap;html=1;" parent="2b4e8129b02d487f-3" vertex="1">
          <mxGeometry x="4641" y="352" width="80" height="80" as="geometry" />
        </mxCell>
        <mxCell id="kmouRNJiQMqvB9NYq39l-50" value="" style="edgeStyle=orthogonalEdgeStyle;rounded=0;orthogonalLoop=1;jettySize=auto;html=1;" parent="2b4e8129b02d487f-3" source="kmouRNJiQMqvB9NYq39l-47" target="kmouRNJiQMqvB9NYq39l-49" edge="1">
          <mxGeometry relative="1" as="geometry" />
        </mxCell>
        <mxCell id="kmouRNJiQMqvB9NYq39l-65" value="" style="edgeStyle=orthogonalEdgeStyle;rounded=0;orthogonalLoop=1;jettySize=auto;html=1;" parent="2b4e8129b02d487f-3" source="kmouRNJiQMqvB9NYq39l-47" target="kmouRNJiQMqvB9NYq39l-64" edge="1">
          <mxGeometry relative="1" as="geometry" />
        </mxCell>
        <mxCell id="kmouRNJiQMqvB9NYq39l-47" value="404 에러" style="rhombus;whiteSpace=wrap;html=1;" parent="2b4e8129b02d487f-3" vertex="1">
          <mxGeometry x="4641" y="246" width="80" height="80" as="geometry" />
        </mxCell>
        <mxCell id="kmouRNJiQMqvB9NYq39l-67" value="" style="edgeStyle=orthogonalEdgeStyle;rounded=0;orthogonalLoop=1;jettySize=auto;html=1;" parent="2b4e8129b02d487f-3" source="kmouRNJiQMqvB9NYq39l-49" target="kmouRNJiQMqvB9NYq39l-66" edge="1">
          <mxGeometry relative="1" as="geometry" />
        </mxCell>
        <mxCell id="kmouRNJiQMqvB9NYq39l-69" value="" style="edgeStyle=orthogonalEdgeStyle;rounded=0;orthogonalLoop=1;jettySize=auto;html=1;" parent="2b4e8129b02d487f-3" source="kmouRNJiQMqvB9NYq39l-49" target="kmouRNJiQMqvB9NYq39l-68" edge="1">
          <mxGeometry relative="1" as="geometry" />
        </mxCell>
        <mxCell id="kmouRNJiQMqvB9NYq39l-49" value="500 에러" style="rhombus;whiteSpace=wrap;html=1;" parent="2b4e8129b02d487f-3" vertex="1">
          <mxGeometry x="4641" y="146" width="80" height="80" as="geometry" />
        </mxCell>
        <mxCell id="kmouRNJiQMqvB9NYq39l-56" value="타임아웃 메시지 출력" style="whiteSpace=wrap;html=1;" parent="2b4e8129b02d487f-3" vertex="1">
          <mxGeometry x="4781" y="666" width="120" height="60" as="geometry" />
        </mxCell>
        <mxCell id="kmouRNJiQMqvB9NYq39l-58" value="잘못된 요청이라 알림" style="whiteSpace=wrap;html=1;" parent="2b4e8129b02d487f-3" vertex="1">
          <mxGeometry x="4781" y="566" width="120" height="60" as="geometry" />
        </mxCell>
        <mxCell id="kmouRNJiQMqvB9NYq39l-60" value="인증 필요하다 알림" style="whiteSpace=wrap;html=1;" parent="2b4e8129b02d487f-3" vertex="1">
          <mxGeometry x="4781" y="466" width="120" height="60" as="geometry" />
        </mxCell>
        <mxCell id="kmouRNJiQMqvB9NYq39l-62" value="접근 거부됨 알림" style="whiteSpace=wrap;html=1;" parent="2b4e8129b02d487f-3" vertex="1">
          <mxGeometry x="4781" y="362" width="120" height="60" as="geometry" />
        </mxCell>
        <mxCell id="kmouRNJiQMqvB9NYq39l-64" value="경로 찾을 수 없다&lt;br&gt;알림" style="whiteSpace=wrap;html=1;" parent="2b4e8129b02d487f-3" vertex="1">
          <mxGeometry x="4781" y="256" width="120" height="60" as="geometry" />
        </mxCell>
        <mxCell id="kmouRNJiQMqvB9NYq39l-66" value="서버 오류 알림" style="whiteSpace=wrap;html=1;" parent="2b4e8129b02d487f-3" vertex="1">
          <mxGeometry x="4781" y="156" width="120" height="60" as="geometry" />
        </mxCell>
        <mxCell id="kmouRNJiQMqvB9NYq39l-71" value="" style="edgeStyle=orthogonalEdgeStyle;rounded=0;orthogonalLoop=1;jettySize=auto;html=1;" parent="2b4e8129b02d487f-3" source="kmouRNJiQMqvB9NYq39l-68" target="kmouRNJiQMqvB9NYq39l-70" edge="1">
          <mxGeometry relative="1" as="geometry" />
        </mxCell>
        <mxCell id="kmouRNJiQMqvB9NYq39l-68" value="기타 에러" style="rhombus;whiteSpace=wrap;html=1;" parent="2b4e8129b02d487f-3" vertex="1">
          <mxGeometry x="4641" y="41" width="80" height="80" as="geometry" />
        </mxCell>
        <mxCell id="kmouRNJiQMqvB9NYq39l-70" value="기타 서비스 오류&lt;br&gt;알림" style="whiteSpace=wrap;html=1;" parent="2b4e8129b02d487f-3" vertex="1">
          <mxGeometry x="4781" y="51" width="120" height="60" as="geometry" />
        </mxCell>
        <mxCell id="kmouRNJiQMqvB9NYq39l-82" value="Yes" style="text;html=1;strokeColor=none;fillColor=none;align=center;verticalAlign=middle;whiteSpace=wrap;rounded=0;" parent="2b4e8129b02d487f-3" vertex="1">
          <mxGeometry x="4721" y="666" width="30" height="30" as="geometry" />
        </mxCell>
        <mxCell id="kmouRNJiQMqvB9NYq39l-83" value="Yes" style="text;html=1;strokeColor=none;fillColor=none;align=center;verticalAlign=middle;whiteSpace=wrap;rounded=0;" parent="2b4e8129b02d487f-3" vertex="1">
          <mxGeometry x="4721" y="566" width="30" height="30" as="geometry" />
        </mxCell>
        <mxCell id="kmouRNJiQMqvB9NYq39l-84" value="Yes" style="text;html=1;strokeColor=none;fillColor=none;align=center;verticalAlign=middle;whiteSpace=wrap;rounded=0;" parent="2b4e8129b02d487f-3" vertex="1">
          <mxGeometry x="4721" y="466" width="30" height="30" as="geometry" />
        </mxCell>
        <mxCell id="kmouRNJiQMqvB9NYq39l-85" value="Yes" style="text;html=1;strokeColor=none;fillColor=none;align=center;verticalAlign=middle;whiteSpace=wrap;rounded=0;" parent="2b4e8129b02d487f-3" vertex="1">
          <mxGeometry x="4721" y="362" width="30" height="30" as="geometry" />
        </mxCell>
        <mxCell id="kmouRNJiQMqvB9NYq39l-86" value="Yes" style="text;html=1;strokeColor=none;fillColor=none;align=center;verticalAlign=middle;whiteSpace=wrap;rounded=0;" parent="2b4e8129b02d487f-3" vertex="1">
          <mxGeometry x="4721" y="256" width="30" height="30" as="geometry" />
        </mxCell>
        <mxCell id="kmouRNJiQMqvB9NYq39l-87" value="Yes" style="text;html=1;strokeColor=none;fillColor=none;align=center;verticalAlign=middle;whiteSpace=wrap;rounded=0;" parent="2b4e8129b02d487f-3" vertex="1">
          <mxGeometry x="4721" y="156" width="30" height="30" as="geometry" />
        </mxCell>
        <mxCell id="kmouRNJiQMqvB9NYq39l-88" value="Yes" style="text;html=1;strokeColor=none;fillColor=none;align=center;verticalAlign=middle;whiteSpace=wrap;rounded=0;" parent="2b4e8129b02d487f-3" vertex="1">
          <mxGeometry x="4721" y="50" width="30" height="30" as="geometry" />
        </mxCell>
        <mxCell id="kmouRNJiQMqvB9NYq39l-89" value="No" style="text;html=1;strokeColor=none;fillColor=none;align=center;verticalAlign=middle;whiteSpace=wrap;rounded=0;" parent="2b4e8129b02d487f-3" vertex="1">
          <mxGeometry x="4650" y="636" width="30" height="30" as="geometry" />
        </mxCell>
        <mxCell id="kmouRNJiQMqvB9NYq39l-90" value="No" style="text;html=1;strokeColor=none;fillColor=none;align=center;verticalAlign=middle;whiteSpace=wrap;rounded=0;" parent="2b4e8129b02d487f-3" vertex="1">
          <mxGeometry x="4650" y="536" width="30" height="30" as="geometry" />
        </mxCell>
        <mxCell id="kmouRNJiQMqvB9NYq39l-91" value="No" style="text;html=1;strokeColor=none;fillColor=none;align=center;verticalAlign=middle;whiteSpace=wrap;rounded=0;" parent="2b4e8129b02d487f-3" vertex="1">
          <mxGeometry x="4650" y="436" width="30" height="30" as="geometry" />
        </mxCell>
        <mxCell id="kmouRNJiQMqvB9NYq39l-92" value="No" style="text;html=1;strokeColor=none;fillColor=none;align=center;verticalAlign=middle;whiteSpace=wrap;rounded=0;" parent="2b4e8129b02d487f-3" vertex="1">
          <mxGeometry x="4650" y="326" width="30" height="30" as="geometry" />
        </mxCell>
        <mxCell id="kmouRNJiQMqvB9NYq39l-93" value="No" style="text;html=1;strokeColor=none;fillColor=none;align=center;verticalAlign=middle;whiteSpace=wrap;rounded=0;" parent="2b4e8129b02d487f-3" vertex="1">
          <mxGeometry x="4650" y="226" width="30" height="30" as="geometry" />
        </mxCell>
        <mxCell id="kmouRNJiQMqvB9NYq39l-94" value="No" style="text;html=1;strokeColor=none;fillColor=none;align=center;verticalAlign=middle;whiteSpace=wrap;rounded=0;" parent="2b4e8129b02d487f-3" vertex="1">
          <mxGeometry x="4650" y="126" width="30" height="30" as="geometry" />
        </mxCell>
        <mxCell id="kmouRNJiQMqvB9NYq39l-96" value="No" style="text;html=1;strokeColor=none;fillColor=none;align=center;verticalAlign=middle;whiteSpace=wrap;rounded=0;" parent="2b4e8129b02d487f-3" vertex="1">
          <mxGeometry x="4650" y="11" width="30" height="30" as="geometry" />
        </mxCell>
        <mxCell id="kmouRNJiQMqvB9NYq39l-121" style="edgeStyle=orthogonalEdgeStyle;rounded=0;orthogonalLoop=1;jettySize=auto;html=1;entryX=0.5;entryY=1;entryDx=0;entryDy=0;" parent="2b4e8129b02d487f-3" source="kmouRNJiQMqvB9NYq39l-116" target="kmouRNJiQMqvB9NYq39l-39" edge="1">
          <mxGeometry relative="1" as="geometry" />
        </mxCell>
        <mxCell id="kmouRNJiQMqvB9NYq39l-123" value="" style="edgeStyle=orthogonalEdgeStyle;rounded=0;orthogonalLoop=1;jettySize=auto;html=1;" parent="2b4e8129b02d487f-3" source="kmouRNJiQMqvB9NYq39l-116" target="kmouRNJiQMqvB9NYq39l-122" edge="1">
          <mxGeometry relative="1" as="geometry" />
        </mxCell>
        <mxCell id="kmouRNJiQMqvB9NYq39l-116" value="응답 없음" style="rhombus;whiteSpace=wrap;html=1;" parent="2b4e8129b02d487f-3" vertex="1">
          <mxGeometry x="4641" y="759" width="80" height="80" as="geometry" />
        </mxCell>
        <mxCell id="kmouRNJiQMqvB9NYq39l-122" value="응답 없음&lt;br&gt;메시지 출력" style="whiteSpace=wrap;html=1;" parent="2b4e8129b02d487f-3" vertex="1">
          <mxGeometry x="4781" y="769" width="120" height="60" as="geometry" />
        </mxCell>
        <mxCell id="kmouRNJiQMqvB9NYq39l-124" value="Yes" style="text;html=1;strokeColor=none;fillColor=none;align=center;verticalAlign=middle;whiteSpace=wrap;rounded=0;" parent="2b4e8129b02d487f-3" vertex="1">
          <mxGeometry x="4721" y="769" width="30" height="30" as="geometry" />
        </mxCell>
        <mxCell id="kmouRNJiQMqvB9NYq39l-125" value="No" style="text;html=1;strokeColor=none;fillColor=none;align=center;verticalAlign=middle;whiteSpace=wrap;rounded=0;" parent="2b4e8129b02d487f-3" vertex="1">
          <mxGeometry x="4650" y="739" width="30" height="30" as="geometry" />
        </mxCell>
        <mxCell id="kmouRNJiQMqvB9NYq39l-191" value="" style="edgeStyle=orthogonalEdgeStyle;rounded=0;orthogonalLoop=1;jettySize=auto;html=1;" parent="2b4e8129b02d487f-3" source="kmouRNJiQMqvB9NYq39l-189" target="wPVQGBUB4z8hFI1XciTC-95" edge="1">
          <mxGeometry relative="1" as="geometry" />
        </mxCell>
        <mxCell id="kmouRNJiQMqvB9NYq39l-189" value="이미지 확장자를&lt;br&gt;jpg, jpeg, png로&lt;br&gt;제한" style="whiteSpace=wrap;html=1;rounded=0;" parent="2b4e8129b02d487f-3" vertex="1">
          <mxGeometry x="3510" y="59" width="120" height="60" as="geometry" />
        </mxCell>
        <mxCell id="2b4e8129b02d487f-4" value="Back-end" style="swimlane;html=1;startSize=20;horizontal=0;fontSize=12;" parent="2b4e8129b02d487f-1" vertex="1">
          <mxGeometry y="1539" width="5800" height="606" as="geometry" />
        </mxCell>
        <mxCell id="wPVQGBUB4z8hFI1XciTC-9" value="" style="edgeStyle=orthogonalEdgeStyle;rounded=0;orthogonalLoop=1;jettySize=auto;html=1;" parent="2b4e8129b02d487f-4" source="wPVQGBUB4z8hFI1XciTC-4" target="wPVQGBUB4z8hFI1XciTC-8" edge="1">
          <mxGeometry relative="1" as="geometry" />
        </mxCell>
        <mxCell id="wPVQGBUB4z8hFI1XciTC-4" value="json 파싱 후&lt;br&gt;sql 쿼리 변환 + 가입일 및&lt;br&gt;동 호수 중복 확인&lt;br&gt;쿼리 작성" style="rounded=0;whiteSpace=wrap;html=1;" parent="2b4e8129b02d487f-4" vertex="1">
          <mxGeometry x="2050" y="378" width="160" height="60" as="geometry" />
        </mxCell>
        <mxCell id="wPVQGBUB4z8hFI1XciTC-8" value="동 호수 중복 확인&lt;br&gt;쿼리 요청" style="rounded=0;whiteSpace=wrap;html=1;" parent="2b4e8129b02d487f-4" vertex="1">
          <mxGeometry x="2070" y="488" width="120" height="60" as="geometry" />
        </mxCell>
        <mxCell id="wPVQGBUB4z8hFI1XciTC-22" value="" style="edgeStyle=orthogonalEdgeStyle;rounded=0;orthogonalLoop=1;jettySize=auto;html=1;" parent="2b4e8129b02d487f-4" source="wPVQGBUB4z8hFI1XciTC-14" target="wPVQGBUB4z8hFI1XciTC-21" edge="1">
          <mxGeometry relative="1" as="geometry" />
        </mxCell>
        <mxCell id="wPVQGBUB4z8hFI1XciTC-26" value="" style="edgeStyle=orthogonalEdgeStyle;rounded=0;orthogonalLoop=1;jettySize=auto;html=1;" parent="2b4e8129b02d487f-4" source="wPVQGBUB4z8hFI1XciTC-14" target="wPVQGBUB4z8hFI1XciTC-21" edge="1">
          <mxGeometry relative="1" as="geometry" />
        </mxCell>
        <mxCell id="wPVQGBUB4z8hFI1XciTC-28" value="" style="edgeStyle=orthogonalEdgeStyle;rounded=0;orthogonalLoop=1;jettySize=auto;html=1;exitX=0;exitY=1;exitDx=0;exitDy=0;" parent="2b4e8129b02d487f-4" source="wPVQGBUB4z8hFI1XciTC-14" target="wPVQGBUB4z8hFI1XciTC-27" edge="1">
          <mxGeometry relative="1" as="geometry">
            <Array as="points">
              <mxPoint x="1940" y="138" />
              <mxPoint x="1830" y="138" />
            </Array>
          </mxGeometry>
        </mxCell>
        <mxCell id="wPVQGBUB4z8hFI1XciTC-14" value="중복 여부" style="rhombus;whiteSpace=wrap;html=1;" parent="2b4e8129b02d487f-4" vertex="1">
          <mxGeometry x="1920" y="58" width="80" height="80" as="geometry" />
        </mxCell>
        <mxCell id="wPVQGBUB4z8hFI1XciTC-18" style="edgeStyle=orthogonalEdgeStyle;rounded=0;orthogonalLoop=1;jettySize=auto;html=1;exitX=0.5;exitY=0;exitDx=0;exitDy=0;entryX=0.5;entryY=1;entryDx=0;entryDy=0;" parent="2b4e8129b02d487f-4" source="wPVQGBUB4z8hFI1XciTC-16" target="wPVQGBUB4z8hFI1XciTC-14" edge="1">
          <mxGeometry relative="1" as="geometry" />
        </mxCell>
        <mxCell id="wPVQGBUB4z8hFI1XciTC-16" value="중복 결과 반환" style="whiteSpace=wrap;html=1;" parent="2b4e8129b02d487f-4" vertex="1">
          <mxGeometry x="1900" y="178" width="120" height="60" as="geometry" />
        </mxCell>
        <mxCell id="wPVQGBUB4z8hFI1XciTC-21" value="중복된 계정이라 알림" style="whiteSpace=wrap;html=1;" parent="2b4e8129b02d487f-4" vertex="1">
          <mxGeometry x="1740" y="68" width="120" height="60" as="geometry" />
        </mxCell>
        <mxCell id="wPVQGBUB4z8hFI1XciTC-27" value="데이터베이스에 저장" style="whiteSpace=wrap;html=1;" parent="2b4e8129b02d487f-4" vertex="1">
          <mxGeometry x="1770" y="178" width="120" height="60" as="geometry" />
        </mxCell>
        <mxCell id="wPVQGBUB4z8hFI1XciTC-31" value="데이터 저장 후&lt;br&gt;결과 반환" style="rounded=0;whiteSpace=wrap;html=1;" parent="2b4e8129b02d487f-4" vertex="1">
          <mxGeometry x="2220" y="178" width="120" height="60" as="geometry" />
        </mxCell>
        <mxCell id="wPVQGBUB4z8hFI1XciTC-54" value="" style="edgeStyle=orthogonalEdgeStyle;rounded=0;orthogonalLoop=1;jettySize=auto;html=1;" parent="2b4e8129b02d487f-4" source="wPVQGBUB4z8hFI1XciTC-48" target="wPVQGBUB4z8hFI1XciTC-53" edge="1">
          <mxGeometry relative="1" as="geometry" />
        </mxCell>
        <mxCell id="wPVQGBUB4z8hFI1XciTC-48" value="로그인 정보&lt;br&gt;쿼리 작성" style="whiteSpace=wrap;html=1;" parent="2b4e8129b02d487f-4" vertex="1">
          <mxGeometry x="1410" y="68" width="120" height="60" as="geometry" />
        </mxCell>
        <mxCell id="wPVQGBUB4z8hFI1XciTC-50" value="중복" style="text;html=1;strokeColor=none;fillColor=none;align=center;verticalAlign=middle;whiteSpace=wrap;rounded=0;" parent="2b4e8129b02d487f-4" vertex="1">
          <mxGeometry x="1870" y="68" width="60" height="30" as="geometry" />
        </mxCell>
        <mxCell id="wPVQGBUB4z8hFI1XciTC-51" value="중복 아님" style="text;html=1;strokeColor=none;fillColor=none;align=center;verticalAlign=middle;whiteSpace=wrap;rounded=0;" parent="2b4e8129b02d487f-4" vertex="1">
          <mxGeometry x="1880" y="115" width="60" height="30" as="geometry" />
        </mxCell>
        <mxCell id="wPVQGBUB4z8hFI1XciTC-53" value="로그인 정보 동일 여부&lt;br&gt;쿼리 요청" style="whiteSpace=wrap;html=1;" parent="2b4e8129b02d487f-4" vertex="1">
          <mxGeometry x="1560" y="168" width="120" height="60" as="geometry" />
        </mxCell>
        <mxCell id="wPVQGBUB4z8hFI1XciTC-62" value="" style="edgeStyle=orthogonalEdgeStyle;rounded=0;orthogonalLoop=1;jettySize=auto;html=1;" parent="2b4e8129b02d487f-4" edge="1">
          <mxGeometry relative="1" as="geometry">
            <mxPoint x="870" y="178" as="sourcePoint" />
          </mxGeometry>
        </mxCell>
        <mxCell id="wPVQGBUB4z8hFI1XciTC-66" style="edgeStyle=orthogonalEdgeStyle;rounded=0;orthogonalLoop=1;jettySize=auto;html=1;exitX=0.5;exitY=0;exitDx=0;exitDy=0;entryX=0.5;entryY=1;entryDx=0;entryDy=0;" parent="2b4e8129b02d487f-4" source="wPVQGBUB4z8hFI1XciTC-63" target="wPVQGBUB4z8hFI1XciTC-64" edge="1">
          <mxGeometry relative="1" as="geometry" />
        </mxCell>
        <mxCell id="wPVQGBUB4z8hFI1XciTC-63" value="로그인 정보 반환" style="rounded=0;whiteSpace=wrap;html=1;" parent="2b4e8129b02d487f-4" vertex="1">
          <mxGeometry x="2410" y="178" width="120" height="60" as="geometry" />
        </mxCell>
        <mxCell id="wPVQGBUB4z8hFI1XciTC-64" value="로그인 정보&lt;br&gt;일치" style="rhombus;whiteSpace=wrap;html=1;rounded=0;" parent="2b4e8129b02d487f-4" vertex="1">
          <mxGeometry x="2430" y="8" width="80" height="80" as="geometry" />
        </mxCell>
        <mxCell id="wPVQGBUB4z8hFI1XciTC-71" value="일치" style="text;html=1;strokeColor=none;fillColor=none;align=center;verticalAlign=middle;whiteSpace=wrap;rounded=0;" parent="2b4e8129b02d487f-4" vertex="1">
          <mxGeometry x="2500" y="18" width="60" height="30" as="geometry" />
        </mxCell>
        <mxCell id="wPVQGBUB4z8hFI1XciTC-100" value="" style="edgeStyle=orthogonalEdgeStyle;rounded=0;orthogonalLoop=1;jettySize=auto;html=1;" parent="2b4e8129b02d487f-4" source="wPVQGBUB4z8hFI1XciTC-97" target="wPVQGBUB4z8hFI1XciTC-99" edge="1">
          <mxGeometry relative="1" as="geometry" />
        </mxCell>
        <mxCell id="wPVQGBUB4z8hFI1XciTC-97" value="파일 이미지 확장자&lt;br&gt;(jpg, jpeg, png)&lt;br&gt;확인" style="whiteSpace=wrap;html=1;rounded=0;" parent="2b4e8129b02d487f-4" vertex="1">
          <mxGeometry x="3510" y="150" width="120" height="60" as="geometry" />
        </mxCell>
        <mxCell id="wPVQGBUB4z8hFI1XciTC-102" value="" style="edgeStyle=orthogonalEdgeStyle;rounded=0;orthogonalLoop=1;jettySize=auto;html=1;" parent="2b4e8129b02d487f-4" source="wPVQGBUB4z8hFI1XciTC-99" target="wPVQGBUB4z8hFI1XciTC-101" edge="1">
          <mxGeometry relative="1" as="geometry" />
        </mxCell>
        <mxCell id="wPVQGBUB4z8hFI1XciTC-99" value="올바른&lt;br&gt;이미지&lt;br&gt;확장자" style="rhombus;whiteSpace=wrap;html=1;rounded=0;" parent="2b4e8129b02d487f-4" vertex="1">
          <mxGeometry x="3530" y="230" width="80" height="80" as="geometry" />
        </mxCell>
        <mxCell id="wPVQGBUB4z8hFI1XciTC-101" value="올바르지 않은&lt;br&gt;이미지 형식이라고&lt;br&gt;알림" style="whiteSpace=wrap;html=1;rounded=0;" parent="2b4e8129b02d487f-4" vertex="1">
          <mxGeometry x="3670" y="100" width="120" height="60" as="geometry" />
        </mxCell>
        <mxCell id="wPVQGBUB4z8hFI1XciTC-121" value="" style="edgeStyle=orthogonalEdgeStyle;rounded=0;orthogonalLoop=1;jettySize=auto;html=1;" parent="2b4e8129b02d487f-4" source="wPVQGBUB4z8hFI1XciTC-105" target="wPVQGBUB4z8hFI1XciTC-120" edge="1">
          <mxGeometry relative="1" as="geometry" />
        </mxCell>
        <mxCell id="wPVQGBUB4z8hFI1XciTC-105" value="파일명을&lt;br&gt;날짜시간_검증코드.확장자&lt;br&gt;로 변경" style="whiteSpace=wrap;html=1;rounded=0;" parent="2b4e8129b02d487f-4" vertex="1">
          <mxGeometry x="3990" y="182" width="150" height="60" as="geometry" />
        </mxCell>
        <mxCell id="wPVQGBUB4z8hFI1XciTC-109" style="edgeStyle=orthogonalEdgeStyle;rounded=0;orthogonalLoop=1;jettySize=auto;html=1;exitX=0.5;exitY=0;exitDx=0;exitDy=0;entryX=1;entryY=0.5;entryDx=0;entryDy=0;" parent="2b4e8129b02d487f-4" source="wPVQGBUB4z8hFI1XciTC-107" target="wPVQGBUB4z8hFI1XciTC-101" edge="1">
          <mxGeometry relative="1" as="geometry" />
        </mxCell>
        <mxCell id="wPVQGBUB4z8hFI1XciTC-116" style="edgeStyle=orthogonalEdgeStyle;rounded=0;orthogonalLoop=1;jettySize=auto;html=1;exitX=1;exitY=0.5;exitDx=0;exitDy=0;entryX=0;entryY=0.5;entryDx=0;entryDy=0;" parent="2b4e8129b02d487f-4" source="wPVQGBUB4z8hFI1XciTC-107" target="wPVQGBUB4z8hFI1XciTC-105" edge="1">
          <mxGeometry relative="1" as="geometry" />
        </mxCell>
        <mxCell id="wPVQGBUB4z8hFI1XciTC-107" value="확장자와&lt;br&gt;실제 이미지&lt;br&gt;타입 비교" style="rhombus;whiteSpace=wrap;html=1;rounded=0;" parent="2b4e8129b02d487f-4" vertex="1">
          <mxGeometry x="3840" y="172" width="80" height="80" as="geometry" />
        </mxCell>
        <mxCell id="wPVQGBUB4z8hFI1XciTC-108" value="" style="edgeStyle=orthogonalEdgeStyle;rounded=0;orthogonalLoop=1;jettySize=auto;html=1;exitX=0.5;exitY=1;exitDx=0;exitDy=0;" parent="2b4e8129b02d487f-4" source="wPVQGBUB4z8hFI1XciTC-99" target="wPVQGBUB4z8hFI1XciTC-107" edge="1">
          <mxGeometry relative="1" as="geometry">
            <Array as="points">
              <mxPoint x="3570" y="348" />
              <mxPoint x="3780" y="348" />
              <mxPoint x="3780" y="212" />
            </Array>
          </mxGeometry>
        </mxCell>
        <mxCell id="wPVQGBUB4z8hFI1XciTC-111" value="올바르지 않음" style="text;html=1;strokeColor=none;fillColor=none;align=center;verticalAlign=middle;whiteSpace=wrap;rounded=0;" parent="2b4e8129b02d487f-4" vertex="1">
          <mxGeometry x="3600" y="240" width="60" height="30" as="geometry" />
        </mxCell>
        <mxCell id="wPVQGBUB4z8hFI1XciTC-112" value="올바르지 않음" style="text;html=1;strokeColor=none;fillColor=none;align=center;verticalAlign=middle;whiteSpace=wrap;rounded=0;" parent="2b4e8129b02d487f-4" vertex="1">
          <mxGeometry x="3880" y="142" width="60" height="30" as="geometry" />
        </mxCell>
        <mxCell id="wPVQGBUB4z8hFI1XciTC-113" value="올바름" style="text;html=1;strokeColor=none;fillColor=none;align=center;verticalAlign=middle;whiteSpace=wrap;rounded=0;" parent="2b4e8129b02d487f-4" vertex="1">
          <mxGeometry x="3570" y="310" width="60" height="30" as="geometry" />
        </mxCell>
        <mxCell id="wPVQGBUB4z8hFI1XciTC-114" value="동일" style="text;html=1;strokeColor=none;fillColor=none;align=center;verticalAlign=middle;whiteSpace=wrap;rounded=0;" parent="2b4e8129b02d487f-4" vertex="1">
          <mxGeometry x="3910" y="212" width="60" height="30" as="geometry" />
        </mxCell>
        <mxCell id="wPVQGBUB4z8hFI1XciTC-119" style="edgeStyle=orthogonalEdgeStyle;rounded=0;orthogonalLoop=1;jettySize=auto;html=1;entryX=0.5;entryY=0;entryDx=0;entryDy=0;" parent="2b4e8129b02d487f-4" source="wPVQGBUB4z8hFI1XciTC-117" target="wPVQGBUB4z8hFI1XciTC-97" edge="1">
          <mxGeometry relative="1" as="geometry" />
        </mxCell>
        <mxCell id="wPVQGBUB4z8hFI1XciTC-117" value="img 폴더에&lt;br&gt;이미지 저장" style="whiteSpace=wrap;html=1;rounded=0;" parent="2b4e8129b02d487f-4" vertex="1">
          <mxGeometry x="3510" y="18" width="120" height="60" as="geometry" />
        </mxCell>
        <mxCell id="wPVQGBUB4z8hFI1XciTC-123" value="" style="edgeStyle=orthogonalEdgeStyle;rounded=0;orthogonalLoop=1;jettySize=auto;html=1;" parent="2b4e8129b02d487f-4" source="wPVQGBUB4z8hFI1XciTC-120" target="wPVQGBUB4z8hFI1XciTC-122" edge="1">
          <mxGeometry relative="1" as="geometry" />
        </mxCell>
        <mxCell id="wPVQGBUB4z8hFI1XciTC-120" value="json 작성" style="whiteSpace=wrap;html=1;rounded=0;" parent="2b4e8129b02d487f-4" vertex="1">
          <mxGeometry x="4171" y="182" width="120" height="60" as="geometry" />
        </mxCell>
        <mxCell id="wPVQGBUB4z8hFI1XciTC-183" value="" style="edgeStyle=orthogonalEdgeStyle;rounded=0;orthogonalLoop=1;jettySize=auto;html=1;" parent="2b4e8129b02d487f-4" source="wPVQGBUB4z8hFI1XciTC-122" target="wPVQGBUB4z8hFI1XciTC-182" edge="1">
          <mxGeometry relative="1" as="geometry" />
        </mxCell>
        <mxCell id="wPVQGBUB4z8hFI1XciTC-122" value="백엔드 서버로 전송" style="whiteSpace=wrap;html=1;rounded=0;" parent="2b4e8129b02d487f-4" vertex="1">
          <mxGeometry x="4320" y="182" width="120" height="60" as="geometry" />
        </mxCell>
        <mxCell id="IvK_GI7LC3h44RhGKrcl-358" value="" style="edgeStyle=orthogonalEdgeStyle;rounded=0;orthogonalLoop=1;jettySize=auto;html=1;" parent="2b4e8129b02d487f-4" source="wPVQGBUB4z8hFI1XciTC-124" target="IvK_GI7LC3h44RhGKrcl-357" edge="1">
          <mxGeometry relative="1" as="geometry" />
        </mxCell>
        <mxCell id="wPVQGBUB4z8hFI1XciTC-124" value="번호판 인식 모델&lt;br&gt;입력" style="whiteSpace=wrap;html=1;rounded=0;" parent="2b4e8129b02d487f-4" vertex="1">
          <mxGeometry x="5102" y="378" width="120" height="60" as="geometry" />
        </mxCell>
        <mxCell id="wPVQGBUB4z8hFI1XciTC-129" value="" style="edgeStyle=orthogonalEdgeStyle;rounded=0;orthogonalLoop=1;jettySize=auto;html=1;" parent="2b4e8129b02d487f-4" source="wPVQGBUB4z8hFI1XciTC-126" target="wPVQGBUB4z8hFI1XciTC-128" edge="1">
          <mxGeometry relative="1" as="geometry" />
        </mxCell>
        <mxCell id="wPVQGBUB4z8hFI1XciTC-126" value="번호판 값을 DB에&lt;br&gt;조회하는 쿼리 생성" style="whiteSpace=wrap;html=1;rounded=0;" parent="2b4e8129b02d487f-4" vertex="1">
          <mxGeometry x="5262" y="182" width="120" height="60" as="geometry" />
        </mxCell>
        <mxCell id="wPVQGBUB4z8hFI1XciTC-128" value="차량 정보 조회&lt;br&gt;쿼리 실행" style="whiteSpace=wrap;html=1;rounded=0;" parent="2b4e8129b02d487f-4" vertex="1">
          <mxGeometry x="5262" y="278" width="120" height="60" as="geometry" />
        </mxCell>
        <mxCell id="wPVQGBUB4z8hFI1XciTC-175" value="" style="edgeStyle=orthogonalEdgeStyle;rounded=0;orthogonalLoop=1;jettySize=auto;html=1;" parent="2b4e8129b02d487f-4" source="wPVQGBUB4z8hFI1XciTC-133" target="wPVQGBUB4z8hFI1XciTC-174" edge="1">
          <mxGeometry relative="1" as="geometry" />
        </mxCell>
        <mxCell id="wPVQGBUB4z8hFI1XciTC-133" value="결과값 반환" style="whiteSpace=wrap;html=1;" parent="2b4e8129b02d487f-4" vertex="1">
          <mxGeometry x="5422" y="310" width="120" height="60" as="geometry" />
        </mxCell>
        <mxCell id="wPVQGBUB4z8hFI1XciTC-143" value="" style="edgeStyle=orthogonalEdgeStyle;rounded=0;orthogonalLoop=1;jettySize=auto;html=1;" parent="2b4e8129b02d487f-4" source="wPVQGBUB4z8hFI1XciTC-135" target="wPVQGBUB4z8hFI1XciTC-142" edge="1">
          <mxGeometry relative="1" as="geometry" />
        </mxCell>
        <mxCell id="wPVQGBUB4z8hFI1XciTC-135" value="차량 번호판&lt;br&gt;존재 여부" style="rhombus;whiteSpace=wrap;html=1;" parent="2b4e8129b02d487f-4" vertex="1">
          <mxGeometry x="5442" y="110" width="80" height="80" as="geometry" />
        </mxCell>
        <mxCell id="wPVQGBUB4z8hFI1XciTC-142" value="차량 정보&lt;br&gt;json 형식&lt;br&gt;생성 및 반환" style="whiteSpace=wrap;html=1;" parent="2b4e8129b02d487f-4" vertex="1">
          <mxGeometry x="5422" y="8" width="120" height="60" as="geometry" />
        </mxCell>
        <mxCell id="wPVQGBUB4z8hFI1XciTC-149" value="미존재" style="text;html=1;strokeColor=none;fillColor=none;align=center;verticalAlign=middle;whiteSpace=wrap;rounded=0;" parent="2b4e8129b02d487f-4" vertex="1">
          <mxGeometry x="5402" y="118" width="60" height="30" as="geometry" />
        </mxCell>
        <mxCell id="wPVQGBUB4z8hFI1XciTC-150" value="존재" style="text;html=1;strokeColor=none;fillColor=none;align=center;verticalAlign=middle;whiteSpace=wrap;rounded=0;" parent="2b4e8129b02d487f-4" vertex="1">
          <mxGeometry x="5472" y="78" width="60" height="30" as="geometry" />
        </mxCell>
        <mxCell id="wPVQGBUB4z8hFI1XciTC-168" value="" style="edgeStyle=orthogonalEdgeStyle;rounded=0;orthogonalLoop=1;jettySize=auto;html=1;" parent="2b4e8129b02d487f-4" source="wPVQGBUB4z8hFI1XciTC-164" target="wPVQGBUB4z8hFI1XciTC-167" edge="1">
          <mxGeometry relative="1" as="geometry" />
        </mxCell>
        <mxCell id="wPVQGBUB4z8hFI1XciTC-164" value="이미지 서버에&lt;br&gt;GET으로 파일 삭제 요청" style="whiteSpace=wrap;html=1;rounded=0;" parent="2b4e8129b02d487f-4" vertex="1">
          <mxGeometry x="4640" y="378" width="120" height="60" as="geometry" />
        </mxCell>
        <mxCell id="wPVQGBUB4z8hFI1XciTC-171" value="" style="edgeStyle=orthogonalEdgeStyle;rounded=0;orthogonalLoop=1;jettySize=auto;html=1;" parent="2b4e8129b02d487f-4" source="wPVQGBUB4z8hFI1XciTC-167" target="wPVQGBUB4z8hFI1XciTC-170" edge="1">
          <mxGeometry relative="1" as="geometry" />
        </mxCell>
        <mxCell id="wPVQGBUB4z8hFI1XciTC-167" value="이미지 서버&lt;br&gt;파일 삭제 완료" style="whiteSpace=wrap;html=1;rounded=0;" parent="2b4e8129b02d487f-4" vertex="1">
          <mxGeometry x="4790" y="378" width="120" height="60" as="geometry" />
        </mxCell>
        <mxCell id="wPVQGBUB4z8hFI1XciTC-172" style="edgeStyle=orthogonalEdgeStyle;rounded=0;orthogonalLoop=1;jettySize=auto;html=1;entryX=0;entryY=0.5;entryDx=0;entryDy=0;" parent="2b4e8129b02d487f-4" source="wPVQGBUB4z8hFI1XciTC-170" target="wPVQGBUB4z8hFI1XciTC-124" edge="1">
          <mxGeometry relative="1" as="geometry" />
        </mxCell>
        <mxCell id="wPVQGBUB4z8hFI1XciTC-170" value="파일 삭제 완료&lt;br&gt;json값 Flask 서버로 전송" style="whiteSpace=wrap;html=1;rounded=0;" parent="2b4e8129b02d487f-4" vertex="1">
          <mxGeometry x="4942" y="378" width="120" height="60" as="geometry" />
        </mxCell>
        <mxCell id="wPVQGBUB4z8hFI1XciTC-178" style="edgeStyle=orthogonalEdgeStyle;rounded=0;orthogonalLoop=1;jettySize=auto;html=1;exitX=0.5;exitY=0;exitDx=0;exitDy=0;entryX=0.5;entryY=1;entryDx=0;entryDy=0;" parent="2b4e8129b02d487f-4" source="wPVQGBUB4z8hFI1XciTC-174" target="wPVQGBUB4z8hFI1XciTC-135" edge="1">
          <mxGeometry relative="1" as="geometry" />
        </mxCell>
        <mxCell id="wPVQGBUB4z8hFI1XciTC-174" value="백엔드 이미지 삭제" style="whiteSpace=wrap;html=1;" parent="2b4e8129b02d487f-4" vertex="1">
          <mxGeometry x="5422" y="225" width="120" height="60" as="geometry" />
        </mxCell>
        <mxCell id="kmouRNJiQMqvB9NYq39l-22" value="" style="edgeStyle=orthogonalEdgeStyle;rounded=0;orthogonalLoop=1;jettySize=auto;html=1;" parent="2b4e8129b02d487f-4" source="wPVQGBUB4z8hFI1XciTC-182" target="kmouRNJiQMqvB9NYq39l-21" edge="1">
          <mxGeometry relative="1" as="geometry" />
        </mxCell>
        <mxCell id="wPVQGBUB4z8hFI1XciTC-182" value="이미지 다운로드" style="whiteSpace=wrap;html=1;rounded=0;" parent="2b4e8129b02d487f-4" vertex="1">
          <mxGeometry x="4320" y="288" width="120" height="60" as="geometry" />
        </mxCell>
        <mxCell id="wPVQGBUB4z8hFI1XciTC-187" style="edgeStyle=orthogonalEdgeStyle;rounded=0;orthogonalLoop=1;jettySize=auto;html=1;exitX=0.5;exitY=1;exitDx=0;exitDy=0;entryX=0.5;entryY=0;entryDx=0;entryDy=0;" parent="2b4e8129b02d487f-4" source="wPVQGBUB4z8hFI1XciTC-185" target="wPVQGBUB4z8hFI1XciTC-186" edge="1">
          <mxGeometry relative="1" as="geometry" />
        </mxCell>
        <mxCell id="wPVQGBUB4z8hFI1XciTC-185" value="번호판 값을 DB에&lt;br&gt;조회하는 쿼리 생성" style="whiteSpace=wrap;html=1;rounded=0;" parent="2b4e8129b02d487f-4" vertex="1">
          <mxGeometry x="5572" y="182" width="120" height="60" as="geometry" />
        </mxCell>
        <mxCell id="wPVQGBUB4z8hFI1XciTC-186" value="차량 정보 조회&lt;br&gt;쿼리 실행" style="whiteSpace=wrap;html=1;rounded=0;" parent="2b4e8129b02d487f-4" vertex="1">
          <mxGeometry x="5572" y="278" width="120" height="60" as="geometry" />
        </mxCell>
        <mxCell id="kmouRNJiQMqvB9NYq39l-8" style="edgeStyle=orthogonalEdgeStyle;rounded=0;orthogonalLoop=1;jettySize=auto;html=1;exitX=0.5;exitY=1;exitDx=0;exitDy=0;entryX=0.5;entryY=0;entryDx=0;entryDy=0;" parent="2b4e8129b02d487f-4" source="kmouRNJiQMqvB9NYq39l-4" target="kmouRNJiQMqvB9NYq39l-5" edge="1">
          <mxGeometry relative="1" as="geometry" />
        </mxCell>
        <mxCell id="kmouRNJiQMqvB9NYq39l-4" value="모든 항목&lt;br&gt;입력" style="rhombus;whiteSpace=wrap;html=1;" parent="2b4e8129b02d487f-4" vertex="1">
          <mxGeometry x="2090" y="8" width="80" height="80" as="geometry" />
        </mxCell>
        <mxCell id="kmouRNJiQMqvB9NYq39l-9" style="edgeStyle=orthogonalEdgeStyle;rounded=0;orthogonalLoop=1;jettySize=auto;html=1;exitX=0.5;exitY=1;exitDx=0;exitDy=0;entryX=0.5;entryY=0;entryDx=0;entryDy=0;" parent="2b4e8129b02d487f-4" source="kmouRNJiQMqvB9NYq39l-5" target="kmouRNJiQMqvB9NYq39l-6" edge="1">
          <mxGeometry relative="1" as="geometry" />
        </mxCell>
        <mxCell id="kmouRNJiQMqvB9NYq39l-5" value="비밀번호&lt;br&gt;조건 확인" style="rhombus;whiteSpace=wrap;html=1;" parent="2b4e8129b02d487f-4" vertex="1">
          <mxGeometry x="2090" y="128" width="80" height="80" as="geometry" />
        </mxCell>
        <mxCell id="kmouRNJiQMqvB9NYq39l-10" style="edgeStyle=orthogonalEdgeStyle;rounded=0;orthogonalLoop=1;jettySize=auto;html=1;exitX=0.5;exitY=1;exitDx=0;exitDy=0;entryX=0.5;entryY=0;entryDx=0;entryDy=0;" parent="2b4e8129b02d487f-4" source="kmouRNJiQMqvB9NYq39l-6" target="wPVQGBUB4z8hFI1XciTC-4" edge="1">
          <mxGeometry relative="1" as="geometry" />
        </mxCell>
        <mxCell id="kmouRNJiQMqvB9NYq39l-6" value="두 비밀번호&lt;br&gt;일치 여부" style="rhombus;whiteSpace=wrap;html=1;" parent="2b4e8129b02d487f-4" vertex="1">
          <mxGeometry x="2090" y="242" width="80" height="80" as="geometry" />
        </mxCell>
        <mxCell id="kmouRNJiQMqvB9NYq39l-15" value="Yes" style="text;html=1;strokeColor=none;fillColor=none;align=center;verticalAlign=middle;whiteSpace=wrap;rounded=0;" parent="2b4e8129b02d487f-4" vertex="1">
          <mxGeometry x="2120" y="83" width="60" height="30" as="geometry" />
        </mxCell>
        <mxCell id="kmouRNJiQMqvB9NYq39l-16" value="No" style="text;html=1;strokeColor=none;fillColor=none;align=center;verticalAlign=middle;whiteSpace=wrap;rounded=0;" parent="2b4e8129b02d487f-4" vertex="1">
          <mxGeometry x="2050" y="23" width="60" height="30" as="geometry" />
        </mxCell>
        <mxCell id="kmouRNJiQMqvB9NYq39l-17" value="만족" style="text;html=1;strokeColor=none;fillColor=none;align=center;verticalAlign=middle;whiteSpace=wrap;rounded=0;" parent="2b4e8129b02d487f-4" vertex="1">
          <mxGeometry x="2120" y="208" width="60" height="30" as="geometry" />
        </mxCell>
        <mxCell id="kmouRNJiQMqvB9NYq39l-18" value="불만족" style="text;html=1;strokeColor=none;fillColor=none;align=center;verticalAlign=middle;whiteSpace=wrap;rounded=0;" parent="2b4e8129b02d487f-4" vertex="1">
          <mxGeometry x="2040" y="165" width="60" height="30" as="geometry" />
        </mxCell>
        <mxCell id="kmouRNJiQMqvB9NYq39l-19" value="일치" style="text;html=1;strokeColor=none;fillColor=none;align=center;verticalAlign=middle;whiteSpace=wrap;rounded=0;" parent="2b4e8129b02d487f-4" vertex="1">
          <mxGeometry x="2120" y="318" width="60" height="30" as="geometry" />
        </mxCell>
        <mxCell id="kmouRNJiQMqvB9NYq39l-20" value="불일치" style="text;html=1;strokeColor=none;fillColor=none;align=center;verticalAlign=middle;whiteSpace=wrap;rounded=0;" parent="2b4e8129b02d487f-4" vertex="1">
          <mxGeometry x="2040" y="255" width="60" height="30" as="geometry" />
        </mxCell>
        <mxCell id="kmouRNJiQMqvB9NYq39l-24" value="" style="edgeStyle=orthogonalEdgeStyle;rounded=0;orthogonalLoop=1;jettySize=auto;html=1;" parent="2b4e8129b02d487f-4" source="kmouRNJiQMqvB9NYq39l-21" target="kmouRNJiQMqvB9NYq39l-23" edge="1">
          <mxGeometry relative="1" as="geometry" />
        </mxCell>
        <mxCell id="kmouRNJiQMqvB9NYq39l-21" value="이미지 다운로드 완료 메시지 json 발신" style="whiteSpace=wrap;html=1;rounded=0;" parent="2b4e8129b02d487f-4" vertex="1">
          <mxGeometry x="4520" y="288" width="120" height="60" as="geometry" />
        </mxCell>
        <mxCell id="kmouRNJiQMqvB9NYq39l-23" value="이미지 다운로드 완료 json 수신 완료" style="whiteSpace=wrap;html=1;rounded=0;" parent="2b4e8129b02d487f-4" vertex="1">
          <mxGeometry x="4520" y="182" width="120" height="60" as="geometry" />
        </mxCell>
        <mxCell id="IvK_GI7LC3h44RhGKrcl-359" value="" style="edgeStyle=orthogonalEdgeStyle;rounded=0;orthogonalLoop=1;jettySize=auto;html=1;" parent="2b4e8129b02d487f-4" source="IvK_GI7LC3h44RhGKrcl-357" target="wPVQGBUB4z8hFI1XciTC-126" edge="1">
          <mxGeometry relative="1" as="geometry" />
        </mxCell>
        <mxCell id="IvK_GI7LC3h44RhGKrcl-357" value="번호판 값 백엔드(Nodejs)로 전송" style="whiteSpace=wrap;html=1;rounded=0;" parent="2b4e8129b02d487f-4" vertex="1">
          <mxGeometry x="5102" y="182" width="120" height="60" as="geometry" />
        </mxCell>
        <mxCell id="VpIsl_ptoI0kqu_PUw9b-35" value="Server" style="swimlane;html=1;startSize=20;horizontal=0;fontSize=12;" parent="2b4e8129b02d487f-1" vertex="1">
          <mxGeometry y="2145" width="5800" height="150" as="geometry" />
        </mxCell>
        <mxCell id="VpIsl_ptoI0kqu_PUw9b-49" value="login html 전송" style="rounded=0;whiteSpace=wrap;html=1;" parent="VpIsl_ptoI0kqu_PUw9b-35" vertex="1">
          <mxGeometry x="240" y="40" width="120" height="60" as="geometry" />
        </mxCell>
        <mxCell id="VpIsl_ptoI0kqu_PUw9b-57" value="약관 동의 html 전송" style="rounded=0;whiteSpace=wrap;html=1;" parent="VpIsl_ptoI0kqu_PUw9b-35" vertex="1">
          <mxGeometry x="580" y="40" width="120" height="60" as="geometry" />
        </mxCell>
        <mxCell id="VpIsl_ptoI0kqu_PUw9b-78" value="개인 정보 입력 html&lt;br&gt;전송" style="whiteSpace=wrap;html=1;" parent="VpIsl_ptoI0kqu_PUw9b-35" vertex="1">
          <mxGeometry x="1053" y="40" width="120" height="60" as="geometry" />
        </mxCell>
        <mxCell id="wPVQGBUB4z8hFI1XciTC-7" value="user table" style="shape=datastore;whiteSpace=wrap;html=1;" parent="VpIsl_ptoI0kqu_PUw9b-35" vertex="1">
          <mxGeometry x="2100" y="18" width="60" height="60" as="geometry" />
        </mxCell>
        <mxCell id="wPVQGBUB4z8hFI1XciTC-67" value="메인 페이지 html 전송" style="whiteSpace=wrap;html=1;rounded=0;" parent="VpIsl_ptoI0kqu_PUw9b-35" vertex="1">
          <mxGeometry x="2540" y="40" width="120" height="60" as="geometry" />
        </mxCell>
        <mxCell id="wPVQGBUB4z8hFI1XciTC-89" value="차량 번호판 이미지&lt;br&gt;판독 html 전송" style="rounded=0;whiteSpace=wrap;html=1;" parent="VpIsl_ptoI0kqu_PUw9b-35" vertex="1">
          <mxGeometry x="3310" y="40" width="120" height="60" as="geometry" />
        </mxCell>
        <mxCell id="wPVQGBUB4z8hFI1XciTC-191" style="edgeStyle=orthogonalEdgeStyle;rounded=0;orthogonalLoop=1;jettySize=auto;html=1;exitX=1;exitY=0.5;exitDx=0;exitDy=0;entryX=0;entryY=0.5;entryDx=0;entryDy=0;" parent="VpIsl_ptoI0kqu_PUw9b-35" source="wPVQGBUB4z8hFI1XciTC-130" target="wPVQGBUB4z8hFI1XciTC-190" edge="1">
          <mxGeometry relative="1" as="geometry" />
        </mxCell>
        <mxCell id="wPVQGBUB4z8hFI1XciTC-130" value="car table" style="shape=datastore;whiteSpace=wrap;html=1;" parent="VpIsl_ptoI0kqu_PUw9b-35" vertex="1">
          <mxGeometry x="5292" y="36" width="60" height="60" as="geometry" />
        </mxCell>
        <mxCell id="wPVQGBUB4z8hFI1XciTC-190" value="결과값 반환" style="whiteSpace=wrap;html=1;" parent="VpIsl_ptoI0kqu_PUw9b-35" vertex="1">
          <mxGeometry x="5412" y="78" width="120" height="60" as="geometry" />
        </mxCell>
        <mxCell id="VpIsl_ptoI0kqu_PUw9b-58" style="edgeStyle=orthogonalEdgeStyle;rounded=0;orthogonalLoop=1;jettySize=auto;html=1;entryX=0.5;entryY=1;entryDx=0;entryDy=0;" parent="2b4e8129b02d487f-1" source="VpIsl_ptoI0kqu_PUw9b-57" target="VpIsl_ptoI0kqu_PUw9b-50" edge="1">
          <mxGeometry relative="1" as="geometry" />
        </mxCell>
        <mxCell id="VpIsl_ptoI0kqu_PUw9b-59" style="edgeStyle=orthogonalEdgeStyle;rounded=0;orthogonalLoop=1;jettySize=auto;html=1;exitX=0.5;exitY=0;exitDx=0;exitDy=0;entryX=0.5;entryY=1;entryDx=0;entryDy=0;" parent="2b4e8129b02d487f-1" source="VpIsl_ptoI0kqu_PUw9b-49" target="VpIsl_ptoI0kqu_PUw9b-47" edge="1">
          <mxGeometry relative="1" as="geometry" />
        </mxCell>
        <mxCell id="VpIsl_ptoI0kqu_PUw9b-68" style="edgeStyle=orthogonalEdgeStyle;rounded=0;orthogonalLoop=1;jettySize=auto;html=1;entryX=0.5;entryY=0;entryDx=0;entryDy=0;" parent="2b4e8129b02d487f-1" source="VpIsl_ptoI0kqu_PUw9b-66" target="VpIsl_ptoI0kqu_PUw9b-62" edge="1">
          <mxGeometry relative="1" as="geometry" />
        </mxCell>
        <mxCell id="VpIsl_ptoI0kqu_PUw9b-75" style="edgeStyle=orthogonalEdgeStyle;rounded=0;orthogonalLoop=1;jettySize=auto;html=1;entryX=0.75;entryY=1;entryDx=0;entryDy=0;" parent="2b4e8129b02d487f-1" source="VpIsl_ptoI0kqu_PUw9b-73" target="VpIsl_ptoI0kqu_PUw9b-50" edge="1">
          <mxGeometry relative="1" as="geometry" />
        </mxCell>
        <mxCell id="VpIsl_ptoI0kqu_PUw9b-79" value="" style="edgeStyle=orthogonalEdgeStyle;rounded=0;orthogonalLoop=1;jettySize=auto;html=1;" parent="2b4e8129b02d487f-1" source="VpIsl_ptoI0kqu_PUw9b-64" target="VpIsl_ptoI0kqu_PUw9b-78" edge="1">
          <mxGeometry relative="1" as="geometry" />
        </mxCell>
        <mxCell id="VpIsl_ptoI0kqu_PUw9b-81" value="" style="edgeStyle=orthogonalEdgeStyle;rounded=0;orthogonalLoop=1;jettySize=auto;html=1;" parent="2b4e8129b02d487f-1" source="VpIsl_ptoI0kqu_PUw9b-78" target="VpIsl_ptoI0kqu_PUw9b-80" edge="1">
          <mxGeometry relative="1" as="geometry" />
        </mxCell>
        <mxCell id="VpIsl_ptoI0kqu_PUw9b-91" style="edgeStyle=orthogonalEdgeStyle;rounded=0;orthogonalLoop=1;jettySize=auto;html=1;exitX=1;exitY=0.5;exitDx=0;exitDy=0;entryX=0.5;entryY=0;entryDx=0;entryDy=0;" parent="2b4e8129b02d487f-1" source="VpIsl_ptoI0kqu_PUw9b-82" target="VpIsl_ptoI0kqu_PUw9b-86" edge="1">
          <mxGeometry relative="1" as="geometry" />
        </mxCell>
        <mxCell id="VpIsl_ptoI0kqu_PUw9b-92" style="edgeStyle=orthogonalEdgeStyle;rounded=0;orthogonalLoop=1;jettySize=auto;html=1;entryX=0.75;entryY=1;entryDx=0;entryDy=0;" parent="2b4e8129b02d487f-1" source="VpIsl_ptoI0kqu_PUw9b-88" target="VpIsl_ptoI0kqu_PUw9b-80" edge="1">
          <mxGeometry relative="1" as="geometry" />
        </mxCell>
        <mxCell id="VpIsl_ptoI0kqu_PUw9b-106" style="edgeStyle=orthogonalEdgeStyle;rounded=0;orthogonalLoop=1;jettySize=auto;html=1;exitX=0;exitY=0.5;exitDx=0;exitDy=0;entryX=0.75;entryY=1;entryDx=0;entryDy=0;" parent="2b4e8129b02d487f-1" source="VpIsl_ptoI0kqu_PUw9b-103" target="VpIsl_ptoI0kqu_PUw9b-47" edge="1">
          <mxGeometry relative="1" as="geometry" />
        </mxCell>
        <mxCell id="wPVQGBUB4z8hFI1XciTC-10" style="edgeStyle=orthogonalEdgeStyle;rounded=0;orthogonalLoop=1;jettySize=auto;html=1;" parent="2b4e8129b02d487f-1" source="wPVQGBUB4z8hFI1XciTC-8" target="wPVQGBUB4z8hFI1XciTC-7" edge="1">
          <mxGeometry relative="1" as="geometry" />
        </mxCell>
        <mxCell id="wPVQGBUB4z8hFI1XciTC-17" style="edgeStyle=orthogonalEdgeStyle;rounded=0;orthogonalLoop=1;jettySize=auto;html=1;exitX=0;exitY=0.5;exitDx=0;exitDy=0;entryX=0.5;entryY=1;entryDx=0;entryDy=0;" parent="2b4e8129b02d487f-1" source="wPVQGBUB4z8hFI1XciTC-7" target="wPVQGBUB4z8hFI1XciTC-16" edge="1">
          <mxGeometry relative="1" as="geometry" />
        </mxCell>
        <mxCell id="wPVQGBUB4z8hFI1XciTC-23" style="edgeStyle=orthogonalEdgeStyle;rounded=0;orthogonalLoop=1;jettySize=auto;html=1;entryX=0.5;entryY=1;entryDx=0;entryDy=0;" parent="2b4e8129b02d487f-1" source="wPVQGBUB4z8hFI1XciTC-21" target="VpIsl_ptoI0kqu_PUw9b-103" edge="1">
          <mxGeometry relative="1" as="geometry">
            <Array as="points">
              <mxPoint x="1680" y="1020" />
            </Array>
          </mxGeometry>
        </mxCell>
        <mxCell id="wPVQGBUB4z8hFI1XciTC-32" style="edgeStyle=orthogonalEdgeStyle;rounded=0;orthogonalLoop=1;jettySize=auto;html=1;exitX=0.85;exitY=0.95;exitDx=0;exitDy=0;exitPerimeter=0;entryX=0.5;entryY=1;entryDx=0;entryDy=0;" parent="2b4e8129b02d487f-1" source="wPVQGBUB4z8hFI1XciTC-7" target="wPVQGBUB4z8hFI1XciTC-31" edge="1">
          <mxGeometry relative="1" as="geometry" />
        </mxCell>
        <mxCell id="wPVQGBUB4z8hFI1XciTC-34" value="" style="edgeStyle=orthogonalEdgeStyle;rounded=0;orthogonalLoop=1;jettySize=auto;html=1;" parent="2b4e8129b02d487f-1" source="wPVQGBUB4z8hFI1XciTC-31" target="wPVQGBUB4z8hFI1XciTC-33" edge="1">
          <mxGeometry relative="1" as="geometry" />
        </mxCell>
        <mxCell id="wPVQGBUB4z8hFI1XciTC-49" value="" style="edgeStyle=orthogonalEdgeStyle;rounded=0;orthogonalLoop=1;jettySize=auto;html=1;" parent="2b4e8129b02d487f-1" source="wPVQGBUB4z8hFI1XciTC-46" target="wPVQGBUB4z8hFI1XciTC-48" edge="1">
          <mxGeometry relative="1" as="geometry">
            <Array as="points">
              <mxPoint x="520" y="1020" />
            </Array>
          </mxGeometry>
        </mxCell>
        <mxCell id="wPVQGBUB4z8hFI1XciTC-52" style="edgeStyle=orthogonalEdgeStyle;rounded=0;orthogonalLoop=1;jettySize=auto;html=1;exitX=0.5;exitY=1;exitDx=0;exitDy=0;entryX=0;entryY=0.7;entryDx=0;entryDy=0;" parent="2b4e8129b02d487f-1" source="wPVQGBUB4z8hFI1XciTC-27" target="wPVQGBUB4z8hFI1XciTC-7" edge="1">
          <mxGeometry relative="1" as="geometry" />
        </mxCell>
        <mxCell id="wPVQGBUB4z8hFI1XciTC-55" style="edgeStyle=orthogonalEdgeStyle;rounded=0;orthogonalLoop=1;jettySize=auto;html=1;entryX=0.15;entryY=0.95;entryDx=0;entryDy=0;entryPerimeter=0;" parent="2b4e8129b02d487f-1" source="wPVQGBUB4z8hFI1XciTC-53" target="wPVQGBUB4z8hFI1XciTC-7" edge="1">
          <mxGeometry relative="1" as="geometry">
            <Array as="points">
              <mxPoint x="1620" y="2250" />
              <mxPoint x="2109" y="2250" />
            </Array>
          </mxGeometry>
        </mxCell>
        <mxCell id="wPVQGBUB4z8hFI1XciTC-65" style="edgeStyle=orthogonalEdgeStyle;rounded=0;orthogonalLoop=1;jettySize=auto;html=1;exitX=0.5;exitY=1;exitDx=0;exitDy=0;entryX=0.5;entryY=1;entryDx=0;entryDy=0;" parent="2b4e8129b02d487f-1" source="wPVQGBUB4z8hFI1XciTC-7" target="wPVQGBUB4z8hFI1XciTC-63" edge="1">
          <mxGeometry relative="1" as="geometry" />
        </mxCell>
        <mxCell id="wPVQGBUB4z8hFI1XciTC-68" value="" style="edgeStyle=orthogonalEdgeStyle;rounded=0;orthogonalLoop=1;jettySize=auto;html=1;" parent="2b4e8129b02d487f-1" source="wPVQGBUB4z8hFI1XciTC-64" target="wPVQGBUB4z8hFI1XciTC-67" edge="1">
          <mxGeometry relative="1" as="geometry" />
        </mxCell>
        <mxCell id="wPVQGBUB4z8hFI1XciTC-70" value="" style="edgeStyle=orthogonalEdgeStyle;rounded=0;orthogonalLoop=1;jettySize=auto;html=1;" parent="2b4e8129b02d487f-1" source="wPVQGBUB4z8hFI1XciTC-67" target="wPVQGBUB4z8hFI1XciTC-69" edge="1">
          <mxGeometry relative="1" as="geometry">
            <Array as="points">
              <mxPoint x="2620" y="276" />
            </Array>
          </mxGeometry>
        </mxCell>
        <mxCell id="wPVQGBUB4z8hFI1XciTC-73" value="" style="edgeStyle=orthogonalEdgeStyle;rounded=0;orthogonalLoop=1;jettySize=auto;html=1;" parent="2b4e8129b02d487f-1" source="wPVQGBUB4z8hFI1XciTC-64" target="wPVQGBUB4z8hFI1XciTC-72" edge="1">
          <mxGeometry relative="1" as="geometry" />
        </mxCell>
        <mxCell id="wPVQGBUB4z8hFI1XciTC-74" style="edgeStyle=orthogonalEdgeStyle;rounded=0;orthogonalLoop=1;jettySize=auto;html=1;entryX=0.25;entryY=0;entryDx=0;entryDy=0;" parent="2b4e8129b02d487f-1" source="wPVQGBUB4z8hFI1XciTC-72" target="VpIsl_ptoI0kqu_PUw9b-53" edge="1">
          <mxGeometry relative="1" as="geometry">
            <Array as="points">
              <mxPoint x="2470" y="60" />
              <mxPoint x="610" y="60" />
            </Array>
          </mxGeometry>
        </mxCell>
        <mxCell id="wPVQGBUB4z8hFI1XciTC-92" style="edgeStyle=orthogonalEdgeStyle;rounded=0;orthogonalLoop=1;jettySize=auto;html=1;exitX=0.5;exitY=0;exitDx=0;exitDy=0;entryX=0.5;entryY=1;entryDx=0;entryDy=0;" parent="2b4e8129b02d487f-1" source="wPVQGBUB4z8hFI1XciTC-89" target="wPVQGBUB4z8hFI1XciTC-87" edge="1">
          <mxGeometry relative="1" as="geometry" />
        </mxCell>
        <mxCell id="wPVQGBUB4z8hFI1XciTC-103" style="edgeStyle=orthogonalEdgeStyle;rounded=0;orthogonalLoop=1;jettySize=auto;html=1;entryX=0.5;entryY=0;entryDx=0;entryDy=0;" parent="2b4e8129b02d487f-1" source="wPVQGBUB4z8hFI1XciTC-101" target="wPVQGBUB4z8hFI1XciTC-87" edge="1">
          <mxGeometry relative="1" as="geometry">
            <Array as="points">
              <mxPoint x="3730" y="80" />
              <mxPoint x="3370" y="80" />
            </Array>
          </mxGeometry>
        </mxCell>
        <mxCell id="wPVQGBUB4z8hFI1XciTC-118" value="" style="edgeStyle=orthogonalEdgeStyle;rounded=0;orthogonalLoop=1;jettySize=auto;html=1;" parent="2b4e8129b02d487f-1" source="wPVQGBUB4z8hFI1XciTC-95" target="wPVQGBUB4z8hFI1XciTC-117" edge="1">
          <mxGeometry relative="1" as="geometry" />
        </mxCell>
        <mxCell id="wPVQGBUB4z8hFI1XciTC-131" style="edgeStyle=orthogonalEdgeStyle;rounded=0;orthogonalLoop=1;jettySize=auto;html=1;entryX=0.5;entryY=0;entryDx=0;entryDy=0;" parent="2b4e8129b02d487f-1" source="wPVQGBUB4z8hFI1XciTC-128" target="wPVQGBUB4z8hFI1XciTC-130" edge="1">
          <mxGeometry relative="1" as="geometry" />
        </mxCell>
        <mxCell id="wPVQGBUB4z8hFI1XciTC-137" style="edgeStyle=orthogonalEdgeStyle;rounded=0;orthogonalLoop=1;jettySize=auto;html=1;exitX=0.85;exitY=0.05;exitDx=0;exitDy=0;exitPerimeter=0;" parent="2b4e8129b02d487f-1" source="wPVQGBUB4z8hFI1XciTC-130" target="wPVQGBUB4z8hFI1XciTC-133" edge="1">
          <mxGeometry relative="1" as="geometry">
            <Array as="points">
              <mxPoint x="5343" y="1960" />
              <mxPoint x="5482" y="1960" />
            </Array>
          </mxGeometry>
        </mxCell>
        <mxCell id="wPVQGBUB4z8hFI1XciTC-144" style="edgeStyle=orthogonalEdgeStyle;rounded=0;orthogonalLoop=1;jettySize=auto;html=1;entryX=0.5;entryY=1;entryDx=0;entryDy=0;" parent="2b4e8129b02d487f-1" source="wPVQGBUB4z8hFI1XciTC-142" target="wPVQGBUB4z8hFI1XciTC-140" edge="1">
          <mxGeometry relative="1" as="geometry">
            <Array as="points">
              <mxPoint x="5482" y="1520" />
              <mxPoint x="4681" y="1520" />
            </Array>
          </mxGeometry>
        </mxCell>
        <mxCell id="wPVQGBUB4z8hFI1XciTC-147" style="edgeStyle=orthogonalEdgeStyle;rounded=0;orthogonalLoop=1;jettySize=auto;html=1;entryX=0.25;entryY=1;entryDx=0;entryDy=0;" parent="2b4e8129b02d487f-1" source="wPVQGBUB4z8hFI1XciTC-138" target="wPVQGBUB4z8hFI1XciTC-145" edge="1">
          <mxGeometry relative="1" as="geometry" />
        </mxCell>
        <mxCell id="wPVQGBUB4z8hFI1XciTC-163" style="edgeStyle=orthogonalEdgeStyle;rounded=0;orthogonalLoop=1;jettySize=auto;html=1;entryX=0.5;entryY=0;entryDx=0;entryDy=0;" parent="2b4e8129b02d487f-1" source="wPVQGBUB4z8hFI1XciTC-161" target="wPVQGBUB4z8hFI1XciTC-185" edge="1">
          <mxGeometry relative="1" as="geometry" />
        </mxCell>
        <mxCell id="wPVQGBUB4z8hFI1XciTC-179" style="edgeStyle=orthogonalEdgeStyle;rounded=0;orthogonalLoop=1;jettySize=auto;html=1;exitX=0;exitY=0.5;exitDx=0;exitDy=0;entryX=0.5;entryY=1;entryDx=0;entryDy=0;" parent="2b4e8129b02d487f-1" source="wPVQGBUB4z8hFI1XciTC-135" target="wPVQGBUB4z8hFI1XciTC-138" edge="1">
          <mxGeometry relative="1" as="geometry" />
        </mxCell>
        <mxCell id="wPVQGBUB4z8hFI1XciTC-181" style="edgeStyle=orthogonalEdgeStyle;rounded=0;orthogonalLoop=1;jettySize=auto;html=1;exitX=0.5;exitY=0;exitDx=0;exitDy=0;entryX=0.5;entryY=0;entryDx=0;entryDy=0;" parent="2b4e8129b02d487f-1" source="wPVQGBUB4z8hFI1XciTC-33" target="VpIsl_ptoI0kqu_PUw9b-47" edge="1">
          <mxGeometry relative="1" as="geometry">
            <Array as="points">
              <mxPoint x="2340" y="50" />
              <mxPoint x="300" y="50" />
            </Array>
          </mxGeometry>
        </mxCell>
        <mxCell id="wPVQGBUB4z8hFI1XciTC-189" style="edgeStyle=orthogonalEdgeStyle;rounded=0;orthogonalLoop=1;jettySize=auto;html=1;exitX=0.5;exitY=1;exitDx=0;exitDy=0;entryX=1;entryY=0.3;entryDx=0;entryDy=0;" parent="2b4e8129b02d487f-1" source="wPVQGBUB4z8hFI1XciTC-186" target="wPVQGBUB4z8hFI1XciTC-130" edge="1">
          <mxGeometry relative="1" as="geometry" />
        </mxCell>
        <mxCell id="wPVQGBUB4z8hFI1XciTC-192" style="edgeStyle=orthogonalEdgeStyle;rounded=0;orthogonalLoop=1;jettySize=auto;html=1;exitX=1;exitY=0.5;exitDx=0;exitDy=0;entryX=1;entryY=0.5;entryDx=0;entryDy=0;" parent="2b4e8129b02d487f-1" source="wPVQGBUB4z8hFI1XciTC-190" target="wPVQGBUB4z8hFI1XciTC-135" edge="1">
          <mxGeometry relative="1" as="geometry" />
        </mxCell>
        <mxCell id="18PfIUPdo-HqKEG1NgYA-25" style="edgeStyle=orthogonalEdgeStyle;rounded=0;orthogonalLoop=1;jettySize=auto;html=1;exitX=0;exitY=0.5;exitDx=0;exitDy=0;entryX=0.75;entryY=1;entryDx=0;entryDy=0;" parent="2b4e8129b02d487f-1" source="VpIsl_ptoI0kqu_PUw9b-97" target="VpIsl_ptoI0kqu_PUw9b-80" edge="1">
          <mxGeometry relative="1" as="geometry" />
        </mxCell>
        <mxCell id="18PfIUPdo-HqKEG1NgYA-26" style="edgeStyle=orthogonalEdgeStyle;rounded=0;orthogonalLoop=1;jettySize=auto;html=1;exitX=0.5;exitY=1;exitDx=0;exitDy=0;entryX=0.75;entryY=1;entryDx=0;entryDy=0;" parent="2b4e8129b02d487f-1" source="wPVQGBUB4z8hFI1XciTC-199" target="VpIsl_ptoI0kqu_PUw9b-80" edge="1">
          <mxGeometry relative="1" as="geometry">
            <Array as="points">
              <mxPoint x="1850" y="940" />
              <mxPoint x="1350" y="940" />
            </Array>
          </mxGeometry>
        </mxCell>
        <mxCell id="kmouRNJiQMqvB9NYq39l-7" style="edgeStyle=orthogonalEdgeStyle;rounded=0;orthogonalLoop=1;jettySize=auto;html=1;exitX=0.75;exitY=0;exitDx=0;exitDy=0;" parent="2b4e8129b02d487f-1" source="VpIsl_ptoI0kqu_PUw9b-111" target="kmouRNJiQMqvB9NYq39l-4" edge="1">
          <mxGeometry relative="1" as="geometry">
            <Array as="points">
              <mxPoint x="2180" y="765" />
              <mxPoint x="2260" y="765" />
              <mxPoint x="2260" y="1284" />
              <mxPoint x="2130" y="1284" />
            </Array>
          </mxGeometry>
        </mxCell>
        <mxCell id="kmouRNJiQMqvB9NYq39l-12" style="edgeStyle=orthogonalEdgeStyle;rounded=0;orthogonalLoop=1;jettySize=auto;html=1;exitX=0;exitY=0.5;exitDx=0;exitDy=0;entryX=0.5;entryY=1;entryDx=0;entryDy=0;" parent="2b4e8129b02d487f-1" source="kmouRNJiQMqvB9NYq39l-4" target="VpIsl_ptoI0kqu_PUw9b-88" edge="1">
          <mxGeometry relative="1" as="geometry" />
        </mxCell>
        <mxCell id="kmouRNJiQMqvB9NYq39l-13" style="edgeStyle=orthogonalEdgeStyle;rounded=0;orthogonalLoop=1;jettySize=auto;html=1;exitX=0;exitY=0.5;exitDx=0;exitDy=0;entryX=1;entryY=0.75;entryDx=0;entryDy=0;" parent="2b4e8129b02d487f-1" source="kmouRNJiQMqvB9NYq39l-5" target="VpIsl_ptoI0kqu_PUw9b-97" edge="1">
          <mxGeometry relative="1" as="geometry">
            <Array as="points">
              <mxPoint x="2070" y="1707" />
              <mxPoint x="2070" y="1090" />
              <mxPoint x="2010" y="1090" />
              <mxPoint x="2010" y="980" />
              <mxPoint x="1770" y="980" />
              <mxPoint x="1770" y="810" />
            </Array>
          </mxGeometry>
        </mxCell>
        <mxCell id="kmouRNJiQMqvB9NYq39l-14" style="edgeStyle=orthogonalEdgeStyle;rounded=0;orthogonalLoop=1;jettySize=auto;html=1;exitX=0;exitY=0.5;exitDx=0;exitDy=0;entryX=0.75;entryY=1;entryDx=0;entryDy=0;" parent="2b4e8129b02d487f-1" source="kmouRNJiQMqvB9NYq39l-6" target="wPVQGBUB4z8hFI1XciTC-199" edge="1">
          <mxGeometry relative="1" as="geometry">
            <Array as="points">
              <mxPoint x="2030" y="1821" />
              <mxPoint x="2030" y="910" />
              <mxPoint x="1880" y="910" />
            </Array>
          </mxGeometry>
        </mxCell>
        <mxCell id="kmouRNJiQMqvB9NYq39l-31" value="" style="edgeStyle=orthogonalEdgeStyle;rounded=0;orthogonalLoop=1;jettySize=auto;html=1;" parent="2b4e8129b02d487f-1" source="kmouRNJiQMqvB9NYq39l-27" target="wPVQGBUB4z8hFI1XciTC-161" edge="1">
          <mxGeometry relative="1" as="geometry" />
        </mxCell>
        <mxCell id="kmouRNJiQMqvB9NYq39l-34" value="" style="edgeStyle=orthogonalEdgeStyle;rounded=0;orthogonalLoop=1;jettySize=auto;html=1;" parent="2b4e8129b02d487f-1" source="kmouRNJiQMqvB9NYq39l-23" target="kmouRNJiQMqvB9NYq39l-33" edge="1">
          <mxGeometry relative="1" as="geometry">
            <Array as="points">
              <mxPoint x="4580" y="990" />
              <mxPoint x="3870" y="990" />
            </Array>
          </mxGeometry>
        </mxCell>
        <mxCell id="kmouRNJiQMqvB9NYq39l-97" style="edgeStyle=orthogonalEdgeStyle;rounded=0;orthogonalLoop=1;jettySize=auto;html=1;exitX=0.5;exitY=0;exitDx=0;exitDy=0;entryX=0.5;entryY=1;entryDx=0;entryDy=0;" parent="2b4e8129b02d487f-1" source="kmouRNJiQMqvB9NYq39l-33" target="kmouRNJiQMqvB9NYq39l-38" edge="1">
          <mxGeometry relative="1" as="geometry" />
        </mxCell>
        <mxCell id="kmouRNJiQMqvB9NYq39l-99" style="edgeStyle=orthogonalEdgeStyle;rounded=0;orthogonalLoop=1;jettySize=auto;html=1;exitX=1;exitY=0.5;exitDx=0;exitDy=0;entryX=0.5;entryY=0;entryDx=0;entryDy=0;" parent="2b4e8129b02d487f-1" source="kmouRNJiQMqvB9NYq39l-38" target="wPVQGBUB4z8hFI1XciTC-164" edge="1">
          <mxGeometry relative="1" as="geometry">
            <Array as="points">
              <mxPoint x="4110" y="406" />
              <mxPoint x="4110" y="970" />
              <mxPoint x="4520" y="970" />
              <mxPoint x="4520" y="1530" />
              <mxPoint x="4700" y="1530" />
            </Array>
          </mxGeometry>
        </mxCell>
        <mxCell id="kmouRNJiQMqvB9NYq39l-102" style="edgeStyle=orthogonalEdgeStyle;rounded=0;orthogonalLoop=1;jettySize=auto;html=1;exitX=0.5;exitY=0;exitDx=0;exitDy=0;" parent="2b4e8129b02d487f-1" source="kmouRNJiQMqvB9NYq39l-68" target="kmouRNJiQMqvB9NYq39l-100" edge="1">
          <mxGeometry relative="1" as="geometry" />
        </mxCell>
        <mxCell id="kmouRNJiQMqvB9NYq39l-104" style="edgeStyle=orthogonalEdgeStyle;rounded=0;orthogonalLoop=1;jettySize=auto;html=1;exitX=1;exitY=0.5;exitDx=0;exitDy=0;entryX=1;entryY=0.5;entryDx=0;entryDy=0;" parent="2b4e8129b02d487f-1" source="kmouRNJiQMqvB9NYq39l-56" target="kmouRNJiQMqvB9NYq39l-101" edge="1">
          <mxGeometry relative="1" as="geometry" />
        </mxCell>
        <mxCell id="kmouRNJiQMqvB9NYq39l-106" style="edgeStyle=orthogonalEdgeStyle;rounded=0;orthogonalLoop=1;jettySize=auto;html=1;exitX=1;exitY=0.5;exitDx=0;exitDy=0;entryX=1;entryY=0.5;entryDx=0;entryDy=0;" parent="2b4e8129b02d487f-1" source="kmouRNJiQMqvB9NYq39l-58" target="kmouRNJiQMqvB9NYq39l-101" edge="1">
          <mxGeometry relative="1" as="geometry" />
        </mxCell>
        <mxCell id="kmouRNJiQMqvB9NYq39l-107" style="edgeStyle=orthogonalEdgeStyle;rounded=0;orthogonalLoop=1;jettySize=auto;html=1;exitX=1;exitY=0.5;exitDx=0;exitDy=0;entryX=1;entryY=0.5;entryDx=0;entryDy=0;" parent="2b4e8129b02d487f-1" source="kmouRNJiQMqvB9NYq39l-60" target="kmouRNJiQMqvB9NYq39l-101" edge="1">
          <mxGeometry relative="1" as="geometry" />
        </mxCell>
        <mxCell id="kmouRNJiQMqvB9NYq39l-109" style="edgeStyle=orthogonalEdgeStyle;rounded=0;orthogonalLoop=1;jettySize=auto;html=1;exitX=1;exitY=0.5;exitDx=0;exitDy=0;entryX=1;entryY=0.5;entryDx=0;entryDy=0;" parent="2b4e8129b02d487f-1" source="kmouRNJiQMqvB9NYq39l-62" target="kmouRNJiQMqvB9NYq39l-101" edge="1">
          <mxGeometry relative="1" as="geometry" />
        </mxCell>
        <mxCell id="kmouRNJiQMqvB9NYq39l-110" style="edgeStyle=orthogonalEdgeStyle;rounded=0;orthogonalLoop=1;jettySize=auto;html=1;exitX=1;exitY=0.5;exitDx=0;exitDy=0;entryX=1;entryY=0.5;entryDx=0;entryDy=0;" parent="2b4e8129b02d487f-1" source="kmouRNJiQMqvB9NYq39l-64" target="kmouRNJiQMqvB9NYq39l-101" edge="1">
          <mxGeometry relative="1" as="geometry" />
        </mxCell>
        <mxCell id="kmouRNJiQMqvB9NYq39l-112" style="edgeStyle=orthogonalEdgeStyle;rounded=0;orthogonalLoop=1;jettySize=auto;html=1;exitX=1;exitY=0.5;exitDx=0;exitDy=0;entryX=1;entryY=0.5;entryDx=0;entryDy=0;" parent="2b4e8129b02d487f-1" source="kmouRNJiQMqvB9NYq39l-66" target="kmouRNJiQMqvB9NYq39l-101" edge="1">
          <mxGeometry relative="1" as="geometry" />
        </mxCell>
        <mxCell id="kmouRNJiQMqvB9NYq39l-114" style="edgeStyle=orthogonalEdgeStyle;rounded=0;orthogonalLoop=1;jettySize=auto;html=1;exitX=1;exitY=0.5;exitDx=0;exitDy=0;entryX=1;entryY=0.5;entryDx=0;entryDy=0;" parent="2b4e8129b02d487f-1" source="kmouRNJiQMqvB9NYq39l-70" target="kmouRNJiQMqvB9NYq39l-101" edge="1">
          <mxGeometry relative="1" as="geometry" />
        </mxCell>
        <mxCell id="kmouRNJiQMqvB9NYq39l-126" style="edgeStyle=orthogonalEdgeStyle;rounded=0;orthogonalLoop=1;jettySize=auto;html=1;exitX=1;exitY=0.5;exitDx=0;exitDy=0;entryX=1;entryY=0.5;entryDx=0;entryDy=0;" parent="2b4e8129b02d487f-1" source="kmouRNJiQMqvB9NYq39l-122" target="kmouRNJiQMqvB9NYq39l-101" edge="1">
          <mxGeometry relative="1" as="geometry" />
        </mxCell>
        <mxCell id="kmouRNJiQMqvB9NYq39l-188" style="edgeStyle=orthogonalEdgeStyle;rounded=0;orthogonalLoop=1;jettySize=auto;html=1;exitX=0.25;exitY=1;exitDx=0;exitDy=0;" parent="2b4e8129b02d487f-1" source="wPVQGBUB4z8hFI1XciTC-42" target="18PfIUPdo-HqKEG1NgYA-16" edge="1">
          <mxGeometry relative="1" as="geometry">
            <Array as="points">
              <mxPoint x="1230" y="430" />
              <mxPoint x="520" y="430" />
            </Array>
          </mxGeometry>
        </mxCell>
        <mxCell id="kmouRNJiQMqvB9NYq39l-190" value="" style="edgeStyle=orthogonalEdgeStyle;rounded=0;orthogonalLoop=1;jettySize=auto;html=1;" parent="2b4e8129b02d487f-1" source="kmouRNJiQMqvB9NYq39l-35" target="kmouRNJiQMqvB9NYq39l-189" edge="1">
          <mxGeometry relative="1" as="geometry" />
        </mxCell>
        <mxCell id="IvK_GI7LC3h44RhGKrcl-1" value="공지사항 등록" style="swimlane;html=1;childLayout=stackLayout;horizontal=1;startSize=20;horizontalStack=0;rounded=0;shadow=0;labelBackgroundColor=none;strokeWidth=1;fontFamily=Verdana;fontSize=8;align=center;" parent="1" vertex="1">
          <mxGeometry x="40" y="2434" width="3630" height="1851" as="geometry" />
        </mxCell>
        <mxCell id="IvK_GI7LC3h44RhGKrcl-2" value="User" style="swimlane;html=1;startSize=20;horizontal=0;" parent="IvK_GI7LC3h44RhGKrcl-1" vertex="1">
          <mxGeometry y="20" width="3630" height="500" as="geometry" />
        </mxCell>
        <mxCell id="IvK_GI7LC3h44RhGKrcl-92" style="edgeStyle=orthogonalEdgeStyle;rounded=0;orthogonalLoop=1;jettySize=auto;html=1;exitX=0.5;exitY=0;exitDx=0;exitDy=0;entryX=0.75;entryY=0;entryDx=0;entryDy=0;" parent="IvK_GI7LC3h44RhGKrcl-2" edge="1">
          <mxGeometry relative="1" as="geometry">
            <Array as="points">
              <mxPoint x="1118" y="10" />
              <mxPoint x="670" y="10" />
            </Array>
            <mxPoint x="670" y="131" as="targetPoint" />
          </mxGeometry>
        </mxCell>
        <mxCell id="IvK_GI7LC3h44RhGKrcl-363" value="" style="edgeStyle=orthogonalEdgeStyle;rounded=0;orthogonalLoop=1;jettySize=auto;html=1;" parent="IvK_GI7LC3h44RhGKrcl-2" source="IvK_GI7LC3h44RhGKrcl-361" target="IvK_GI7LC3h44RhGKrcl-362" edge="1">
          <mxGeometry relative="1" as="geometry" />
        </mxCell>
        <mxCell id="IvK_GI7LC3h44RhGKrcl-361" value="공지사항 게시판 접속" style="rounded=0;whiteSpace=wrap;html=1;" parent="IvK_GI7LC3h44RhGKrcl-2" vertex="1">
          <mxGeometry x="80" y="112" width="120" height="60" as="geometry" />
        </mxCell>
        <mxCell id="IvK_GI7LC3h44RhGKrcl-374" value="" style="edgeStyle=orthogonalEdgeStyle;rounded=0;orthogonalLoop=1;jettySize=auto;html=1;" parent="IvK_GI7LC3h44RhGKrcl-2" source="IvK_GI7LC3h44RhGKrcl-362" target="IvK_GI7LC3h44RhGKrcl-373" edge="1">
          <mxGeometry relative="1" as="geometry" />
        </mxCell>
        <mxCell id="IvK_GI7LC3h44RhGKrcl-362" value="공지사항 게시판" style="rounded=0;whiteSpace=wrap;html=1;" parent="IvK_GI7LC3h44RhGKrcl-2" vertex="1">
          <mxGeometry x="280" y="112" width="120" height="60" as="geometry" />
        </mxCell>
        <mxCell id="IvK_GI7LC3h44RhGKrcl-372" style="edgeStyle=orthogonalEdgeStyle;rounded=0;orthogonalLoop=1;jettySize=auto;html=1;entryX=0;entryY=0.5;entryDx=0;entryDy=0;exitX=0.5;exitY=1;exitDx=0;exitDy=0;" parent="IvK_GI7LC3h44RhGKrcl-2" source="IvK_GI7LC3h44RhGKrcl-365" target="IvK_GI7LC3h44RhGKrcl-371" edge="1">
          <mxGeometry relative="1" as="geometry" />
        </mxCell>
        <mxCell id="IvK_GI7LC3h44RhGKrcl-376" style="edgeStyle=orthogonalEdgeStyle;rounded=0;orthogonalLoop=1;jettySize=auto;html=1;exitX=0.5;exitY=0;exitDx=0;exitDy=0;entryX=0;entryY=0.5;entryDx=0;entryDy=0;" parent="IvK_GI7LC3h44RhGKrcl-2" source="IvK_GI7LC3h44RhGKrcl-365" target="IvK_GI7LC3h44RhGKrcl-367" edge="1">
          <mxGeometry relative="1" as="geometry" />
        </mxCell>
        <mxCell id="IvK_GI7LC3h44RhGKrcl-365" value="관리자&lt;br&gt;여부" style="rhombus;whiteSpace=wrap;html=1;rounded=0;" parent="IvK_GI7LC3h44RhGKrcl-2" vertex="1">
          <mxGeometry x="670" y="102" width="80" height="80" as="geometry" />
        </mxCell>
        <mxCell id="IvK_GI7LC3h44RhGKrcl-384" value="" style="edgeStyle=orthogonalEdgeStyle;rounded=0;orthogonalLoop=1;jettySize=auto;html=1;" parent="IvK_GI7LC3h44RhGKrcl-2" source="IvK_GI7LC3h44RhGKrcl-367" target="IvK_GI7LC3h44RhGKrcl-383" edge="1">
          <mxGeometry relative="1" as="geometry" />
        </mxCell>
        <mxCell id="IvK_GI7LC3h44RhGKrcl-367" value="&lt;font style=&quot;font-size: 11px;&quot;&gt;글쓰기/수정/삭제/읽기&lt;/font&gt;&lt;br&gt;권한 부여" style="whiteSpace=wrap;html=1;rounded=0;" parent="IvK_GI7LC3h44RhGKrcl-2" vertex="1">
          <mxGeometry x="790" y="35" width="120" height="60" as="geometry" />
        </mxCell>
        <mxCell id="IvK_GI7LC3h44RhGKrcl-385" style="edgeStyle=orthogonalEdgeStyle;rounded=0;orthogonalLoop=1;jettySize=auto;html=1;exitX=1;exitY=0.5;exitDx=0;exitDy=0;entryX=0.5;entryY=1;entryDx=0;entryDy=0;" parent="IvK_GI7LC3h44RhGKrcl-2" source="IvK_GI7LC3h44RhGKrcl-371" target="IvK_GI7LC3h44RhGKrcl-383" edge="1">
          <mxGeometry relative="1" as="geometry" />
        </mxCell>
        <mxCell id="IvK_GI7LC3h44RhGKrcl-371" value="읽기 권한 부여" style="whiteSpace=wrap;html=1;rounded=0;" parent="IvK_GI7LC3h44RhGKrcl-2" vertex="1">
          <mxGeometry x="790" y="175" width="120" height="60" as="geometry" />
        </mxCell>
        <mxCell id="IvK_GI7LC3h44RhGKrcl-375" value="" style="edgeStyle=orthogonalEdgeStyle;rounded=0;orthogonalLoop=1;jettySize=auto;html=1;" parent="IvK_GI7LC3h44RhGKrcl-2" source="IvK_GI7LC3h44RhGKrcl-373" target="IvK_GI7LC3h44RhGKrcl-365" edge="1">
          <mxGeometry relative="1" as="geometry" />
        </mxCell>
        <mxCell id="IvK_GI7LC3h44RhGKrcl-380" value="" style="edgeStyle=orthogonalEdgeStyle;rounded=0;orthogonalLoop=1;jettySize=auto;html=1;" parent="IvK_GI7LC3h44RhGKrcl-2" source="IvK_GI7LC3h44RhGKrcl-373" target="IvK_GI7LC3h44RhGKrcl-379" edge="1">
          <mxGeometry relative="1" as="geometry">
            <Array as="points">
              <mxPoint x="540" y="46" />
            </Array>
          </mxGeometry>
        </mxCell>
        <mxCell id="IvK_GI7LC3h44RhGKrcl-373" value="로그인 여부" style="rhombus;whiteSpace=wrap;html=1;rounded=0;" parent="IvK_GI7LC3h44RhGKrcl-2" vertex="1">
          <mxGeometry x="500" y="102" width="80" height="80" as="geometry" />
        </mxCell>
        <mxCell id="IvK_GI7LC3h44RhGKrcl-377" value="로그인 페이지로 이동" style="whiteSpace=wrap;html=1;rounded=0;" parent="IvK_GI7LC3h44RhGKrcl-2" vertex="1">
          <mxGeometry x="80" y="16" width="120" height="60" as="geometry" />
        </mxCell>
        <mxCell id="IvK_GI7LC3h44RhGKrcl-381" value="" style="edgeStyle=orthogonalEdgeStyle;rounded=0;orthogonalLoop=1;jettySize=auto;html=1;" parent="IvK_GI7LC3h44RhGKrcl-2" source="IvK_GI7LC3h44RhGKrcl-379" target="IvK_GI7LC3h44RhGKrcl-377" edge="1">
          <mxGeometry relative="1" as="geometry" />
        </mxCell>
        <mxCell id="IvK_GI7LC3h44RhGKrcl-379" value="로그인 필요하다고&lt;br&gt;알림" style="whiteSpace=wrap;html=1;rounded=0;" parent="IvK_GI7LC3h44RhGKrcl-2" vertex="1">
          <mxGeometry x="280" y="16" width="120" height="60" as="geometry" />
        </mxCell>
        <mxCell id="IvK_GI7LC3h44RhGKrcl-387" value="" style="edgeStyle=orthogonalEdgeStyle;rounded=0;orthogonalLoop=1;jettySize=auto;html=1;" parent="IvK_GI7LC3h44RhGKrcl-2" source="IvK_GI7LC3h44RhGKrcl-383" target="IvK_GI7LC3h44RhGKrcl-386" edge="1">
          <mxGeometry relative="1" as="geometry" />
        </mxCell>
        <mxCell id="IvK_GI7LC3h44RhGKrcl-383" value="&lt;span style=&quot;font-size: 11px;&quot;&gt;각 권한에 따라&lt;br&gt;메뉴 항목 표시&lt;br&gt;&lt;/span&gt;" style="whiteSpace=wrap;html=1;rounded=0;" parent="IvK_GI7LC3h44RhGKrcl-2" vertex="1">
          <mxGeometry x="970" y="112" width="120" height="60" as="geometry" />
        </mxCell>
        <mxCell id="IvK_GI7LC3h44RhGKrcl-389" value="" style="edgeStyle=orthogonalEdgeStyle;rounded=0;orthogonalLoop=1;jettySize=auto;html=1;" parent="IvK_GI7LC3h44RhGKrcl-2" source="IvK_GI7LC3h44RhGKrcl-386" target="IvK_GI7LC3h44RhGKrcl-388" edge="1">
          <mxGeometry relative="1" as="geometry" />
        </mxCell>
        <mxCell id="IvK_GI7LC3h44RhGKrcl-400" style="edgeStyle=orthogonalEdgeStyle;rounded=0;orthogonalLoop=1;jettySize=auto;html=1;entryX=0;entryY=0.5;entryDx=0;entryDy=0;" parent="IvK_GI7LC3h44RhGKrcl-2" source="IvK_GI7LC3h44RhGKrcl-386" target="IvK_GI7LC3h44RhGKrcl-398" edge="1">
          <mxGeometry relative="1" as="geometry">
            <Array as="points">
              <mxPoint x="1180" y="50" />
            </Array>
          </mxGeometry>
        </mxCell>
        <mxCell id="IvK_GI7LC3h44RhGKrcl-386" value="&lt;font style=&quot;font-size: 10px;&quot;&gt;권한 없는&lt;br&gt;유저의&lt;br&gt;권한 외 기능&lt;br&gt;사용&lt;/font&gt;" style="rhombus;whiteSpace=wrap;html=1;rounded=0;" parent="IvK_GI7LC3h44RhGKrcl-2" vertex="1">
          <mxGeometry x="1130" y="96" width="100" height="92" as="geometry" />
        </mxCell>
        <mxCell id="IvK_GI7LC3h44RhGKrcl-390" style="edgeStyle=orthogonalEdgeStyle;rounded=0;orthogonalLoop=1;jettySize=auto;html=1;entryX=0.75;entryY=1;entryDx=0;entryDy=0;" parent="IvK_GI7LC3h44RhGKrcl-2" source="IvK_GI7LC3h44RhGKrcl-388" target="IvK_GI7LC3h44RhGKrcl-362" edge="1">
          <mxGeometry relative="1" as="geometry" />
        </mxCell>
        <mxCell id="IvK_GI7LC3h44RhGKrcl-388" value="권한 없다고 알림" style="whiteSpace=wrap;html=1;rounded=0;" parent="IvK_GI7LC3h44RhGKrcl-2" vertex="1">
          <mxGeometry x="1120" y="266" width="120" height="60" as="geometry" />
        </mxCell>
        <mxCell id="IvK_GI7LC3h44RhGKrcl-393" value="No" style="text;html=1;strokeColor=none;fillColor=none;align=center;verticalAlign=middle;whiteSpace=wrap;rounded=0;" parent="IvK_GI7LC3h44RhGKrcl-2" vertex="1">
          <mxGeometry x="525" y="80" width="60" height="30" as="geometry" />
        </mxCell>
        <mxCell id="IvK_GI7LC3h44RhGKrcl-394" value="Yes" style="text;html=1;strokeColor=none;fillColor=none;align=center;verticalAlign=middle;whiteSpace=wrap;rounded=0;" parent="IvK_GI7LC3h44RhGKrcl-2" vertex="1">
          <mxGeometry x="560" y="116" width="60" height="30" as="geometry" />
        </mxCell>
        <mxCell id="IvK_GI7LC3h44RhGKrcl-395" value="관리자&lt;br&gt;유저" style="text;html=1;strokeColor=none;fillColor=none;align=center;verticalAlign=middle;whiteSpace=wrap;rounded=0;" parent="IvK_GI7LC3h44RhGKrcl-2" vertex="1">
          <mxGeometry x="660" y="76" width="60" height="30" as="geometry" />
        </mxCell>
        <mxCell id="IvK_GI7LC3h44RhGKrcl-396" value="일반 유저" style="text;html=1;strokeColor=none;fillColor=none;align=center;verticalAlign=middle;whiteSpace=wrap;rounded=0;" parent="IvK_GI7LC3h44RhGKrcl-2" vertex="1">
          <mxGeometry x="650" y="175" width="60" height="30" as="geometry" />
        </mxCell>
        <mxCell id="IvK_GI7LC3h44RhGKrcl-397" value="Yes" style="text;html=1;strokeColor=none;fillColor=none;align=center;verticalAlign=middle;whiteSpace=wrap;rounded=0;" parent="IvK_GI7LC3h44RhGKrcl-2" vertex="1">
          <mxGeometry x="1170" y="182" width="60" height="30" as="geometry" />
        </mxCell>
        <mxCell id="IvK_GI7LC3h44RhGKrcl-404" style="edgeStyle=orthogonalEdgeStyle;rounded=0;orthogonalLoop=1;jettySize=auto;html=1;exitX=0.5;exitY=1;exitDx=0;exitDy=0;entryX=0;entryY=0.5;entryDx=0;entryDy=0;" parent="IvK_GI7LC3h44RhGKrcl-2" source="IvK_GI7LC3h44RhGKrcl-398" target="IvK_GI7LC3h44RhGKrcl-402" edge="1">
          <mxGeometry relative="1" as="geometry" />
        </mxCell>
        <mxCell id="IvK_GI7LC3h44RhGKrcl-398" value="사용하려는 권한&lt;br&gt;실행 허용" style="whiteSpace=wrap;html=1;rounded=0;" parent="IvK_GI7LC3h44RhGKrcl-2" vertex="1">
          <mxGeometry x="1240" y="20" width="120" height="60" as="geometry" />
        </mxCell>
        <mxCell id="IvK_GI7LC3h44RhGKrcl-401" value="No" style="text;html=1;strokeColor=none;fillColor=none;align=center;verticalAlign=middle;whiteSpace=wrap;rounded=0;" parent="IvK_GI7LC3h44RhGKrcl-2" vertex="1">
          <mxGeometry x="1160" y="67" width="60" height="30" as="geometry" />
        </mxCell>
        <mxCell id="IvK_GI7LC3h44RhGKrcl-407" style="edgeStyle=orthogonalEdgeStyle;rounded=0;orthogonalLoop=1;jettySize=auto;html=1;entryX=0;entryY=0.6;entryDx=0;entryDy=0;entryPerimeter=0;" parent="IvK_GI7LC3h44RhGKrcl-2" source="IvK_GI7LC3h44RhGKrcl-402" target="IvK_GI7LC3h44RhGKrcl-405" edge="1">
          <mxGeometry relative="1" as="geometry">
            <Array as="points">
              <mxPoint x="1440" y="56" />
            </Array>
          </mxGeometry>
        </mxCell>
        <mxCell id="IvK_GI7LC3h44RhGKrcl-411" value="" style="edgeStyle=orthogonalEdgeStyle;rounded=0;orthogonalLoop=1;jettySize=auto;html=1;" parent="IvK_GI7LC3h44RhGKrcl-2" source="IvK_GI7LC3h44RhGKrcl-402" target="IvK_GI7LC3h44RhGKrcl-410" edge="1">
          <mxGeometry relative="1" as="geometry" />
        </mxCell>
        <mxCell id="IvK_GI7LC3h44RhGKrcl-413" value="" style="edgeStyle=orthogonalEdgeStyle;rounded=0;orthogonalLoop=1;jettySize=auto;html=1;" parent="IvK_GI7LC3h44RhGKrcl-2" source="IvK_GI7LC3h44RhGKrcl-402" target="IvK_GI7LC3h44RhGKrcl-412" edge="1">
          <mxGeometry relative="1" as="geometry" />
        </mxCell>
        <mxCell id="IvK_GI7LC3h44RhGKrcl-402" value="사용하려는&lt;br&gt;권한" style="rhombus;whiteSpace=wrap;html=1;rounded=0;" parent="IvK_GI7LC3h44RhGKrcl-2" vertex="1">
          <mxGeometry x="1400" y="102" width="80" height="80" as="geometry" />
        </mxCell>
        <mxCell id="PHGo-jgC-SAZo5eZ7DfG-3" value="" style="edgeStyle=orthogonalEdgeStyle;rounded=0;orthogonalLoop=1;jettySize=auto;html=1;" edge="1" parent="IvK_GI7LC3h44RhGKrcl-2" source="IvK_GI7LC3h44RhGKrcl-405" target="PHGo-jgC-SAZo5eZ7DfG-2">
          <mxGeometry relative="1" as="geometry" />
        </mxCell>
        <mxCell id="IvK_GI7LC3h44RhGKrcl-405" value="게시물 작성&lt;br&gt;페이지 이동" style="whiteSpace=wrap;html=1;rounded=0;" parent="IvK_GI7LC3h44RhGKrcl-2" vertex="1">
          <mxGeometry x="1510" y="20" width="120" height="60" as="geometry" />
        </mxCell>
        <mxCell id="IvK_GI7LC3h44RhGKrcl-410" value="게시물 페이지 이동" style="whiteSpace=wrap;html=1;rounded=0;" parent="IvK_GI7LC3h44RhGKrcl-2" vertex="1">
          <mxGeometry x="1630" y="112" width="120" height="60" as="geometry" />
        </mxCell>
        <mxCell id="IvK_GI7LC3h44RhGKrcl-417" value="" style="edgeStyle=orthogonalEdgeStyle;rounded=0;orthogonalLoop=1;jettySize=auto;html=1;" parent="IvK_GI7LC3h44RhGKrcl-2" source="IvK_GI7LC3h44RhGKrcl-412" target="IvK_GI7LC3h44RhGKrcl-416" edge="1">
          <mxGeometry relative="1" as="geometry" />
        </mxCell>
        <mxCell id="IvK_GI7LC3h44RhGKrcl-412" value="삭제하려는 게시물&lt;br&gt;체크 후 삭제" style="whiteSpace=wrap;html=1;rounded=0;" parent="IvK_GI7LC3h44RhGKrcl-2" vertex="1">
          <mxGeometry x="1380" y="266" width="120" height="60" as="geometry" />
        </mxCell>
        <mxCell id="IvK_GI7LC3h44RhGKrcl-470" style="edgeStyle=orthogonalEdgeStyle;rounded=0;orthogonalLoop=1;jettySize=auto;html=1;exitX=0;exitY=0.5;exitDx=0;exitDy=0;entryX=0;entryY=1;entryDx=0;entryDy=0;" parent="IvK_GI7LC3h44RhGKrcl-2" source="IvK_GI7LC3h44RhGKrcl-416" target="IvK_GI7LC3h44RhGKrcl-362" edge="1">
          <mxGeometry relative="1" as="geometry" />
        </mxCell>
        <mxCell id="IvK_GI7LC3h44RhGKrcl-416" value="&lt;font style=&quot;font-size: 11px;&quot;&gt;계속 진행&lt;br&gt;할 것인지&lt;br&gt;물어봄&lt;/font&gt;" style="rhombus;whiteSpace=wrap;html=1;rounded=0;" parent="IvK_GI7LC3h44RhGKrcl-2" vertex="1">
          <mxGeometry x="1260" y="346" width="80" height="80" as="geometry" />
        </mxCell>
        <mxCell id="IvK_GI7LC3h44RhGKrcl-457" value="게시물 작성" style="text;html=1;strokeColor=none;fillColor=none;align=center;verticalAlign=middle;whiteSpace=wrap;rounded=0;" parent="IvK_GI7LC3h44RhGKrcl-2" vertex="1">
          <mxGeometry x="1440" y="82" width="70" height="30" as="geometry" />
        </mxCell>
        <mxCell id="IvK_GI7LC3h44RhGKrcl-458" value="게시물 읽기" style="text;html=1;strokeColor=none;fillColor=none;align=center;verticalAlign=middle;whiteSpace=wrap;rounded=0;" parent="IvK_GI7LC3h44RhGKrcl-2" vertex="1">
          <mxGeometry x="1470" y="142" width="70" height="30" as="geometry" />
        </mxCell>
        <mxCell id="IvK_GI7LC3h44RhGKrcl-459" value="게시물 삭제" style="text;html=1;strokeColor=none;fillColor=none;align=center;verticalAlign=middle;whiteSpace=wrap;rounded=0;" parent="IvK_GI7LC3h44RhGKrcl-2" vertex="1">
          <mxGeometry x="1370" y="175" width="70" height="30" as="geometry" />
        </mxCell>
        <mxCell id="IvK_GI7LC3h44RhGKrcl-460" value="취소" style="text;html=1;strokeColor=none;fillColor=none;align=center;verticalAlign=middle;whiteSpace=wrap;rounded=0;" parent="IvK_GI7LC3h44RhGKrcl-2" vertex="1">
          <mxGeometry x="1220" y="359" width="60" height="30" as="geometry" />
        </mxCell>
        <mxCell id="IvK_GI7LC3h44RhGKrcl-461" value="삭제" style="text;html=1;strokeColor=none;fillColor=none;align=center;verticalAlign=middle;whiteSpace=wrap;rounded=0;" parent="IvK_GI7LC3h44RhGKrcl-2" vertex="1">
          <mxGeometry x="1300" y="406" width="60" height="30" as="geometry" />
        </mxCell>
        <mxCell id="IvK_GI7LC3h44RhGKrcl-525" value="게시물 페이지" style="rounded=0;whiteSpace=wrap;html=1;" parent="IvK_GI7LC3h44RhGKrcl-2" vertex="1">
          <mxGeometry x="2424" y="112" width="120" height="60" as="geometry" />
        </mxCell>
        <mxCell id="PHGo-jgC-SAZo5eZ7DfG-5" value="" style="edgeStyle=orthogonalEdgeStyle;rounded=0;orthogonalLoop=1;jettySize=auto;html=1;" edge="1" parent="IvK_GI7LC3h44RhGKrcl-2" source="PHGo-jgC-SAZo5eZ7DfG-2" target="PHGo-jgC-SAZo5eZ7DfG-4">
          <mxGeometry relative="1" as="geometry" />
        </mxCell>
        <mxCell id="PHGo-jgC-SAZo5eZ7DfG-2" value="분류 선택/제목/내용 입력" style="whiteSpace=wrap;html=1;rounded=0;" vertex="1" parent="IvK_GI7LC3h44RhGKrcl-2">
          <mxGeometry x="2710" y="20" width="120" height="60" as="geometry" />
        </mxCell>
        <mxCell id="PHGo-jgC-SAZo5eZ7DfG-4" value="저장 버튼 클릭" style="whiteSpace=wrap;html=1;rounded=0;" vertex="1" parent="IvK_GI7LC3h44RhGKrcl-2">
          <mxGeometry x="2710" y="160" width="120" height="60" as="geometry" />
        </mxCell>
        <mxCell id="IvK_GI7LC3h44RhGKrcl-104" value="Front-end" style="swimlane;html=1;startSize=20;horizontal=0;" parent="IvK_GI7LC3h44RhGKrcl-1" vertex="1">
          <mxGeometry y="520" width="3630" height="566" as="geometry" />
        </mxCell>
        <mxCell id="IvK_GI7LC3h44RhGKrcl-426" value="" style="edgeStyle=orthogonalEdgeStyle;rounded=0;orthogonalLoop=1;jettySize=auto;html=1;" parent="IvK_GI7LC3h44RhGKrcl-104" source="IvK_GI7LC3h44RhGKrcl-424" target="IvK_GI7LC3h44RhGKrcl-425" edge="1">
          <mxGeometry relative="1" as="geometry" />
        </mxCell>
        <mxCell id="IvK_GI7LC3h44RhGKrcl-424" value="삭제하려는 게시물&lt;br&gt;목록 id를 포함한&lt;br&gt;삭제 요청 json 생성" style="rounded=0;whiteSpace=wrap;html=1;" parent="IvK_GI7LC3h44RhGKrcl-104" vertex="1">
          <mxGeometry x="1240" y="36" width="120" height="60" as="geometry" />
        </mxCell>
        <mxCell id="IvK_GI7LC3h44RhGKrcl-425" value="백엔드로 삭제 요청&lt;br&gt;POST 전송" style="rounded=0;whiteSpace=wrap;html=1;" parent="IvK_GI7LC3h44RhGKrcl-104" vertex="1">
          <mxGeometry x="1240" y="146" width="120" height="60" as="geometry" />
        </mxCell>
        <mxCell id="IvK_GI7LC3h44RhGKrcl-450" value="삭제하는 동안&lt;br&gt;오류 발생했다고 알림" style="whiteSpace=wrap;html=1;rounded=0;" parent="IvK_GI7LC3h44RhGKrcl-104" vertex="1">
          <mxGeometry x="690" y="116" width="120" height="60" as="geometry" />
        </mxCell>
        <mxCell id="IvK_GI7LC3h44RhGKrcl-452" value="존재하지 않는&lt;br&gt;게시물이 있다고 알림" style="whiteSpace=wrap;html=1;" parent="IvK_GI7LC3h44RhGKrcl-104" vertex="1">
          <mxGeometry x="1030" y="116" width="120" height="60" as="geometry" />
        </mxCell>
        <mxCell id="IvK_GI7LC3h44RhGKrcl-467" value="삭제 완료했다고 알림" style="whiteSpace=wrap;html=1;rounded=0;" parent="IvK_GI7LC3h44RhGKrcl-104" vertex="1">
          <mxGeometry x="360" y="116" width="120" height="60" as="geometry" />
        </mxCell>
        <mxCell id="IvK_GI7LC3h44RhGKrcl-485" value="게시물 정보 가져오기 실패했다고 알림" style="whiteSpace=wrap;html=1;rounded=0;" parent="IvK_GI7LC3h44RhGKrcl-104" vertex="1">
          <mxGeometry x="2259" y="126" width="120" height="60" as="geometry" />
        </mxCell>
        <mxCell id="IvK_GI7LC3h44RhGKrcl-492" value="삭제하려는 게시물&lt;br&gt;목록 id를 포함한&lt;br&gt;삭제 요청 json 생성" style="rounded=0;whiteSpace=wrap;html=1;" parent="IvK_GI7LC3h44RhGKrcl-104" vertex="1">
          <mxGeometry x="2099" y="46" width="120" height="60" as="geometry" />
        </mxCell>
        <mxCell id="IvK_GI7LC3h44RhGKrcl-493" value="백엔드로 삭제 요청&lt;br&gt;POST 전송" style="rounded=0;whiteSpace=wrap;html=1;" parent="IvK_GI7LC3h44RhGKrcl-104" vertex="1">
          <mxGeometry x="2099" y="156" width="120" height="60" as="geometry" />
        </mxCell>
        <mxCell id="IvK_GI7LC3h44RhGKrcl-491" value="" style="edgeStyle=orthogonalEdgeStyle;rounded=0;orthogonalLoop=1;jettySize=auto;html=1;" parent="IvK_GI7LC3h44RhGKrcl-104" source="IvK_GI7LC3h44RhGKrcl-492" target="IvK_GI7LC3h44RhGKrcl-493" edge="1">
          <mxGeometry relative="1" as="geometry" />
        </mxCell>
        <mxCell id="IvK_GI7LC3h44RhGKrcl-516" value="존재하지 않는&lt;br&gt;게시물이라고 알림" style="whiteSpace=wrap;html=1;" parent="IvK_GI7LC3h44RhGKrcl-104" vertex="1">
          <mxGeometry x="1890" y="156" width="120" height="60" as="geometry" />
        </mxCell>
        <mxCell id="PHGo-jgC-SAZo5eZ7DfG-11" value="" style="edgeStyle=orthogonalEdgeStyle;rounded=0;orthogonalLoop=1;jettySize=auto;html=1;" edge="1" parent="IvK_GI7LC3h44RhGKrcl-104" source="PHGo-jgC-SAZo5eZ7DfG-8" target="PHGo-jgC-SAZo5eZ7DfG-10">
          <mxGeometry relative="1" as="geometry" />
        </mxCell>
        <mxCell id="PHGo-jgC-SAZo5eZ7DfG-8" value="모든 항목&lt;br&gt;입력" style="rhombus;whiteSpace=wrap;html=1;rounded=0;" vertex="1" parent="IvK_GI7LC3h44RhGKrcl-104">
          <mxGeometry x="2730" y="16" width="80" height="80" as="geometry" />
        </mxCell>
        <mxCell id="PHGo-jgC-SAZo5eZ7DfG-10" value="모든 항목 입력 요구" style="whiteSpace=wrap;html=1;rounded=0;" vertex="1" parent="IvK_GI7LC3h44RhGKrcl-104">
          <mxGeometry x="2870" y="26" width="120" height="60" as="geometry" />
        </mxCell>
        <mxCell id="PHGo-jgC-SAZo5eZ7DfG-13" value="No" style="text;html=1;strokeColor=none;fillColor=none;align=center;verticalAlign=middle;whiteSpace=wrap;rounded=0;" vertex="1" parent="IvK_GI7LC3h44RhGKrcl-104">
          <mxGeometry x="2790" y="26" width="60" height="30" as="geometry" />
        </mxCell>
        <mxCell id="PHGo-jgC-SAZo5eZ7DfG-14" value="Yes" style="text;html=1;strokeColor=none;fillColor=none;align=center;verticalAlign=middle;whiteSpace=wrap;rounded=0;" vertex="1" parent="IvK_GI7LC3h44RhGKrcl-104">
          <mxGeometry x="2720" y="88" width="60" height="30" as="geometry" />
        </mxCell>
        <mxCell id="PHGo-jgC-SAZo5eZ7DfG-28" value="" style="edgeStyle=orthogonalEdgeStyle;rounded=0;orthogonalLoop=1;jettySize=auto;html=1;" edge="1" parent="IvK_GI7LC3h44RhGKrcl-104" source="PHGo-jgC-SAZo5eZ7DfG-22" target="PHGo-jgC-SAZo5eZ7DfG-27">
          <mxGeometry relative="1" as="geometry" />
        </mxCell>
        <mxCell id="PHGo-jgC-SAZo5eZ7DfG-22" value="게시물 등록 json 작성" style="swimlane;fontStyle=0;childLayout=stackLayout;horizontal=1;startSize=26;fillColor=none;horizontalStack=0;resizeParent=1;resizeParentMax=0;resizeLast=0;collapsible=1;marginBottom=0;whiteSpace=wrap;html=1;" vertex="1" parent="IvK_GI7LC3h44RhGKrcl-104">
          <mxGeometry x="2685" y="166" width="170" height="130" as="geometry" />
        </mxCell>
        <mxCell id="PHGo-jgC-SAZo5eZ7DfG-23" value="category(분류)" style="text;strokeColor=none;fillColor=none;align=left;verticalAlign=top;spacingLeft=4;spacingRight=4;overflow=hidden;rotatable=0;points=[[0,0.5],[1,0.5]];portConstraint=eastwest;whiteSpace=wrap;html=1;" vertex="1" parent="PHGo-jgC-SAZo5eZ7DfG-22">
          <mxGeometry y="26" width="170" height="26" as="geometry" />
        </mxCell>
        <mxCell id="PHGo-jgC-SAZo5eZ7DfG-24" value="title(제목)" style="text;strokeColor=none;fillColor=none;align=left;verticalAlign=top;spacingLeft=4;spacingRight=4;overflow=hidden;rotatable=0;points=[[0,0.5],[1,0.5]];portConstraint=eastwest;whiteSpace=wrap;html=1;" vertex="1" parent="PHGo-jgC-SAZo5eZ7DfG-22">
          <mxGeometry y="52" width="170" height="26" as="geometry" />
        </mxCell>
        <mxCell id="PHGo-jgC-SAZo5eZ7DfG-25" value="content(내용/HTML 포함)" style="text;strokeColor=none;fillColor=none;align=left;verticalAlign=top;spacingLeft=4;spacingRight=4;overflow=hidden;rotatable=0;points=[[0,0.5],[1,0.5]];portConstraint=eastwest;whiteSpace=wrap;html=1;" vertex="1" parent="PHGo-jgC-SAZo5eZ7DfG-22">
          <mxGeometry y="78" width="170" height="26" as="geometry" />
        </mxCell>
        <mxCell id="PHGo-jgC-SAZo5eZ7DfG-26" value="content2(내용/HTML 미포함)" style="text;strokeColor=none;fillColor=none;align=left;verticalAlign=top;spacingLeft=4;spacingRight=4;overflow=hidden;rotatable=0;points=[[0,0.5],[1,0.5]];portConstraint=eastwest;whiteSpace=wrap;html=1;" vertex="1" parent="PHGo-jgC-SAZo5eZ7DfG-22">
          <mxGeometry y="104" width="170" height="26" as="geometry" />
        </mxCell>
        <mxCell id="PHGo-jgC-SAZo5eZ7DfG-17" value="" style="edgeStyle=orthogonalEdgeStyle;rounded=0;orthogonalLoop=1;jettySize=auto;html=1;entryX=0.5;entryY=0;entryDx=0;entryDy=0;" edge="1" parent="IvK_GI7LC3h44RhGKrcl-104" source="PHGo-jgC-SAZo5eZ7DfG-8" target="PHGo-jgC-SAZo5eZ7DfG-22">
          <mxGeometry relative="1" as="geometry">
            <mxPoint x="2770" y="166" as="targetPoint" />
          </mxGeometry>
        </mxCell>
        <mxCell id="PHGo-jgC-SAZo5eZ7DfG-27" value="백엔드 서버로&lt;br&gt;게시물 json 전송" style="whiteSpace=wrap;html=1;fillColor=none;fontStyle=0;startSize=26;" vertex="1" parent="IvK_GI7LC3h44RhGKrcl-104">
          <mxGeometry x="2710" y="366" width="120" height="60" as="geometry" />
        </mxCell>
        <mxCell id="PHGo-jgC-SAZo5eZ7DfG-52" value="게시물 등록&lt;br&gt;실패했다고 알림" style="whiteSpace=wrap;html=1;rounded=0;" vertex="1" parent="IvK_GI7LC3h44RhGKrcl-104">
          <mxGeometry x="3180" y="366" width="120" height="60" as="geometry" />
        </mxCell>
        <mxCell id="PHGo-jgC-SAZo5eZ7DfG-57" value="반환된 게시물 URL로 이동" style="whiteSpace=wrap;html=1;rounded=0;" vertex="1" parent="IvK_GI7LC3h44RhGKrcl-104">
          <mxGeometry x="3410" y="366" width="120" height="60" as="geometry" />
        </mxCell>
        <mxCell id="IvK_GI7LC3h44RhGKrcl-208" value="Back-end" style="swimlane;html=1;startSize=20;horizontal=0;fontSize=12;" parent="IvK_GI7LC3h44RhGKrcl-1" vertex="1">
          <mxGeometry y="1086" width="3630" height="538" as="geometry" />
        </mxCell>
        <mxCell id="IvK_GI7LC3h44RhGKrcl-226" value="" style="edgeStyle=orthogonalEdgeStyle;rounded=0;orthogonalLoop=1;jettySize=auto;html=1;" parent="IvK_GI7LC3h44RhGKrcl-208" edge="1">
          <mxGeometry relative="1" as="geometry">
            <mxPoint x="870" y="178" as="sourcePoint" />
          </mxGeometry>
        </mxCell>
        <mxCell id="IvK_GI7LC3h44RhGKrcl-430" value="" style="edgeStyle=orthogonalEdgeStyle;rounded=0;orthogonalLoop=1;jettySize=auto;html=1;" parent="IvK_GI7LC3h44RhGKrcl-208" source="IvK_GI7LC3h44RhGKrcl-427" target="IvK_GI7LC3h44RhGKrcl-429" edge="1">
          <mxGeometry relative="1" as="geometry" />
        </mxCell>
        <mxCell id="IvK_GI7LC3h44RhGKrcl-427" value="삭제하려는 게시물 id 실존 여부 확인&lt;br&gt;sql문 작성" style="rounded=0;whiteSpace=wrap;html=1;" parent="IvK_GI7LC3h44RhGKrcl-208" vertex="1">
          <mxGeometry x="1240" y="112" width="120" height="60" as="geometry" />
        </mxCell>
        <mxCell id="IvK_GI7LC3h44RhGKrcl-429" value="DB에 실존 여부 질의" style="rounded=0;whiteSpace=wrap;html=1;" parent="IvK_GI7LC3h44RhGKrcl-208" vertex="1">
          <mxGeometry x="1240" y="232" width="120" height="60" as="geometry" />
        </mxCell>
        <mxCell id="IvK_GI7LC3h44RhGKrcl-438" value="" style="edgeStyle=orthogonalEdgeStyle;rounded=0;orthogonalLoop=1;jettySize=auto;html=1;" parent="IvK_GI7LC3h44RhGKrcl-208" source="IvK_GI7LC3h44RhGKrcl-435" target="IvK_GI7LC3h44RhGKrcl-437" edge="1">
          <mxGeometry relative="1" as="geometry" />
        </mxCell>
        <mxCell id="IvK_GI7LC3h44RhGKrcl-435" value="결과 반환" style="whiteSpace=wrap;html=1;" parent="IvK_GI7LC3h44RhGKrcl-208" vertex="1">
          <mxGeometry x="1030" y="312" width="120" height="60" as="geometry" />
        </mxCell>
        <mxCell id="IvK_GI7LC3h44RhGKrcl-440" value="" style="edgeStyle=orthogonalEdgeStyle;rounded=0;orthogonalLoop=1;jettySize=auto;html=1;" parent="IvK_GI7LC3h44RhGKrcl-208" source="IvK_GI7LC3h44RhGKrcl-437" target="IvK_GI7LC3h44RhGKrcl-439" edge="1">
          <mxGeometry relative="1" as="geometry" />
        </mxCell>
        <mxCell id="IvK_GI7LC3h44RhGKrcl-442" value="" style="edgeStyle=orthogonalEdgeStyle;rounded=0;orthogonalLoop=1;jettySize=auto;html=1;" parent="IvK_GI7LC3h44RhGKrcl-208" source="IvK_GI7LC3h44RhGKrcl-437" target="IvK_GI7LC3h44RhGKrcl-441" edge="1">
          <mxGeometry relative="1" as="geometry" />
        </mxCell>
        <mxCell id="IvK_GI7LC3h44RhGKrcl-437" value="존재하지&lt;br&gt;않는&lt;br&gt;게시물 존재" style="rhombus;whiteSpace=wrap;html=1;" parent="IvK_GI7LC3h44RhGKrcl-208" vertex="1">
          <mxGeometry x="1045" y="182" width="90" height="90" as="geometry" />
        </mxCell>
        <mxCell id="IvK_GI7LC3h44RhGKrcl-439" value="존재하지 않는&lt;br&gt;게시물이 있다고 알림" style="whiteSpace=wrap;html=1;" parent="IvK_GI7LC3h44RhGKrcl-208" vertex="1">
          <mxGeometry x="1030" y="102" width="120" height="60" as="geometry" />
        </mxCell>
        <mxCell id="IvK_GI7LC3h44RhGKrcl-441" value="게시물 삭제&lt;br&gt;sql문 작성" style="whiteSpace=wrap;html=1;" parent="IvK_GI7LC3h44RhGKrcl-208" vertex="1">
          <mxGeometry x="860" y="197" width="120" height="60" as="geometry" />
        </mxCell>
        <mxCell id="IvK_GI7LC3h44RhGKrcl-447" value="" style="edgeStyle=orthogonalEdgeStyle;rounded=0;orthogonalLoop=1;jettySize=auto;html=1;" parent="IvK_GI7LC3h44RhGKrcl-208" source="IvK_GI7LC3h44RhGKrcl-445" target="IvK_GI7LC3h44RhGKrcl-446" edge="1">
          <mxGeometry relative="1" as="geometry" />
        </mxCell>
        <mxCell id="IvK_GI7LC3h44RhGKrcl-445" value="결과 반환" style="rounded=0;whiteSpace=wrap;html=1;" parent="IvK_GI7LC3h44RhGKrcl-208" vertex="1">
          <mxGeometry x="690" y="317" width="120" height="60" as="geometry" />
        </mxCell>
        <mxCell id="IvK_GI7LC3h44RhGKrcl-449" value="" style="edgeStyle=orthogonalEdgeStyle;rounded=0;orthogonalLoop=1;jettySize=auto;html=1;" parent="IvK_GI7LC3h44RhGKrcl-208" source="IvK_GI7LC3h44RhGKrcl-446" target="IvK_GI7LC3h44RhGKrcl-448" edge="1">
          <mxGeometry relative="1" as="geometry" />
        </mxCell>
        <mxCell id="IvK_GI7LC3h44RhGKrcl-527" style="edgeStyle=orthogonalEdgeStyle;rounded=0;orthogonalLoop=1;jettySize=auto;html=1;exitX=0;exitY=0.5;exitDx=0;exitDy=0;entryX=0.5;entryY=1;entryDx=0;entryDy=0;" parent="IvK_GI7LC3h44RhGKrcl-208" source="IvK_GI7LC3h44RhGKrcl-446" target="IvK_GI7LC3h44RhGKrcl-465" edge="1">
          <mxGeometry relative="1" as="geometry" />
        </mxCell>
        <mxCell id="IvK_GI7LC3h44RhGKrcl-446" value="오류 발생" style="rhombus;whiteSpace=wrap;html=1;rounded=0;" parent="IvK_GI7LC3h44RhGKrcl-208" vertex="1">
          <mxGeometry x="710" y="192" width="80" height="80" as="geometry" />
        </mxCell>
        <mxCell id="IvK_GI7LC3h44RhGKrcl-448" value="오류 발생했다고 알림" style="whiteSpace=wrap;html=1;rounded=0;" parent="IvK_GI7LC3h44RhGKrcl-208" vertex="1">
          <mxGeometry x="690" y="107" width="120" height="60" as="geometry" />
        </mxCell>
        <mxCell id="IvK_GI7LC3h44RhGKrcl-462" value="No" style="text;html=1;strokeColor=none;fillColor=none;align=center;verticalAlign=middle;whiteSpace=wrap;rounded=0;" parent="IvK_GI7LC3h44RhGKrcl-208" vertex="1">
          <mxGeometry x="1002" y="225" width="60" height="30" as="geometry" />
        </mxCell>
        <mxCell id="IvK_GI7LC3h44RhGKrcl-463" value="Yes" style="text;html=1;strokeColor=none;fillColor=none;align=center;verticalAlign=middle;whiteSpace=wrap;rounded=0;" parent="IvK_GI7LC3h44RhGKrcl-208" vertex="1">
          <mxGeometry x="1080" y="167" width="60" height="30" as="geometry" />
        </mxCell>
        <mxCell id="IvK_GI7LC3h44RhGKrcl-464" value="Yes" style="text;html=1;strokeColor=none;fillColor=none;align=center;verticalAlign=middle;whiteSpace=wrap;rounded=0;" parent="IvK_GI7LC3h44RhGKrcl-208" vertex="1">
          <mxGeometry x="740" y="172" width="60" height="30" as="geometry" />
        </mxCell>
        <mxCell id="IvK_GI7LC3h44RhGKrcl-465" value="삭제 완료했다고 알림" style="whiteSpace=wrap;html=1;rounded=0;" parent="IvK_GI7LC3h44RhGKrcl-208" vertex="1">
          <mxGeometry x="490" y="107" width="120" height="60" as="geometry" />
        </mxCell>
        <mxCell id="IvK_GI7LC3h44RhGKrcl-476" value="" style="edgeStyle=orthogonalEdgeStyle;rounded=0;orthogonalLoop=1;jettySize=auto;html=1;" parent="IvK_GI7LC3h44RhGKrcl-208" source="IvK_GI7LC3h44RhGKrcl-472" target="IvK_GI7LC3h44RhGKrcl-475" edge="1">
          <mxGeometry relative="1" as="geometry" />
        </mxCell>
        <mxCell id="IvK_GI7LC3h44RhGKrcl-472" value="제목, 내용, 요약 등을&lt;br&gt;DB에서 가져오는 sql문 작성" style="rounded=0;whiteSpace=wrap;html=1;" parent="IvK_GI7LC3h44RhGKrcl-208" vertex="1">
          <mxGeometry x="2089" y="99.5" width="130" height="60" as="geometry" />
        </mxCell>
        <mxCell id="IvK_GI7LC3h44RhGKrcl-475" value="DB에 게시물 정보&lt;br&gt;질의" style="rounded=0;whiteSpace=wrap;html=1;" parent="IvK_GI7LC3h44RhGKrcl-208" vertex="1">
          <mxGeometry x="2089" y="190.5" width="130" height="60" as="geometry" />
        </mxCell>
        <mxCell id="IvK_GI7LC3h44RhGKrcl-481" value="" style="edgeStyle=orthogonalEdgeStyle;rounded=0;orthogonalLoop=1;jettySize=auto;html=1;" parent="IvK_GI7LC3h44RhGKrcl-208" source="IvK_GI7LC3h44RhGKrcl-479" target="IvK_GI7LC3h44RhGKrcl-480" edge="1">
          <mxGeometry relative="1" as="geometry" />
        </mxCell>
        <mxCell id="IvK_GI7LC3h44RhGKrcl-479" value="결과 반환" style="rounded=0;whiteSpace=wrap;html=1;" parent="IvK_GI7LC3h44RhGKrcl-208" vertex="1">
          <mxGeometry x="2259" y="220" width="120" height="60" as="geometry" />
        </mxCell>
        <mxCell id="IvK_GI7LC3h44RhGKrcl-484" value="" style="edgeStyle=orthogonalEdgeStyle;rounded=0;orthogonalLoop=1;jettySize=auto;html=1;" parent="IvK_GI7LC3h44RhGKrcl-208" source="IvK_GI7LC3h44RhGKrcl-480" target="IvK_GI7LC3h44RhGKrcl-483" edge="1">
          <mxGeometry relative="1" as="geometry" />
        </mxCell>
        <mxCell id="IvK_GI7LC3h44RhGKrcl-521" style="edgeStyle=orthogonalEdgeStyle;rounded=0;orthogonalLoop=1;jettySize=auto;html=1;exitX=1;exitY=0.5;exitDx=0;exitDy=0;entryX=0;entryY=0.5;entryDx=0;entryDy=0;" parent="IvK_GI7LC3h44RhGKrcl-208" source="IvK_GI7LC3h44RhGKrcl-480" target="IvK_GI7LC3h44RhGKrcl-519" edge="1">
          <mxGeometry relative="1" as="geometry" />
        </mxCell>
        <mxCell id="IvK_GI7LC3h44RhGKrcl-480" value="오류 발생" style="rhombus;whiteSpace=wrap;html=1;rounded=0;" parent="IvK_GI7LC3h44RhGKrcl-208" vertex="1">
          <mxGeometry x="2279" y="95" width="80" height="80" as="geometry" />
        </mxCell>
        <mxCell id="IvK_GI7LC3h44RhGKrcl-483" value="게시물 정보 가져오기 실패했다고 알림" style="whiteSpace=wrap;html=1;rounded=0;" parent="IvK_GI7LC3h44RhGKrcl-208" vertex="1">
          <mxGeometry x="2259" y="10" width="120" height="60" as="geometry" />
        </mxCell>
        <mxCell id="IvK_GI7LC3h44RhGKrcl-495" value="읽으려는 게시물 id&lt;br&gt;실존 여부 확인&lt;br&gt;sql문 작성" style="rounded=0;whiteSpace=wrap;html=1;" parent="IvK_GI7LC3h44RhGKrcl-208" vertex="1">
          <mxGeometry x="1589" y="41" width="120" height="60" as="geometry" />
        </mxCell>
        <mxCell id="IvK_GI7LC3h44RhGKrcl-496" value="DB에 실존 여부 질의" style="rounded=0;whiteSpace=wrap;html=1;" parent="IvK_GI7LC3h44RhGKrcl-208" vertex="1">
          <mxGeometry x="1589" y="161" width="120" height="60" as="geometry" />
        </mxCell>
        <mxCell id="IvK_GI7LC3h44RhGKrcl-494" value="" style="edgeStyle=orthogonalEdgeStyle;rounded=0;orthogonalLoop=1;jettySize=auto;html=1;" parent="IvK_GI7LC3h44RhGKrcl-208" source="IvK_GI7LC3h44RhGKrcl-495" target="IvK_GI7LC3h44RhGKrcl-496" edge="1">
          <mxGeometry relative="1" as="geometry" />
        </mxCell>
        <mxCell id="IvK_GI7LC3h44RhGKrcl-504" value="결과 반환" style="whiteSpace=wrap;html=1;" parent="IvK_GI7LC3h44RhGKrcl-208" vertex="1">
          <mxGeometry x="1890" y="305" width="120" height="60" as="geometry" />
        </mxCell>
        <mxCell id="IvK_GI7LC3h44RhGKrcl-513" style="edgeStyle=orthogonalEdgeStyle;rounded=0;orthogonalLoop=1;jettySize=auto;html=1;exitX=1;exitY=0.5;exitDx=0;exitDy=0;entryX=0;entryY=0.5;entryDx=0;entryDy=0;" parent="IvK_GI7LC3h44RhGKrcl-208" source="IvK_GI7LC3h44RhGKrcl-507" target="IvK_GI7LC3h44RhGKrcl-475" edge="1">
          <mxGeometry relative="1" as="geometry" />
        </mxCell>
        <mxCell id="IvK_GI7LC3h44RhGKrcl-507" value="존재하지&lt;br&gt;않는&lt;br&gt;게시물" style="rhombus;whiteSpace=wrap;html=1;" parent="IvK_GI7LC3h44RhGKrcl-208" vertex="1">
          <mxGeometry x="1905" y="175" width="90" height="90" as="geometry" />
        </mxCell>
        <mxCell id="IvK_GI7LC3h44RhGKrcl-503" value="" style="edgeStyle=orthogonalEdgeStyle;rounded=0;orthogonalLoop=1;jettySize=auto;html=1;" parent="IvK_GI7LC3h44RhGKrcl-208" source="IvK_GI7LC3h44RhGKrcl-504" target="IvK_GI7LC3h44RhGKrcl-507" edge="1">
          <mxGeometry relative="1" as="geometry" />
        </mxCell>
        <mxCell id="IvK_GI7LC3h44RhGKrcl-508" value="존재하지 않는&lt;br&gt;게시물이라고 알림" style="whiteSpace=wrap;html=1;" parent="IvK_GI7LC3h44RhGKrcl-208" vertex="1">
          <mxGeometry x="1890" y="95" width="120" height="60" as="geometry" />
        </mxCell>
        <mxCell id="IvK_GI7LC3h44RhGKrcl-505" value="" style="edgeStyle=orthogonalEdgeStyle;rounded=0;orthogonalLoop=1;jettySize=auto;html=1;" parent="IvK_GI7LC3h44RhGKrcl-208" source="IvK_GI7LC3h44RhGKrcl-507" target="IvK_GI7LC3h44RhGKrcl-508" edge="1">
          <mxGeometry relative="1" as="geometry" />
        </mxCell>
        <mxCell id="IvK_GI7LC3h44RhGKrcl-510" value="No" style="text;html=1;strokeColor=none;fillColor=none;align=center;verticalAlign=middle;whiteSpace=wrap;rounded=0;" parent="IvK_GI7LC3h44RhGKrcl-208" vertex="1">
          <mxGeometry x="1980" y="220" width="60" height="30" as="geometry" />
        </mxCell>
        <mxCell id="IvK_GI7LC3h44RhGKrcl-511" value="Yes" style="text;html=1;strokeColor=none;fillColor=none;align=center;verticalAlign=middle;whiteSpace=wrap;rounded=0;" parent="IvK_GI7LC3h44RhGKrcl-208" vertex="1">
          <mxGeometry x="1940" y="160" width="60" height="30" as="geometry" />
        </mxCell>
        <mxCell id="IvK_GI7LC3h44RhGKrcl-519" value="게시물 페이지에&lt;br&gt;게시물 정보 추가 후&lt;br&gt;전송" style="rounded=0;whiteSpace=wrap;html=1;" parent="IvK_GI7LC3h44RhGKrcl-208" vertex="1">
          <mxGeometry x="2424" y="105" width="120" height="60" as="geometry" />
        </mxCell>
        <mxCell id="IvK_GI7LC3h44RhGKrcl-520" value="Yes" style="text;html=1;strokeColor=none;fillColor=none;align=center;verticalAlign=middle;whiteSpace=wrap;rounded=0;" parent="IvK_GI7LC3h44RhGKrcl-208" vertex="1">
          <mxGeometry x="2310" y="75" width="60" height="30" as="geometry" />
        </mxCell>
        <mxCell id="IvK_GI7LC3h44RhGKrcl-522" value="No" style="text;html=1;strokeColor=none;fillColor=none;align=center;verticalAlign=middle;whiteSpace=wrap;rounded=0;" parent="IvK_GI7LC3h44RhGKrcl-208" vertex="1">
          <mxGeometry x="2340" y="110" width="60" height="30" as="geometry" />
        </mxCell>
        <mxCell id="IvK_GI7LC3h44RhGKrcl-528" value="No" style="text;html=1;strokeColor=none;fillColor=none;align=center;verticalAlign=middle;whiteSpace=wrap;rounded=0;" parent="IvK_GI7LC3h44RhGKrcl-208" vertex="1">
          <mxGeometry x="670" y="202" width="60" height="30" as="geometry" />
        </mxCell>
        <mxCell id="PHGo-jgC-SAZo5eZ7DfG-33" value="" style="edgeStyle=orthogonalEdgeStyle;rounded=0;orthogonalLoop=1;jettySize=auto;html=1;" edge="1" parent="IvK_GI7LC3h44RhGKrcl-208" source="PHGo-jgC-SAZo5eZ7DfG-30" target="PHGo-jgC-SAZo5eZ7DfG-32">
          <mxGeometry relative="1" as="geometry" />
        </mxCell>
        <mxCell id="PHGo-jgC-SAZo5eZ7DfG-30" value="백엔드 서버로&lt;br&gt;게시물 json 전송" style="whiteSpace=wrap;html=1;fillColor=none;fontStyle=0;startSize=26;" vertex="1" parent="IvK_GI7LC3h44RhGKrcl-208">
          <mxGeometry x="2710" y="60" width="120" height="60" as="geometry" />
        </mxCell>
        <mxCell id="PHGo-jgC-SAZo5eZ7DfG-35" value="" style="edgeStyle=orthogonalEdgeStyle;rounded=0;orthogonalLoop=1;jettySize=auto;html=1;" edge="1" parent="IvK_GI7LC3h44RhGKrcl-208" source="PHGo-jgC-SAZo5eZ7DfG-32" target="PHGo-jgC-SAZo5eZ7DfG-34">
          <mxGeometry relative="1" as="geometry" />
        </mxCell>
        <mxCell id="PHGo-jgC-SAZo5eZ7DfG-32" value="content2를 바드를&lt;br&gt;이용해 요약 요청" style="whiteSpace=wrap;html=1;fillColor=none;fontStyle=0;startSize=26;" vertex="1" parent="IvK_GI7LC3h44RhGKrcl-208">
          <mxGeometry x="2710" y="200" width="120" height="60" as="geometry" />
        </mxCell>
        <mxCell id="PHGo-jgC-SAZo5eZ7DfG-37" value="" style="edgeStyle=orthogonalEdgeStyle;rounded=0;orthogonalLoop=1;jettySize=auto;html=1;" edge="1" parent="IvK_GI7LC3h44RhGKrcl-208" source="PHGo-jgC-SAZo5eZ7DfG-34" target="PHGo-jgC-SAZo5eZ7DfG-36">
          <mxGeometry relative="1" as="geometry" />
        </mxCell>
        <mxCell id="PHGo-jgC-SAZo5eZ7DfG-34" value="구글 바드로 요약" style="whiteSpace=wrap;html=1;fillColor=none;fontStyle=0;startSize=26;" vertex="1" parent="IvK_GI7LC3h44RhGKrcl-208">
          <mxGeometry x="2910" y="200" width="120" height="60" as="geometry" />
        </mxCell>
        <mxCell id="PHGo-jgC-SAZo5eZ7DfG-41" value="" style="edgeStyle=orthogonalEdgeStyle;rounded=0;orthogonalLoop=1;jettySize=auto;html=1;" edge="1" parent="IvK_GI7LC3h44RhGKrcl-208" source="PHGo-jgC-SAZo5eZ7DfG-36" target="PHGo-jgC-SAZo5eZ7DfG-38">
          <mxGeometry relative="1" as="geometry" />
        </mxCell>
        <mxCell id="PHGo-jgC-SAZo5eZ7DfG-36" value="요약을 summary 키를 만들고 넣기&lt;br&gt;나머지는 그대로 유지" style="whiteSpace=wrap;html=1;fillColor=none;fontStyle=0;startSize=26;" vertex="1" parent="IvK_GI7LC3h44RhGKrcl-208">
          <mxGeometry x="2910" y="320" width="120" height="60" as="geometry" />
        </mxCell>
        <mxCell id="PHGo-jgC-SAZo5eZ7DfG-38" value="게시물 저장&lt;br&gt;sql문 작성" style="rounded=0;whiteSpace=wrap;html=1;" vertex="1" parent="IvK_GI7LC3h44RhGKrcl-208">
          <mxGeometry x="2710" y="320" width="120" height="60" as="geometry" />
        </mxCell>
        <mxCell id="PHGo-jgC-SAZo5eZ7DfG-39" value="DB에 게시물 저장 SQL문 실행" style="rounded=0;whiteSpace=wrap;html=1;" vertex="1" parent="IvK_GI7LC3h44RhGKrcl-208">
          <mxGeometry x="2710" y="440" width="120" height="60" as="geometry" />
        </mxCell>
        <mxCell id="PHGo-jgC-SAZo5eZ7DfG-40" value="" style="edgeStyle=orthogonalEdgeStyle;rounded=0;orthogonalLoop=1;jettySize=auto;html=1;" edge="1" parent="IvK_GI7LC3h44RhGKrcl-208" source="PHGo-jgC-SAZo5eZ7DfG-38" target="PHGo-jgC-SAZo5eZ7DfG-39">
          <mxGeometry relative="1" as="geometry" />
        </mxCell>
        <mxCell id="PHGo-jgC-SAZo5eZ7DfG-45" value="결과 반환" style="rounded=0;whiteSpace=wrap;html=1;" vertex="1" parent="IvK_GI7LC3h44RhGKrcl-208">
          <mxGeometry x="3180" y="440" width="120" height="60" as="geometry" />
        </mxCell>
        <mxCell id="PHGo-jgC-SAZo5eZ7DfG-56" value="" style="edgeStyle=orthogonalEdgeStyle;rounded=0;orthogonalLoop=1;jettySize=auto;html=1;" edge="1" parent="IvK_GI7LC3h44RhGKrcl-208" source="PHGo-jgC-SAZo5eZ7DfG-47" target="PHGo-jgC-SAZo5eZ7DfG-55">
          <mxGeometry relative="1" as="geometry" />
        </mxCell>
        <mxCell id="PHGo-jgC-SAZo5eZ7DfG-47" value="오류 발생" style="rhombus;whiteSpace=wrap;html=1;rounded=0;" vertex="1" parent="IvK_GI7LC3h44RhGKrcl-208">
          <mxGeometry x="3200" y="315" width="80" height="80" as="geometry" />
        </mxCell>
        <mxCell id="PHGo-jgC-SAZo5eZ7DfG-44" value="" style="edgeStyle=orthogonalEdgeStyle;rounded=0;orthogonalLoop=1;jettySize=auto;html=1;" edge="1" parent="IvK_GI7LC3h44RhGKrcl-208" source="PHGo-jgC-SAZo5eZ7DfG-45" target="PHGo-jgC-SAZo5eZ7DfG-47">
          <mxGeometry relative="1" as="geometry" />
        </mxCell>
        <mxCell id="PHGo-jgC-SAZo5eZ7DfG-48" value="게시물 등록&lt;br&gt;실패했다고 알림" style="whiteSpace=wrap;html=1;rounded=0;" vertex="1" parent="IvK_GI7LC3h44RhGKrcl-208">
          <mxGeometry x="3180" y="230" width="120" height="60" as="geometry" />
        </mxCell>
        <mxCell id="PHGo-jgC-SAZo5eZ7DfG-46" value="" style="edgeStyle=orthogonalEdgeStyle;rounded=0;orthogonalLoop=1;jettySize=auto;html=1;" edge="1" parent="IvK_GI7LC3h44RhGKrcl-208" source="PHGo-jgC-SAZo5eZ7DfG-47" target="PHGo-jgC-SAZo5eZ7DfG-48">
          <mxGeometry relative="1" as="geometry" />
        </mxCell>
        <mxCell id="PHGo-jgC-SAZo5eZ7DfG-49" value="Yes" style="text;html=1;strokeColor=none;fillColor=none;align=center;verticalAlign=middle;whiteSpace=wrap;rounded=0;" vertex="1" parent="IvK_GI7LC3h44RhGKrcl-208">
          <mxGeometry x="3231" y="295" width="60" height="30" as="geometry" />
        </mxCell>
        <mxCell id="PHGo-jgC-SAZo5eZ7DfG-50" value="No" style="text;html=1;strokeColor=none;fillColor=none;align=center;verticalAlign=middle;whiteSpace=wrap;rounded=0;" vertex="1" parent="IvK_GI7LC3h44RhGKrcl-208">
          <mxGeometry x="3260" y="327" width="60" height="30" as="geometry" />
        </mxCell>
        <mxCell id="PHGo-jgC-SAZo5eZ7DfG-55" value="게시물 저장 성공과&lt;br&gt;게시물 URL 반환" style="whiteSpace=wrap;html=1;rounded=0;" vertex="1" parent="IvK_GI7LC3h44RhGKrcl-208">
          <mxGeometry x="3410" y="325" width="120" height="60" as="geometry" />
        </mxCell>
        <mxCell id="IvK_GI7LC3h44RhGKrcl-292" value="Server" style="swimlane;html=1;startSize=20;horizontal=0;fontSize=12;" parent="IvK_GI7LC3h44RhGKrcl-1" vertex="1">
          <mxGeometry y="1624" width="3630" height="227" as="geometry" />
        </mxCell>
        <mxCell id="IvK_GI7LC3h44RhGKrcl-360" value="공지사항 게시물 목록&lt;br&gt;html 전송" style="rounded=0;whiteSpace=wrap;html=1;" parent="IvK_GI7LC3h44RhGKrcl-292" vertex="1">
          <mxGeometry x="280" y="30" width="120" height="60" as="geometry" />
        </mxCell>
        <mxCell id="IvK_GI7LC3h44RhGKrcl-408" value="공지사항 게시물 작성&lt;br&gt;html 전송" style="rounded=0;whiteSpace=wrap;html=1;" parent="IvK_GI7LC3h44RhGKrcl-292" vertex="1">
          <mxGeometry x="1510" y="30" width="120" height="60" as="geometry" />
        </mxCell>
        <mxCell id="IvK_GI7LC3h44RhGKrcl-431" value="Notice" style="shape=datastore;whiteSpace=wrap;html=1;" parent="IvK_GI7LC3h44RhGKrcl-292" vertex="1">
          <mxGeometry x="1260" y="60" width="80" height="80" as="geometry" />
        </mxCell>
        <mxCell id="IvK_GI7LC3h44RhGKrcl-471" value="공지사항 게시물 페이지&lt;br&gt;html 전송" style="rounded=0;whiteSpace=wrap;html=1;" parent="IvK_GI7LC3h44RhGKrcl-292" vertex="1">
          <mxGeometry x="2419" y="30" width="130" height="60" as="geometry" />
        </mxCell>
        <mxCell id="IvK_GI7LC3h44RhGKrcl-323" style="edgeStyle=orthogonalEdgeStyle;rounded=0;orthogonalLoop=1;jettySize=auto;html=1;entryX=0.25;entryY=0;entryDx=0;entryDy=0;" parent="IvK_GI7LC3h44RhGKrcl-1" edge="1">
          <mxGeometry relative="1" as="geometry">
            <Array as="points">
              <mxPoint x="2470" y="60" />
              <mxPoint x="610" y="60" />
            </Array>
            <mxPoint x="610" y="151" as="targetPoint" />
          </mxGeometry>
        </mxCell>
        <mxCell id="IvK_GI7LC3h44RhGKrcl-333" style="edgeStyle=orthogonalEdgeStyle;rounded=0;orthogonalLoop=1;jettySize=auto;html=1;exitX=0.5;exitY=0;exitDx=0;exitDy=0;entryX=0.5;entryY=0;entryDx=0;entryDy=0;" parent="IvK_GI7LC3h44RhGKrcl-1" edge="1">
          <mxGeometry relative="1" as="geometry">
            <Array as="points">
              <mxPoint x="2340" y="50" />
              <mxPoint x="300" y="50" />
            </Array>
            <mxPoint x="300" y="211" as="targetPoint" />
          </mxGeometry>
        </mxCell>
        <mxCell id="IvK_GI7LC3h44RhGKrcl-364" style="edgeStyle=orthogonalEdgeStyle;rounded=0;orthogonalLoop=1;jettySize=auto;html=1;exitX=0.5;exitY=0;exitDx=0;exitDy=0;entryX=0.5;entryY=1;entryDx=0;entryDy=0;" parent="IvK_GI7LC3h44RhGKrcl-1" source="IvK_GI7LC3h44RhGKrcl-360" target="IvK_GI7LC3h44RhGKrcl-362" edge="1">
          <mxGeometry relative="1" as="geometry" />
        </mxCell>
        <mxCell id="IvK_GI7LC3h44RhGKrcl-409" style="edgeStyle=orthogonalEdgeStyle;rounded=0;orthogonalLoop=1;jettySize=auto;html=1;entryX=0.5;entryY=1;entryDx=0;entryDy=0;" parent="IvK_GI7LC3h44RhGKrcl-1" source="IvK_GI7LC3h44RhGKrcl-408" target="IvK_GI7LC3h44RhGKrcl-405" edge="1">
          <mxGeometry relative="1" as="geometry" />
        </mxCell>
        <mxCell id="IvK_GI7LC3h44RhGKrcl-423" style="edgeStyle=orthogonalEdgeStyle;rounded=0;orthogonalLoop=1;jettySize=auto;html=1;entryX=0.5;entryY=0;entryDx=0;entryDy=0;" parent="IvK_GI7LC3h44RhGKrcl-1" source="IvK_GI7LC3h44RhGKrcl-416" target="IvK_GI7LC3h44RhGKrcl-424" edge="1">
          <mxGeometry relative="1" as="geometry">
            <mxPoint x="1300" y="576" as="targetPoint" />
          </mxGeometry>
        </mxCell>
        <mxCell id="IvK_GI7LC3h44RhGKrcl-428" value="" style="edgeStyle=orthogonalEdgeStyle;rounded=0;orthogonalLoop=1;jettySize=auto;html=1;" parent="IvK_GI7LC3h44RhGKrcl-1" source="IvK_GI7LC3h44RhGKrcl-425" target="IvK_GI7LC3h44RhGKrcl-427" edge="1">
          <mxGeometry relative="1" as="geometry" />
        </mxCell>
        <mxCell id="IvK_GI7LC3h44RhGKrcl-432" style="edgeStyle=orthogonalEdgeStyle;rounded=0;orthogonalLoop=1;jettySize=auto;html=1;exitX=0.5;exitY=1;exitDx=0;exitDy=0;entryX=0.5;entryY=0;entryDx=0;entryDy=0;" parent="IvK_GI7LC3h44RhGKrcl-1" source="IvK_GI7LC3h44RhGKrcl-429" target="IvK_GI7LC3h44RhGKrcl-431" edge="1">
          <mxGeometry relative="1" as="geometry" />
        </mxCell>
        <mxCell id="IvK_GI7LC3h44RhGKrcl-436" value="" style="edgeStyle=orthogonalEdgeStyle;rounded=0;orthogonalLoop=1;jettySize=auto;html=1;exitX=0.15;exitY=0.05;exitDx=0;exitDy=0;exitPerimeter=0;" parent="IvK_GI7LC3h44RhGKrcl-1" source="IvK_GI7LC3h44RhGKrcl-431" target="IvK_GI7LC3h44RhGKrcl-435" edge="1">
          <mxGeometry relative="1" as="geometry">
            <mxPoint x="1280" y="1676" as="sourcePoint" />
          </mxGeometry>
        </mxCell>
        <mxCell id="IvK_GI7LC3h44RhGKrcl-443" style="edgeStyle=orthogonalEdgeStyle;rounded=0;orthogonalLoop=1;jettySize=auto;html=1;entryX=0;entryY=0.3;entryDx=0;entryDy=0;" parent="IvK_GI7LC3h44RhGKrcl-1" source="IvK_GI7LC3h44RhGKrcl-441" target="IvK_GI7LC3h44RhGKrcl-431" edge="1">
          <mxGeometry relative="1" as="geometry">
            <Array as="points">
              <mxPoint x="920" y="1708" />
            </Array>
          </mxGeometry>
        </mxCell>
        <mxCell id="IvK_GI7LC3h44RhGKrcl-444" style="edgeStyle=orthogonalEdgeStyle;rounded=0;orthogonalLoop=1;jettySize=auto;html=1;exitX=0;exitY=0.7;exitDx=0;exitDy=0;entryX=0.5;entryY=1;entryDx=0;entryDy=0;" parent="IvK_GI7LC3h44RhGKrcl-1" source="IvK_GI7LC3h44RhGKrcl-431" target="IvK_GI7LC3h44RhGKrcl-445" edge="1">
          <mxGeometry relative="1" as="geometry">
            <mxPoint x="750" y="1036" as="targetPoint" />
          </mxGeometry>
        </mxCell>
        <mxCell id="IvK_GI7LC3h44RhGKrcl-451" value="" style="edgeStyle=orthogonalEdgeStyle;rounded=0;orthogonalLoop=1;jettySize=auto;html=1;" parent="IvK_GI7LC3h44RhGKrcl-1" source="IvK_GI7LC3h44RhGKrcl-448" target="IvK_GI7LC3h44RhGKrcl-450" edge="1">
          <mxGeometry relative="1" as="geometry" />
        </mxCell>
        <mxCell id="IvK_GI7LC3h44RhGKrcl-453" value="" style="edgeStyle=orthogonalEdgeStyle;rounded=0;orthogonalLoop=1;jettySize=auto;html=1;" parent="IvK_GI7LC3h44RhGKrcl-1" source="IvK_GI7LC3h44RhGKrcl-439" target="IvK_GI7LC3h44RhGKrcl-452" edge="1">
          <mxGeometry relative="1" as="geometry" />
        </mxCell>
        <mxCell id="IvK_GI7LC3h44RhGKrcl-454" style="edgeStyle=orthogonalEdgeStyle;rounded=0;orthogonalLoop=1;jettySize=auto;html=1;entryX=1;entryY=1;entryDx=0;entryDy=0;" parent="IvK_GI7LC3h44RhGKrcl-1" source="IvK_GI7LC3h44RhGKrcl-450" target="IvK_GI7LC3h44RhGKrcl-362" edge="1">
          <mxGeometry relative="1" as="geometry">
            <Array as="points">
              <mxPoint x="500" y="666" />
              <mxPoint x="500" y="256" />
              <mxPoint x="400" y="256" />
            </Array>
          </mxGeometry>
        </mxCell>
        <mxCell id="IvK_GI7LC3h44RhGKrcl-456" style="edgeStyle=orthogonalEdgeStyle;rounded=0;orthogonalLoop=1;jettySize=auto;html=1;entryX=1;entryY=1;entryDx=0;entryDy=0;" parent="IvK_GI7LC3h44RhGKrcl-1" source="IvK_GI7LC3h44RhGKrcl-452" target="IvK_GI7LC3h44RhGKrcl-362" edge="1">
          <mxGeometry relative="1" as="geometry">
            <Array as="points">
              <mxPoint x="1090" y="586" />
              <mxPoint x="500" y="586" />
              <mxPoint x="500" y="256" />
              <mxPoint x="400" y="256" />
            </Array>
          </mxGeometry>
        </mxCell>
        <mxCell id="IvK_GI7LC3h44RhGKrcl-468" value="" style="edgeStyle=orthogonalEdgeStyle;rounded=0;orthogonalLoop=1;jettySize=auto;html=1;" parent="IvK_GI7LC3h44RhGKrcl-1" source="IvK_GI7LC3h44RhGKrcl-465" target="IvK_GI7LC3h44RhGKrcl-467" edge="1">
          <mxGeometry relative="1" as="geometry" />
        </mxCell>
        <mxCell id="IvK_GI7LC3h44RhGKrcl-469" style="edgeStyle=orthogonalEdgeStyle;rounded=0;orthogonalLoop=1;jettySize=auto;html=1;entryX=0.25;entryY=1;entryDx=0;entryDy=0;" parent="IvK_GI7LC3h44RhGKrcl-1" source="IvK_GI7LC3h44RhGKrcl-467" target="IvK_GI7LC3h44RhGKrcl-362" edge="1">
          <mxGeometry relative="1" as="geometry">
            <Array as="points">
              <mxPoint x="310" y="666" />
            </Array>
          </mxGeometry>
        </mxCell>
        <mxCell id="IvK_GI7LC3h44RhGKrcl-478" style="edgeStyle=orthogonalEdgeStyle;rounded=0;orthogonalLoop=1;jettySize=auto;html=1;exitX=0.85;exitY=0.95;exitDx=0;exitDy=0;exitPerimeter=0;entryX=0.5;entryY=1;entryDx=0;entryDy=0;" parent="IvK_GI7LC3h44RhGKrcl-1" source="IvK_GI7LC3h44RhGKrcl-431" target="IvK_GI7LC3h44RhGKrcl-479" edge="1">
          <mxGeometry relative="1" as="geometry">
            <mxPoint x="2099.9999999999995" y="1036" as="targetPoint" />
          </mxGeometry>
        </mxCell>
        <mxCell id="IvK_GI7LC3h44RhGKrcl-486" style="edgeStyle=orthogonalEdgeStyle;rounded=0;orthogonalLoop=1;jettySize=auto;html=1;" parent="IvK_GI7LC3h44RhGKrcl-1" source="IvK_GI7LC3h44RhGKrcl-483" target="IvK_GI7LC3h44RhGKrcl-485" edge="1">
          <mxGeometry relative="1" as="geometry" />
        </mxCell>
        <mxCell id="IvK_GI7LC3h44RhGKrcl-489" value="" style="edgeStyle=orthogonalEdgeStyle;rounded=0;orthogonalLoop=1;jettySize=auto;html=1;entryX=0.5;entryY=0;entryDx=0;entryDy=0;" parent="IvK_GI7LC3h44RhGKrcl-1" source="IvK_GI7LC3h44RhGKrcl-410" target="IvK_GI7LC3h44RhGKrcl-492" edge="1">
          <mxGeometry relative="1" as="geometry">
            <mxPoint x="1935.0000000000005" y="556" as="targetPoint" />
          </mxGeometry>
        </mxCell>
        <mxCell id="IvK_GI7LC3h44RhGKrcl-497" style="edgeStyle=orthogonalEdgeStyle;rounded=0;orthogonalLoop=1;jettySize=auto;html=1;exitX=0.5;exitY=1;exitDx=0;exitDy=0;entryX=1;entryY=0.5;entryDx=0;entryDy=0;" parent="IvK_GI7LC3h44RhGKrcl-1" source="IvK_GI7LC3h44RhGKrcl-493" target="IvK_GI7LC3h44RhGKrcl-495" edge="1">
          <mxGeometry relative="1" as="geometry" />
        </mxCell>
        <mxCell id="IvK_GI7LC3h44RhGKrcl-498" style="edgeStyle=orthogonalEdgeStyle;rounded=0;orthogonalLoop=1;jettySize=auto;html=1;exitX=0.5;exitY=1;exitDx=0;exitDy=0;entryX=0.85;entryY=0.05;entryDx=0;entryDy=0;entryPerimeter=0;" parent="IvK_GI7LC3h44RhGKrcl-1" source="IvK_GI7LC3h44RhGKrcl-496" target="IvK_GI7LC3h44RhGKrcl-431" edge="1">
          <mxGeometry relative="1" as="geometry" />
        </mxCell>
        <mxCell id="IvK_GI7LC3h44RhGKrcl-512" style="edgeStyle=orthogonalEdgeStyle;rounded=0;orthogonalLoop=1;jettySize=auto;html=1;exitX=1;exitY=0.7;exitDx=0;exitDy=0;entryX=0.5;entryY=1;entryDx=0;entryDy=0;" parent="IvK_GI7LC3h44RhGKrcl-1" source="IvK_GI7LC3h44RhGKrcl-431" target="IvK_GI7LC3h44RhGKrcl-504" edge="1">
          <mxGeometry relative="1" as="geometry" />
        </mxCell>
        <mxCell id="IvK_GI7LC3h44RhGKrcl-517" value="" style="edgeStyle=orthogonalEdgeStyle;rounded=0;orthogonalLoop=1;jettySize=auto;html=1;" parent="IvK_GI7LC3h44RhGKrcl-1" source="IvK_GI7LC3h44RhGKrcl-508" target="IvK_GI7LC3h44RhGKrcl-516" edge="1">
          <mxGeometry relative="1" as="geometry" />
        </mxCell>
        <mxCell id="IvK_GI7LC3h44RhGKrcl-518" style="edgeStyle=orthogonalEdgeStyle;rounded=0;orthogonalLoop=1;jettySize=auto;html=1;entryX=0.75;entryY=1;entryDx=0;entryDy=0;" parent="IvK_GI7LC3h44RhGKrcl-1" source="IvK_GI7LC3h44RhGKrcl-516" target="IvK_GI7LC3h44RhGKrcl-362" edge="1">
          <mxGeometry relative="1" as="geometry">
            <Array as="points">
              <mxPoint x="1950" y="456" />
              <mxPoint x="370" y="456" />
            </Array>
          </mxGeometry>
        </mxCell>
        <mxCell id="IvK_GI7LC3h44RhGKrcl-482" style="edgeStyle=orthogonalEdgeStyle;rounded=0;orthogonalLoop=1;jettySize=auto;html=1;entryX=0.5;entryY=1;entryDx=0;entryDy=0;" parent="IvK_GI7LC3h44RhGKrcl-1" source="IvK_GI7LC3h44RhGKrcl-471" target="IvK_GI7LC3h44RhGKrcl-519" edge="1">
          <mxGeometry relative="1" as="geometry">
            <mxPoint x="2483.9999999999995" y="942" as="targetPoint" />
          </mxGeometry>
        </mxCell>
        <mxCell id="IvK_GI7LC3h44RhGKrcl-523" style="edgeStyle=orthogonalEdgeStyle;rounded=0;orthogonalLoop=1;jettySize=auto;html=1;entryX=0.75;entryY=1;entryDx=0;entryDy=0;" parent="IvK_GI7LC3h44RhGKrcl-1" source="IvK_GI7LC3h44RhGKrcl-485" target="IvK_GI7LC3h44RhGKrcl-362" edge="1">
          <mxGeometry relative="1" as="geometry">
            <Array as="points">
              <mxPoint x="2319" y="456" />
              <mxPoint x="370" y="456" />
            </Array>
          </mxGeometry>
        </mxCell>
        <mxCell id="IvK_GI7LC3h44RhGKrcl-526" value="" style="edgeStyle=orthogonalEdgeStyle;rounded=0;orthogonalLoop=1;jettySize=auto;html=1;" parent="IvK_GI7LC3h44RhGKrcl-1" source="IvK_GI7LC3h44RhGKrcl-519" target="IvK_GI7LC3h44RhGKrcl-525" edge="1">
          <mxGeometry relative="1" as="geometry" />
        </mxCell>
        <mxCell id="PHGo-jgC-SAZo5eZ7DfG-9" value="" style="edgeStyle=orthogonalEdgeStyle;rounded=0;orthogonalLoop=1;jettySize=auto;html=1;" edge="1" parent="IvK_GI7LC3h44RhGKrcl-1" source="PHGo-jgC-SAZo5eZ7DfG-4" target="PHGo-jgC-SAZo5eZ7DfG-8">
          <mxGeometry relative="1" as="geometry" />
        </mxCell>
        <mxCell id="PHGo-jgC-SAZo5eZ7DfG-12" style="edgeStyle=orthogonalEdgeStyle;rounded=0;orthogonalLoop=1;jettySize=auto;html=1;entryX=1;entryY=0.5;entryDx=0;entryDy=0;" edge="1" parent="IvK_GI7LC3h44RhGKrcl-1" source="PHGo-jgC-SAZo5eZ7DfG-10" target="PHGo-jgC-SAZo5eZ7DfG-2">
          <mxGeometry relative="1" as="geometry">
            <Array as="points">
              <mxPoint x="2930" y="70" />
            </Array>
          </mxGeometry>
        </mxCell>
        <mxCell id="PHGo-jgC-SAZo5eZ7DfG-29" style="edgeStyle=orthogonalEdgeStyle;rounded=0;orthogonalLoop=1;jettySize=auto;html=1;exitX=0.5;exitY=1;exitDx=0;exitDy=0;entryX=1;entryY=0.5;entryDx=0;entryDy=0;" edge="1" parent="IvK_GI7LC3h44RhGKrcl-1" source="IvK_GI7LC3h44RhGKrcl-475" target="IvK_GI7LC3h44RhGKrcl-431">
          <mxGeometry relative="1" as="geometry" />
        </mxCell>
        <mxCell id="PHGo-jgC-SAZo5eZ7DfG-31" value="" style="edgeStyle=orthogonalEdgeStyle;rounded=0;orthogonalLoop=1;jettySize=auto;html=1;" edge="1" parent="IvK_GI7LC3h44RhGKrcl-1" source="PHGo-jgC-SAZo5eZ7DfG-27" target="PHGo-jgC-SAZo5eZ7DfG-30">
          <mxGeometry relative="1" as="geometry" />
        </mxCell>
        <mxCell id="PHGo-jgC-SAZo5eZ7DfG-42" style="edgeStyle=orthogonalEdgeStyle;rounded=0;orthogonalLoop=1;jettySize=auto;html=1;entryX=0.15;entryY=0.95;entryDx=0;entryDy=0;entryPerimeter=0;" edge="1" parent="IvK_GI7LC3h44RhGKrcl-1" source="PHGo-jgC-SAZo5eZ7DfG-39" target="IvK_GI7LC3h44RhGKrcl-431">
          <mxGeometry relative="1" as="geometry">
            <Array as="points">
              <mxPoint x="2770" y="1836" />
              <mxPoint x="1272" y="1836" />
            </Array>
          </mxGeometry>
        </mxCell>
        <mxCell id="PHGo-jgC-SAZo5eZ7DfG-51" style="edgeStyle=orthogonalEdgeStyle;rounded=0;orthogonalLoop=1;jettySize=auto;html=1;exitX=0.5;exitY=1;exitDx=0;exitDy=0;entryX=0.5;entryY=1;entryDx=0;entryDy=0;" edge="1" parent="IvK_GI7LC3h44RhGKrcl-1" source="IvK_GI7LC3h44RhGKrcl-431" target="PHGo-jgC-SAZo5eZ7DfG-45">
          <mxGeometry relative="1" as="geometry">
            <Array as="points">
              <mxPoint x="1300" y="1806" />
              <mxPoint x="3240" y="1806" />
            </Array>
          </mxGeometry>
        </mxCell>
        <mxCell id="PHGo-jgC-SAZo5eZ7DfG-53" style="edgeStyle=orthogonalEdgeStyle;rounded=0;orthogonalLoop=1;jettySize=auto;html=1;entryX=0.5;entryY=1;entryDx=0;entryDy=0;" edge="1" parent="IvK_GI7LC3h44RhGKrcl-1" source="PHGo-jgC-SAZo5eZ7DfG-48" target="PHGo-jgC-SAZo5eZ7DfG-52">
          <mxGeometry relative="1" as="geometry" />
        </mxCell>
        <mxCell id="PHGo-jgC-SAZo5eZ7DfG-54" style="edgeStyle=orthogonalEdgeStyle;rounded=0;orthogonalLoop=1;jettySize=auto;html=1;entryX=1;entryY=0.25;entryDx=0;entryDy=0;" edge="1" parent="IvK_GI7LC3h44RhGKrcl-1" source="PHGo-jgC-SAZo5eZ7DfG-52" target="PHGo-jgC-SAZo5eZ7DfG-2">
          <mxGeometry relative="1" as="geometry">
            <Array as="points">
              <mxPoint x="3240" y="55" />
            </Array>
          </mxGeometry>
        </mxCell>
        <mxCell id="PHGo-jgC-SAZo5eZ7DfG-58" value="" style="edgeStyle=orthogonalEdgeStyle;rounded=0;orthogonalLoop=1;jettySize=auto;html=1;" edge="1" parent="IvK_GI7LC3h44RhGKrcl-1" source="PHGo-jgC-SAZo5eZ7DfG-55" target="PHGo-jgC-SAZo5eZ7DfG-57">
          <mxGeometry relative="1" as="geometry" />
        </mxCell>
      </root>
    </mxGraphModel>
  </diagram>
</mxfile>
